#N canvas 0 23 450 300 12;
#X obj 64 141 unpack;
#X obj 64 80 inlet;
#X obj 254 116 r \$2-p;
#X obj 124 140 element template \$3\$1;
#X obj 57 163 set \$3\$1 \$4;
#X connect 0 0 4 0;
#X connect 0 1 3 0;
#X connect 1 0 0 0;
#X connect 2 0 3 1;
#X connect 3 0 4 1;
