#N canvas 0 23 450 300 12;
#X obj 255 126 get template w;
#X obj 231 155 swap;
#X obj 231 179 /;
#X obj 231 203 + 0.5;
#X obj 88 95 setsize template \$3\$1;
#X obj 231 232 set template w\$1;
#X obj 232 48 r \$2-p;
#X obj 232 69 t p p p;
#X obj 88 63 t f f;
#X obj 88 39 r _setsize-\$1\$3;
#X connect 0 0 1 1;
#X connect 1 0 2 0;
#X connect 1 1 2 1;
#X connect 2 0 3 0;
#X connect 3 0 5 0;
#X connect 6 0 7 0;
#X connect 7 0 4 1;
#X connect 7 1 0 0;
#X connect 7 2 5 1;
#X connect 8 0 4 0;
#X connect 8 1 1 0;
#X connect 9 0 8 0;
