#N canvas 0 23 450 300 10;
#X obj 98 115 b;
#X obj 188 115 b;
#X obj 271 115 b;
#X obj 98 205 crand -10 0;
#X obj 98 29 inlet;
#X obj 98 254 outlet;
#X obj 98 63 array random \$1;
#X obj 98 91 moses \$2;
#X obj 188 91 moses \$3;
#X obj 188 205 crand 0 10;
#X obj 271 205 crand 10 28;
#X obj 300 10 inlet;
#X obj 300 31 list split 2;
#X obj 334 71 list split 2;
#X msg 300 51 set \$1 \$2;
#X msg 334 91 set \$1 \$2;
#X msg 368 111 set \$1 \$2;
#X connect 0 0 3 0;
#X connect 1 0 9 0;
#X connect 2 0 10 0;
#X connect 3 0 5 0;
#X connect 4 0 6 0;
#X connect 6 0 7 0;
#X connect 7 0 0 0;
#X connect 7 1 8 0;
#X connect 8 0 1 0;
#X connect 8 1 2 0;
#X connect 9 0 5 0;
#X connect 10 0 5 0;
#X connect 11 0 12 0;
#X connect 12 0 14 0;
#X connect 12 1 13 0;
#X connect 13 0 15 0;
#X connect 13 1 16 0;
#X connect 14 0 3 0;
#X connect 15 0 9 0;
#X connect 16 0 10 0;
