#N canvas 457 26 450 300 10;
#X obj 221 166 r \$1;
#X obj 221 188 set \$2 \$1;
#X obj 284 166 r \$2-p;
#X obj 105 111 nbx 5 14 -1e+37 1e+37 0 0 \$1 \$1-set \$1 0 -5 0 8 -262144
-1 -1 50 256;
#X obj 218 50 r \$1;
#X obj 218 72 list prepend \$1-set;
#X obj 218 94 t a b;
#X obj 218 116 text set preset;
#X msg 267 93 1e+10;
#X connect 0 0 1 0;
#X connect 2 0 1 1;
#X connect 4 0 5 0;
#X connect 5 0 6 0;
#X connect 6 0 7 0;
#X connect 6 1 8 0;
#X connect 8 0 7 1;
#X coords 0 -1 1 1 55 30 2 100 100;
