#N canvas 457 26 450 300 10;
#X obj 221 166 r \$1;
#X obj 221 188 set \$2 \$1;
#X obj 284 166 r \$2-p;
#X obj 218 50 r \$1;
#X obj 218 93 text set preset \$3 \$4;
#X obj 218 72 list append \$1-set;
#X obj 101 101 cnv 15 53 28 empty empty empty 20 12 0 14 -204786 -66577
0;
#X obj 105 111 nbx 5 14 -1e+37 1e+37 0 0 \$1 \$1-set \$1 0 -5 0 8 -204800
-1 -1 0 256;
#X connect 0 0 1 0;
#X connect 2 0 1 1;
#X connect 3 0 5 0;
#X connect 5 0 4 0;
#X coords 0 -1 1 1 55 30 2 100 100;
