#N canvas 457 26 450 300 12;
#X obj 229 71 r \$1;
#X obj 211 138 r \$1;
#X obj 229 93 set \$2 \$1;
#X obj 292 71 r \$2-p;
#X obj 211 184 text set preset \$3 \$4;
#X obj 211 160 list append \$1-set;
#X obj 101 101 cnv 15 53 21 empty empty empty 20 12 0 14 -262130 -66577
0;
#X obj 105 104 tgl 15 0 \$1 \$1-set \$1 17 7 0 10 -204800 -1 -1 1 1
;
#X connect 0 0 2 0;
#X connect 1 0 5 0;
#X connect 3 0 2 1;
#X connect 5 0 4 0;
#X coords 0 -1 1 1 55 23 2 100 100;
