#N canvas 457 26 450 300 12;
#X obj 229 71 r \$1;
#X obj 211 138 r \$1;
#X obj 344 69 r \$2-p;
#X obj 211 184 text set preset \$3 \$4;
#X obj 211 160 list append \$1-set;
#X obj 101 101 cnv 15 110 22 empty empty empty 20 12 0 14 -261682 -66577
0;
#X obj 118 103 cnv 15 85 18 empty empty empty 20 12 0 14 -204800 -66577
0;
#X symbolatom 118 103 12 0 0 0 #1 #1-set #1, f 12;
#X obj 229 93 set -symbol \$2 \$1;
#X connect 0 0 8 0;
#X connect 1 0 4 0;
#X connect 2 0 8 1;
#X connect 4 0 3 0;
#X coords 0 -1 1 1 112 24 2 100 100;
