#N canvas 457 26 450 300 10;
#X obj 229 71 r \$1;
#X obj 229 93 set \$2 \$1;
#X obj 292 71 r \$2-p;
#X obj 105 104 tgl 15 0 \$1 \$1-set \$1 17 7 0 10 -262144 -1 -1 1 1
;
#X obj 211 138 r \$1;
#X obj 211 160 list prepend \$1-set;
#X obj 211 182 t a b;
#X obj 211 204 text set preset;
#X msg 260 181 1e+10;
#X connect 0 0 1 0;
#X connect 2 0 1 1;
#X connect 4 0 5 0;
#X connect 5 0 6 0;
#X connect 6 0 7 0;
#X connect 6 1 8 0;
#X connect 8 0 7 1;
#X coords 0 -1 1 1 55 23 2 100 100;
