#N struct template float x float y array fp fp-e;
#N struct fp-e float x float y float w symbol kind float vis;
#N canvas 547 50 672 505 10;
#N canvas 0 23 450 300 score 1;
#X scalar template 50 50 \; 0 2 0 frog 1 \; 40 9 0 punta 1 \; 80 6
0 punta 1 \; 120 8 0 frog 1 \; 160 8 0 punta 1 \; 200 1 0 punta 0 \;
240 8 0 frog 0 \; 280 2 0 punta 1 \; 320 1 0 punta 0 \; 360 9 0 frog
1 \; \;;
#X restore 26 15 pd score;
#N canvas 0 23 450 300 structure 0;
#N canvas 0 23 450 300 fp-e 0;
#X obj 46 29 struct fp-e float x float y float w symbol kind float
vis;
#X obj 75 86 drawsymbol -v vis kind;
#X restore 47 50 pd fp-e;
#X obj 47 80 plot fp;
#X obj 40 25 struct template float x float y array fp fp-e;
#X restore 29 40 pd structure;
#X msg 48 80 traverse pd-score \, bang;
#X obj 48 101 pointer;
#X obj 48 122 t b p;
#X msg 48 143 50 50;
#X obj 48 164 append template x y;
#X obj 48 185 t p b p;
#X msg 78 214 10;
#X obj 78 235 setsize template fp;
#X msg 166 26 \; pd-score clear;
#X obj 295 97 element template fp;
#X msg 279 30 10;
#X obj 279 51 fd_iterate;
#X obj 319 117 t b p;
#X obj 221 204 set fp-e x;
#X obj 424 372 set -symbol fp-e kind;
#X obj 335 171 random 2;
#X obj 394 272 sel 0 1;
#X msg 398 329 symbol frog;
#X msg 419 299 symbol punta;
#X obj 241 258 set fp-e y;
#X obj 241 237 random 10;
#X obj 279 72 t f f;
#X obj 238 120 * 40;
#X obj 334 213 t f f b;
#X obj 349 244 f;
#X obj 331 269 ==;
#X obj 229 349 set fp-e vis;
#X obj 331 290 t f f;
#X obj 256 317 == 0;
#X obj 341 332 sel 1;
#X obj 341 353 tgl 15 0 empty empty empty 17 7 0 10 -262144 -1 -1 1
1;
#X connect 2 0 3 0;
#X connect 3 0 4 0;
#X connect 4 0 5 0;
#X connect 4 1 6 2;
#X connect 5 0 6 0;
#X connect 6 0 7 0;
#X connect 7 0 11 1;
#X connect 7 1 8 0;
#X connect 7 2 9 1;
#X connect 8 0 9 0;
#X connect 11 0 14 0;
#X connect 12 0 13 0;
#X connect 13 0 23 0;
#X connect 14 0 17 0;
#X connect 14 0 22 0;
#X connect 14 1 15 1;
#X connect 14 1 16 1;
#X connect 14 1 21 1;
#X connect 14 1 28 1;
#X connect 17 0 25 0;
#X connect 18 0 19 0;
#X connect 18 1 20 0;
#X connect 19 0 16 0;
#X connect 20 0 16 0;
#X connect 22 0 21 0;
#X connect 23 0 24 0;
#X connect 23 1 11 0;
#X connect 24 0 15 0;
#X connect 25 0 27 0;
#X connect 25 2 26 0;
#X connect 26 0 27 1;
#X connect 27 0 29 0;
#X connect 29 0 30 0;
#X connect 29 1 31 0;
#X connect 30 0 28 0;
#X connect 31 0 32 0;
#X connect 32 0 18 0;
#X connect 32 0 26 1;
