#N struct template float x float y array word word-e;
#N struct word-e float x float y float w symbol what array sub sub-e
;
#N struct sub-e float x float y;
#N canvas 545 55 655 525 10;
#N canvas 16 182 476 178 score 1;
#X scalar template 50 50 \; 0 -6.24419 0 zero \; 0 -31.2867 \; 5 -25.7866
\; 10 -30.3388 \; 15 -39.8322 \; 20 -39.7023 \; 25 -30.7559 \; \; 60
-16.1098 2 one \; 0 -36.4733 \; 5 -31.4091 \; 10 -27.3287 \; 15 -28.3132
\; 20 -30.3902 \; 25 -32.6529 \; \; 120 -13.3023 2 two \; 0 -32.6291
\; 5 -27.6161 \; 10 -29.0388 \; 15 -30.2571 \; 20 -31.8032 \; 25 -36.4441
\; \; 180 -1.8938 1 three \; 0 -34.088 \; 5 -37.2273 \; 10 -29.5722
\; 15 -25.5717 \; 20 -32.9456 \; 25 -36.1223 \; \; 240 -13.3423 0 four
\; 0 -25.1267 \; 5 -39.3337 \; 10 -30.9497 \; 15 -32.0947 \; 20 -30.6841
\; 25 -38.3147 \; \; 300 -2.73455 1 N \; 0 -34.1798 \; 5 -34.377 \;
10 -34.7328 \; 15 -29.5235 \; 20 -31.0112 \; 25 -30.5505 \; \; \;;
#X restore 25 20 pd score;
#N canvas 0 23 450 300 structure 0;
#X obj 26 22 struct template float x float y array word word-e;
#N canvas 492 167 450 300 word-e 0;
#N canvas 0 23 450 300 sub-e 0;
#X obj 45 22 struct sub-e float x float y;
#X restore 51 118 pd sub-e;
#X obj 45 28 struct word-e float x float y float w symbol what array
sub sub-e;
#X obj 50 141 plot curve sub;
#X obj 48 79 drawsymbol what 0 -20;
#X restore 26 43 pd word-e;
#X obj 26 66 plot word 0 0 40 40;
#X restore 22 42 pd structure;
#X msg 174 73 traverse pd-score \, bang;
#X obj 174 94 pointer;
#X obj 174 115 t b p;
#X msg 174 136 50 50;
#X obj 174 157 append template x y;
#X obj 183 231 setsize template word;
#X obj 122 297 element template word;
#X obj 55 347 set -symbol word-e what;
#X obj 58 427 set word-e x;
#X msg 374 66 \; pd-score clear;
#X obj 40 484 set word-e y;
#X obj 25 299 fd_numword;
#X obj 25 278 t f f;
#X obj 28 324 t b a;
#X obj 377 439 set sub-e x;
#X obj 358 481 set sub-e y;
#X obj 399 372 element word-e sub;
#X obj 496 241 t b b p;
#X obj 486 301 setsize word-e sub;
#X msg 338 321 0 \, 1 \, 2 \, 3 \, 4 \, 5;
#X obj 369 286 t b p;
#X obj 225 335 t p p;
#X obj 171 187 t p b p;
#X obj 93 218 t b p;
#X obj 176 8 bng 15 250 50 0 empty empty empty 17 7 0 10 -262144 -1
-1;
#X obj 176 28 t b b;
#X obj 373 248 t p p;
#X obj 57 374 f;
#X obj 337 347 t f b f f;
#X obj 57 395 * 60;
#X obj 369 419 * 5;
#X obj 38 462 crand -20 0;
#X obj 154 477 set word-e w;
#X obj 351 460 crand -40 -25;
#X msg 25 257 0 \, 1 \, 2 \, 3 \, 4 \, 5;
#X msg 193 208 6;
#X msg 504 271 6;
#X obj 152 455 random 3;
#X msg 128 373 symbol N;
#X connect 2 0 3 0;
#X connect 3 0 4 0;
#X connect 4 0 5 0;
#X connect 4 1 6 2;
#X connect 5 0 6 0;
#X connect 6 0 24 0;
#X connect 8 0 23 0;
#X connect 13 0 15 0;
#X connect 14 0 13 0;
#X connect 14 1 8 0;
#X connect 14 1 29 1;
#X connect 15 0 29 0;
#X connect 15 0 33 0;
#X connect 15 0 39 0;
#X connect 15 1 9 0;
#X connect 18 0 16 1;
#X connect 18 0 17 1;
#X connect 19 1 38 0;
#X connect 19 2 20 1;
#X connect 21 0 30 0;
#X connect 22 0 21 0;
#X connect 22 1 18 1;
#X connect 23 0 9 1;
#X connect 23 0 10 1;
#X connect 23 0 12 1;
#X connect 23 0 34 1;
#X connect 23 1 28 0;
#X connect 24 0 25 0;
#X connect 24 1 37 0;
#X connect 24 2 7 1;
#X connect 25 0 36 0;
#X connect 25 1 8 1;
#X connect 26 0 27 0;
#X connect 27 0 2 0;
#X connect 27 1 11 0;
#X connect 28 0 22 0;
#X connect 28 1 19 0;
#X connect 29 0 31 0;
#X connect 30 1 35 0;
#X connect 30 2 32 0;
#X connect 30 3 18 0;
#X connect 31 0 10 0;
#X connect 32 0 16 0;
#X connect 33 0 12 0;
#X connect 35 0 17 0;
#X connect 36 0 14 0;
#X connect 37 0 7 0;
#X connect 38 0 20 0;
#X connect 39 0 34 0;
#X connect 40 0 9 0;
