#N canvas 831 475 449 299 12;
#N canvas 376 475 451 299 init 1;
#N canvas 0 23 450 300 setsymbols 0;
#X obj 112 32 r template-p;
#X obj 112 56 t b p;
#X msg 100 108 list frl. voc. prs. sng. cb. dyn.;
#X obj 100 188 set -symbol template staffname stafftwo staffthree stafffour
stafffive staffsix, f 29;
#X connect 0 0 1 0;
#X connect 1 0 2 0;
#X connect 1 1 3 6;
#X connect 2 0 3 0;
#X restore 22 105 pd setsymbols;
#N canvas 0 23 450 300 score-p 0;
#X obj 80 137 pointer;
#X msg 80 114 traverse pd-score \, bang;
#X obj 80 82 r get-score-p;
#X obj 80 161 s score-p;
#X connect 0 0 3 0;
#X connect 1 0 0 0;
#X connect 2 0 1 0;
#X restore 21 16 pd score-p;
#N canvas 124 474 450 300 template-p 0;
#X obj 36 157 append template x y;
#X obj 36 59 t b p;
#X text 153 210 <-- getting "template" pointer via [append], f 27
;
#X obj 36 214 s template-p;
#X obj 36 28 r score-p;
#X obj 152 98 r page-margins;
#X obj 36 124 list append 80 20;
#X connect 0 0 3 0;
#X connect 1 0 6 0;
#X connect 1 1 0 2;
#X connect 4 0 1 0;
#X connect 5 0 6 1;
#X connect 6 0 0 0;
#X restore 22 45 pd template-p;
#X msg 266 24 bang;
#X obj 267 51 random 1600;
#X obj 267 76 + 200;
#X msg 268 99 \; pd-score clear \; get-score-p bang \; template-width
\$1 \; make-staff bang \;;
#N canvas 771 258 450 300 filled 0;
#X obj 24 59 t b b;
#X obj 24 83 random 1000;
#X msg 117 3 bang;
#X obj 117 27 random 30;
#X obj 117 51 sel;
#X obj 151 83 until;
#X obj 79 120 random 32;
#X obj 79 144 + 174;
#X obj 34 190 append template s t;
#X obj 161 166 r score-p;
#X connect 0 0 1 0;
#X connect 0 1 6 0;
#X connect 1 0 8 0;
#X connect 2 0 3 0;
#X connect 3 0 4 0;
#X connect 4 1 5 0;
#X connect 5 0 0 0;
#X connect 6 0 7 0;
#X connect 7 0 8 1;
#X connect 9 0 8 2;
#X restore 53 147 pd filled squares;
#N canvas 172 23 1083 751 make-staff-old 0;
#X obj 571 716 random 40;
#X obj 571 740 - 20;
#X obj 155 510 /;
#X obj 227 891 t b f;
#X obj 226 917 f;
#X obj 263 918 + 0;
#X msg 292 882 0;
#X obj 221 860 random;
#X obj 155 638 set;
#X msg 129 222 set template \$1;
#X msg 129 197 symbol l\$1;
#X obj 129 172 symbol;
#X obj 129 346 + 3;
#X obj 182 428 setsize;
#X obj 235 398 r template-p;
#X obj 176 612 r template-p;
#X obj 147 101 t a a;
#X obj 88 139 list split 1;
#X obj 553 226 list split 1;
#X obj 155 560 pack;
#X msg 155 586 set template w\$2 \, \$1;
#X obj 184 457 r template-width;
#X obj 155 482 swap;
#X obj 129 371 t f f f;
#X obj 418 628 element;
#X obj 621 638 list;
#X obj 129 247 t b a a a, f 42;
#X obj 452 599 r template-p;
#X obj 663 873 set;
#X obj 146 28 r make-staff;
#X obj 143 768 t f f f b, f 15;
#X obj 123 807 until;
#X obj 123 832 f;
#X obj 123 857 + 1;
#X obj 158 832 sel;
#X obj 162 859 t f b;
#X msg 64 834 0;
#X obj 185 794 - 2;
#X obj 155 535 fd_ceil;
#X msg 623 662 symbol \$3;
#X obj 658 761 list;
#X msg 659 787 set \$1-e \$2;
#X msg 773 551 w;
#X obj 798 586 symbol;
#X msg 820 551 y;
#X obj 418 678 f;
#X obj 543 691 b;
#X obj 419 785 random 6;
#X obj 129 322 random 50;
#X obj 643 717 t a a;
#X obj 596 918 random 40;
#X obj 596 942 - 20;
#X obj 386 873 t b b;
#X obj 376 951 random 20;
#X obj 328 783 t f f;
#X obj 436 919 r template-width;
#X obj 418 653 t b p p;
#X obj 418 703 t f f;
#X obj 256 834 / 3;
#X msg 634 449 50;
#X obj 603 474 t f;
#X floatatom 603 499 5 0 0 0 - - -, f 5;
#X floatatom 328 808 5 0 0 0 - - -, f 5;
#X obj 127 664 list prepend;
#X obj 329 447 t f f;
#X obj 297 626 fd_iterate;
#X obj 421 978 set lfive-e x y;
#X obj 155 727 list split 1;
#X obj 297 650 t b f;
#X obj 297 674 random 100;
#X obj 297 698 moses 20;
#X obj 297 722 b;
#X obj 297 746 f;
#X obj 768 771 random 100;
#X obj 768 819 b;
#X obj 832 798 moses 20;
#X obj 832 822 b;
#X obj 880 828 b;
#X obj 737 851 random 10;
#X obj 737 875 - 20;
#X obj 768 795 moses 2;
#X obj 827 861 random 10;
#X obj 827 885 + 5;
#X obj 910 878 + 20;
#X obj 838 937 t f;
#X msg 595 448 200;
#X obj 910 854 random 8;
#X obj 528 821 random 20;
#X obj 528 845 - 10;
#X obj 373 725 sel 1 3 5 6 7 4 2;
#X obj 776 524 sel 1 3 6;
#X obj 420 816 crand 1 16;
#X obj 553 251 t f f f f f;
#X obj 589 377 sel 5;
#X msg 147 75 1 one \, 2 two \, 3 three \, 4 four \, 5 five \, 6 six
\, 7 seven;
#X obj 127 688 route 5;
#X connect 0 0 1 0;
#X connect 1 0 28 0;
#X connect 2 0 38 0;
#X connect 3 0 4 0;
#X connect 3 1 5 0;
#X connect 4 0 5 1;
#X connect 4 0 54 0;
#X connect 5 0 4 1;
#X connect 6 0 5 1;
#X connect 6 0 4 1;
#X connect 7 0 3 0;
#X connect 9 0 26 0;
#X connect 10 0 9 0;
#X connect 11 0 10 0;
#X connect 12 0 23 0;
#X connect 14 0 13 1;
#X connect 15 0 8 1;
#X connect 16 0 17 0;
#X connect 16 1 18 0;
#X connect 17 1 11 0;
#X connect 18 0 92 0;
#X connect 19 0 20 0;
#X connect 20 0 8 0;
#X connect 21 0 22 1;
#X connect 22 0 2 0;
#X connect 22 1 2 1;
#X connect 23 0 63 0;
#X connect 23 1 22 0;
#X connect 23 2 13 0;
#X connect 24 0 56 0;
#X connect 25 0 39 0;
#X connect 26 0 48 0;
#X connect 26 1 13 0;
#X connect 26 2 24 0;
#X connect 26 3 25 0;
#X connect 27 0 24 1;
#X connect 29 0 94 0;
#X connect 30 0 31 0;
#X connect 30 1 37 0;
#X connect 30 2 58 0;
#X connect 30 3 6 0;
#X connect 31 0 32 0;
#X connect 32 0 33 0;
#X connect 33 0 34 0;
#X connect 34 0 36 0;
#X connect 34 1 35 0;
#X connect 35 0 32 1;
#X connect 35 1 7 0;
#X connect 36 0 32 1;
#X connect 37 0 34 1;
#X connect 38 0 19 0;
#X connect 39 0 49 0;
#X connect 40 0 41 0;
#X connect 41 0 28 0;
#X connect 42 0 43 0;
#X connect 43 0 40 1;
#X connect 44 0 43 0;
#X connect 45 0 57 0;
#X connect 46 0 0 0;
#X connect 47 0 28 0;
#X connect 48 0 12 0;
#X connect 49 0 40 0;
#X connect 50 0 51 0;
#X connect 51 0 66 1;
#X connect 52 0 53 0;
#X connect 52 1 73 0;
#X connect 53 0 66 0;
#X connect 54 0 62 0;
#X connect 54 1 24 0;
#X connect 55 0 53 1;
#X connect 56 0 45 0;
#X connect 56 1 28 1;
#X connect 56 2 66 2;
#X connect 57 1 89 0;
#X connect 58 0 7 1;
#X connect 59 0 60 0;
#X connect 60 0 48 1;
#X connect 60 0 61 0;
#X connect 63 0 95 0;
#X connect 64 0 19 1;
#X connect 64 1 63 1;
#X connect 65 0 68 0;
#X connect 67 1 30 0;
#X connect 68 0 69 0;
#X connect 68 1 72 1;
#X connect 69 0 70 0;
#X connect 70 0 71 0;
#X connect 71 0 72 0;
#X connect 72 0 54 0;
#X connect 73 0 80 0;
#X connect 74 0 78 0;
#X connect 75 0 76 0;
#X connect 75 1 77 0;
#X connect 76 0 81 0;
#X connect 77 0 86 0;
#X connect 78 0 79 0;
#X connect 79 0 84 0;
#X connect 80 0 74 0;
#X connect 80 1 75 0;
#X connect 81 0 82 0;
#X connect 82 0 84 0;
#X connect 83 0 84 0;
#X connect 84 0 66 1;
#X connect 85 0 60 0;
#X connect 86 0 83 0;
#X connect 87 0 88 0;
#X connect 88 0 28 0;
#X connect 89 0 47 0;
#X connect 89 1 47 0;
#X connect 89 2 52 0;
#X connect 89 3 91 0;
#X connect 89 5 87 0;
#X connect 89 6 87 0;
#X connect 89 7 46 0;
#X connect 90 0 42 0;
#X connect 90 1 42 0;
#X connect 90 2 42 0;
#X connect 90 3 44 0;
#X connect 91 0 28 0;
#X connect 92 0 64 0;
#X connect 92 1 90 0;
#X connect 92 2 45 1;
#X connect 92 3 93 0;
#X connect 93 0 85 0;
#X connect 93 1 59 0;
#X connect 94 0 16 0;
#X connect 95 0 65 0;
#X connect 95 1 67 0;
#X restore 132 77 pd make-staff-old;
#N canvas 81 23 1060 751 make-grid 0;
#X obj 89 531 /;
#X obj 89 659 set;
#X msg 66 317 set template \$1;
#X msg 66 292 symbol l\$1;
#X obj 112 449 setsize;
#X obj 158 423 r template-p;
#X obj 107 635 r template-p;
#X obj 89 581 pack;
#X msg 89 607 set template w\$2 \, \$1;
#X obj 535 186 r template-p;
#X obj 402 217 set template width;
#X obj 114 477 r template-width;
#X obj 89 503 swap;
#X obj 66 392 t f f f;
#X obj 348 541 element;
#X obj 518 412 list;
#X obj 66 342 t b a a a, f 34;
#X obj 394 517 r template-p;
#X obj 438 745 set;
#X obj 89 556 fd_ceil;
#X obj 392 179 r template-width;
#X msg 518 438 symbol \$3;
#X obj 518 464 list;
#X msg 518 489 set \$1-e \$2;
#X msg 602 413 w;
#X obj 602 445 symbol;
#X msg 635 413 y;
#X obj 602 376 sel 1 3 6;
#X msg 397 54 read complements.txt;
#X obj 397 78 text define complements;
#N canvas 0 23 450 300 info 0;
#X msg 23 32 line 0 \, bang;
#X obj 23 56 text sequence complements;
#X obj 23 80 t a b;
#X obj 23 104 list length;
#X obj 23 128 change;
#X obj 104 134 f;
#X obj 136 134 + 1;
#X obj 23 186 list prepend;
#X obj 23 210 print;
#X obj 23 152 - 5;
#X msg 123 103 0;
#X obj 247 184 -;
#X floatatom 247 208 5 0 0 0 - - -, f 5;
#X msg 191 100 bang;
#X obj 191 124 text size complements;
#X floatatom 191 148 5 0 0 0 - - -, f 5;
#X msg 247 160 1601 881 521 221 41;
#X connect 0 0 1 0;
#X connect 1 0 2 0;
#X connect 1 1 10 0;
#X connect 2 0 3 0;
#X connect 2 1 5 0;
#X connect 3 0 4 0;
#X connect 4 0 9 0;
#X connect 5 0 6 0;
#X connect 5 0 7 1;
#X connect 6 0 5 1;
#X connect 7 0 8 0;
#X connect 9 0 7 0;
#X connect 10 0 5 1;
#X connect 11 0 12 0;
#X connect 13 0 14 0;
#X connect 14 0 15 0;
#X connect 16 0 11 0;
#X restore 397 104 pd info on complements;
#N canvas 0 23 450 300 get-and-delete-elements 0;
#X msg 70 14 bang;
#X obj 70 38 text size complements;
#X obj 70 62 t b f;
#X obj 70 86 random;
#X obj 70 110 t f f;
#X obj 147 255 text delete complements;
#X obj 70 141 text get complements;
#X obj 70 165 route bang;
#X obj 243 217 print;
#X obj 147 232 f;
#X obj 124 204 t b b a;
#X connect 0 0 1 0;
#X connect 1 0 2 0;
#X connect 2 0 3 0;
#X connect 2 1 3 1;
#X connect 3 0 4 0;
#X connect 4 0 6 0;
#X connect 4 1 9 1;
#X connect 6 0 7 0;
#X connect 7 1 10 0;
#X connect 9 0 5 0;
#X connect 10 1 9 0;
#X connect 10 2 8 0;
#X restore 397 128 pd get-and-delete-elements;
#N canvas 0 23 473 626 grid-type 0;
#X obj 115 392 outlet;
#X obj 51 21 inlet;
#X text 217 160 <-- make the '-' delimiter split the list, f 22;
#N canvas 0 23 450 300 pick 0;
#X obj 244 47 random 41;
#X obj 244 68 random 180;
#X obj 244 92 + 41;
#X obj 57 242 text get complements;
#X obj 244 113 random 300;
#X obj 244 137 + 221;
#X obj 244 179 + 521;
#X obj 244 158 random 360;
#X obj 244 223 + 881;
#X obj 244 199 random 720;
#X obj 62 28 sel 2 3 4 5 6;
#X obj 62 7 inlet;
#X obj 57 266 outlet;
#X connect 0 0 3 0;
#X connect 1 0 2 0;
#X connect 2 0 3 0;
#X connect 3 0 12 0;
#X connect 4 0 5 0;
#X connect 5 0 3 0;
#X connect 6 0 3 0;
#X connect 7 0 6 0;
#X connect 8 0 3 0;
#X connect 9 0 8 0;
#X connect 10 0 0 0;
#X connect 10 1 1 0;
#X connect 10 2 4 0;
#X connect 10 3 7 0;
#X connect 10 4 9 0;
#X connect 10 5 3 0;
#X connect 11 0 10 0;
#X restore 83 117 pd pick one;
#N canvas 0 23 450 300 split 0;
#X obj 127 128 route symbol float;
#X obj 94 76 list split 1;
#X obj 95 52 list;
#X obj 95 97 t b a;
#X obj 53 73 b;
#X msg 188 177 append \$1;
#X obj 159 232 list store;
#X obj 127 152 t b b;
#X obj 95 22 inlet;
#X obj 159 256 outlet;
#X connect 0 0 7 0;
#X connect 0 1 5 0;
#X connect 1 0 3 0;
#X connect 1 1 2 1;
#X connect 1 2 7 0;
#X connect 2 0 1 0;
#X connect 3 0 4 0;
#X connect 3 1 0 0;
#X connect 4 0 2 0;
#X connect 5 0 6 0;
#X connect 6 0 9 0;
#X connect 7 0 6 1;
#X connect 7 1 6 0;
#X connect 8 0 2 0;
#X restore 83 154 pd split by '-';
#X text 215 86 <-- randomly pick one;
#X obj 164 244 f;
#X obj 196 244 + 1;
#X msg 202 117 0;
#X msg 135 20 2;
#X obj 196 268 * -1;
#X obj 83 246 list;
#X obj 83 270 list split 1;
#X obj 83 294 t b a;
#X obj 51 269 b;
#X obj 83 208 t a b, f 12;
#X obj 83 87 t f b;
#X obj 115 326 list prepend;
#X obj 51 45 sel 1;
#X obj 321 390 outlet;
#X connect 1 0 18 0;
#X connect 3 0 4 0;
#X connect 4 0 15 0;
#X connect 6 0 7 0;
#X connect 7 0 6 1;
#X connect 7 0 10 0;
#X connect 8 0 6 1;
#X connect 9 0 16 0;
#X connect 10 0 17 1;
#X connect 11 0 12 0;
#X connect 12 0 13 0;
#X connect 12 1 11 1;
#X connect 13 0 14 0;
#X connect 13 1 17 0;
#X connect 14 0 11 0;
#X connect 15 0 11 0;
#X connect 15 1 6 0;
#X connect 16 0 3 0;
#X connect 16 1 8 0;
#X connect 17 0 0 0;
#X connect 18 0 19 0;
#X connect 18 1 16 0;
#X restore 172 76 pd grid-type;
#X obj 66 268 fd_numword;
#X obj 305 171 change;
#X obj 305 194 b;
#X obj 172 100 t a a;
#X obj 83 142 list split 1;
#X obj 123 237 t f f;
#X obj 305 243 + 3;
#X obj 306 219 random 50;
#X obj 66 366 f;
#X obj 66 695 fd_iterate;
#X obj 438 670 sel;
#X obj 438 694 random 40;
#X obj 438 718 - 20;
#X obj 172 17 r make-grid;
#X obj 438 646 random 10;
#X obj 253 97 t b b;
#X msg 305 149 1;
#X obj 348 829 random 20;
#X obj 407 779 r template-width;
#X obj 348 989 set lfive-e x y;
#X obj 379 296 t f f f;
#X obj 348 590 f;
#X obj 66 802 element template lseven;
#X obj 224 777 r template-p;
#X obj 66 745 spigot;
#X msg 201 726 0;
#X msg 162 726 1;
#X obj 66 925 random 20;
#X obj 155 850 r template-width;
#X obj 66 826 t b p;
#X obj 66 851 random 100;
#X obj 66 875 moses 20;
#X obj 66 900 t b b;
#X obj 66 973 set lseven-e x y;
#X obj 438 622 b;
#X obj 348 853 + 20;
#X obj 66 949 + 20;
#X obj 407 803 - 20;
#X obj 155 874 - 20;
#X obj 404 24 loadbang;
#X obj 348 888 pack;
#X obj 501 985 set leight-e x y;
#X obj 348 912 t a b;
#X obj 403 910 random 2;
#X obj 348 936 list prepend;
#X obj 348 566 t b p p, f 63;
#X obj 768 938 r template-p;
#X obj 66 779 t f f;
#X obj 66 719 t f f;
#X obj 610 961 element template leight;
#X obj 610 938 f;
#X obj 501 961 t a b;
#N canvas 0 22 450 278 (subpatch) 0;
#X array pitch-probs 100 float 3;
#A 0 0 0 0 0 0 0 0 0 0 0 0 0 0 0 0 0 0 0 0 0 0 0 0 0 0 0 0 0 0 0 0
0 0 0 0 0 0 0 0 0 0 0 0 0.785714 0 0 0 0 0 0 0 0 0 0 0 0 0 0.521429
0.521429 0.521429 0.519048 0.516667 0.514286 0.5125 0.510714 0.508928
0.507143 0.504762 0.502381 0.499999 0.497618 0.495237 0.492857 0.47857
0 0 0 0 0 0 0 0 0 0 0 0 0 0 0 0 0 0 0 0 0 0 0 0 0 0;
#X coords 0 1 100 0 200 140 1 0 0;
#X restore 754 72 graph;
#X obj 120 949 _pitch-prob pitch-probs 2 20;
#X obj 388 854 _pitch-prob pitch-probs 2 20;
#X obj 348 801 t b b;
#X obj 348 960 route 1 0;
#X msg 148 194 1 \, 2 \, 3 \, 4 \, 5 \, 6 \, 7 \, 8, f 11;
#X obj 348 619 sel 5 7 8;
#X text 344 248 <-- there is no way of adjusting this to fit which
kind of line we are resizing???;
#X connect 0 0 19 0;
#X connect 2 0 16 0;
#X connect 3 0 2 0;
#X connect 5 0 4 1;
#X connect 6 0 1 1;
#X connect 7 0 8 0;
#X connect 8 0 1 0;
#X connect 9 0 10 1;
#X connect 11 0 12 1;
#X connect 12 0 0 0;
#X connect 12 1 0 1;
#X connect 13 0 42 0;
#X connect 13 1 12 0;
#X connect 13 2 4 0;
#X connect 14 0 78 0;
#X connect 15 0 21 0;
#X connect 16 0 41 0;
#X connect 16 1 14 0;
#X connect 16 2 4 0;
#X connect 16 3 15 0;
#X connect 17 0 14 1;
#X connect 19 0 7 0;
#X connect 20 0 10 0;
#X connect 21 0 22 0;
#X connect 22 0 23 0;
#X connect 23 0 18 0;
#X connect 24 0 25 0;
#X connect 25 0 22 1;
#X connect 26 0 25 0;
#X connect 27 0 24 0;
#X connect 27 1 24 0;
#X connect 27 2 24 0;
#X connect 27 3 26 0;
#X connect 28 0 29 0;
#X connect 32 0 36 0;
#X connect 32 1 48 0;
#X connect 33 0 3 0;
#X connect 34 0 35 0;
#X connect 35 0 40 0;
#X connect 36 0 37 0;
#X connect 36 1 34 0;
#X connect 37 1 38 0;
#X connect 38 0 33 0;
#X connect 38 1 53 0;
#X connect 39 0 41 1;
#X connect 40 0 39 0;
#X connect 41 0 13 0;
#X connect 42 0 81 0;
#X connect 43 0 44 0;
#X connect 44 0 45 0;
#X connect 45 0 18 0;
#X connect 46 0 32 0;
#X connect 47 0 43 0;
#X connect 48 0 90 0;
#X connect 48 1 49 0;
#X connect 49 0 34 0;
#X connect 50 0 68 0;
#X connect 51 0 70 0;
#X connect 53 0 7 1;
#X connect 53 1 27 0;
#X connect 53 2 54 1;
#X connect 54 0 91 0;
#X connect 55 0 62 0;
#X connect 56 0 55 1;
#X connect 57 0 80 0;
#X connect 58 0 57 1;
#X connect 59 0 57 1;
#X connect 60 0 69 0;
#X connect 61 0 71 0;
#X connect 62 0 63 0;
#X connect 62 1 66 2;
#X connect 63 0 64 0;
#X connect 64 0 65 0;
#X connect 65 0 60 0;
#X connect 65 1 86 0;
#X connect 67 0 47 0;
#X connect 68 0 73 0;
#X connect 69 0 66 0;
#X connect 70 0 50 1;
#X connect 71 0 60 1;
#X connect 72 0 28 0;
#X connect 73 0 75 0;
#X connect 75 0 77 0;
#X connect 75 1 76 0;
#X connect 76 0 77 1;
#X connect 77 0 89 0;
#X connect 78 0 54 0;
#X connect 78 1 18 1;
#X connect 78 2 52 2;
#X connect 79 0 82 1;
#X connect 80 0 55 0;
#X connect 80 1 83 1;
#X connect 81 0 57 0;
#X connect 81 1 14 0;
#X connect 82 0 74 2;
#X connect 83 0 82 0;
#X connect 84 0 74 0;
#X connect 84 1 83 0;
#X connect 86 0 66 1;
#X connect 87 0 73 1;
#X connect 88 0 50 0;
#X connect 88 1 87 0;
#X connect 89 0 52 0;
#X connect 89 1 84 0;
#X connect 90 0 38 0;
#X connect 91 0 59 0;
#X connect 91 0 88 0;
#X connect 91 3 67 0;
#X restore 22 77 pd make-grid;
#X connect 3 0 4 0;
#X connect 4 0 5 0;
#X connect 5 0 6 0;
#X restore 12 38 pd init;
#N canvas 381 216 758 486 edit 0;
#X msg 189 30 traverse pd-score \, next;
#X obj 189 54 pointer;
#X obj 189 78 t p p p;
#X floatatom 25 114 5 0 0 0 - - -, f 5;
#X obj 25 137 element template lone;
#X floatatom 10 201 5 0 0 0 - - -, f 5;
#X obj 25 161 t p p;
#X msg 221 194 bang;
#X obj 221 218 pointer;
#X floatatom 221 266 5 0 0 0 - - -, f 5;
#X floatatom 211 120 5 0 0 0 - - -, f 5;
#X obj 211 143 setsize template lone;
#X obj 269 87 getsize template lone;
#X obj 332 61 pointer;
#X msg 377 22 bang;
#X floatatom 269 111 5 0 0 0 - - -, f 5;
#X msg 298 175 \; pd-score clear;
#X obj 10 224 set lone-e y;
#X obj 221 242 get lone-e y;
#X floatatom 16 13 5 0 0 0 - - -, f 5;
#X msg 30 64 set lone-e w;
#X obj 30 89 set;
#X floatatom 34 38 5 0 0 0 - - -, f 5;
#X obj 356 403 set;
#X floatatom 337 306 5 0 0 0 - - -, f 5;
#X msg 208 348 set lfive-e x;
#X msg 505 202 traverse pd-score \, next;
#X obj 505 226 pointer;
#X obj 505 250 t p p p;
#X obj 381 361 element template lfive;
#X floatatom 402 307 5 0 0 0 - - -, f 5;
#X obj 585 308 getsize template lfive;
#X floatatom 585 333 5 0 0 0 - - -, f 5;
#X obj 512 24 nbx 5 14 -1e+37 1e+37 0 0 page-margin-l page-margin-l-set
page-margin-l 0 -8 0 10 -262144 -1 -1 0 256;
#X obj 512 54 nbx 5 14 -1e+37 1e+37 0 0 page-margin-r page-margin-r-set
page-margin-r 0 -8 0 10 -262144 -1 -1 0 256;
#N canvas 0 23 450 300 presets 0;
#X obj 21 35 r page-margin-l;
#X obj 21 59 text set presets 0 1;
#X obj 21 106 text set presets 0 2;
#X obj 21 82 r page-margin-r;
#X obj 200 22 text define -k presets;
#A set margins 80 20 \;;
#X connect 0 0 1 0;
#X connect 3 0 2 0;
#X restore 528 93 pd presets;
#X connect 0 0 1 0;
#X connect 1 0 2 0;
#X connect 2 0 4 1;
#X connect 2 1 11 1;
#X connect 2 2 13 0;
#X connect 3 0 4 0;
#X connect 4 0 6 0;
#X connect 5 0 17 0;
#X connect 6 0 17 1;
#X connect 6 1 8 0;
#X connect 6 1 21 1;
#X connect 7 0 8 0;
#X connect 8 0 18 0;
#X connect 10 0 11 0;
#X connect 12 0 15 0;
#X connect 13 0 12 0;
#X connect 14 0 13 0;
#X connect 18 0 9 0;
#X connect 20 0 21 0;
#X connect 22 0 21 0;
#X connect 24 0 23 0;
#X connect 25 0 23 0;
#X connect 26 0 27 0;
#X connect 27 0 28 0;
#X connect 28 0 29 1;
#X connect 28 2 31 0;
#X connect 29 0 23 1;
#X connect 30 0 29 0;
#X connect 31 0 32 0;
#X restore 12 62 pd edit;
#X msg 155 49 \; pd-score clear;
#X obj 236 137 tgl 15 0 empty empty empty 17 7 0 10 -262144 -1 -1 0
1;
#N canvas 370 455 450 300 TODO 0;
#X text 25 31 register changes (red 8 \, green 8);
#X text 26 56 thicker lines?;
#X text 26 77 filled/empty rectangle: tremolo diad/ non-tremolo;
#X text 25 101 triangles: preassure and voicig (high pitch);
#X restore 160 18 pd TODO;
#N canvas 0 23 450 300 structures 0;
#N canvas 127 34 1141 408 score 1;
#X coords 0 0 1 1 300 300 0;
#X restore 14 19 pd score;
#N canvas 155 23 1125 751 template 0;
#X text 74 164 INSTRUMENT NAMES;
#X text 327 168 INDIVIDUAL INSTRUMENT LINES;
#X obj 257 458 tgl 15 0 empty empty empty 17 7 0 10 -262144 -1 -1 0
1;
#X obj 283 369 tgl 15 0 empty empty empty 17 7 0 10 -262144 -1 -1 0
1;
#X obj 298 249 tgl 15 0 empty empty empty 17 7 0 10 -262144 -1 -1 0
1;
#X obj 274 174 tgl 15 0 empty empty empty 17 7 0 10 -262144 -1 -1 0
1;
#X obj 625 219 tgl 15 0 empty empty empty 17 7 0 10 -262144 -1 -1 0
1;
#X obj 279 559 tgl 15 0 empty empty empty 17 7 0 10 -262144 -1 -1 0
1;
#X text 14 213 frl;
#X text 14 283 voc;
#X text 14 403 prs;
#X text 14 513 sng;
#X text 14 583 cb;
#X text 9 688 dyn;
#X obj 600 444 tgl 15 0 empty empty empty 17 7 0 10 -262144 -1 -1 0
1;
#X obj 329 409 plot lthree 0 0 0 110 w3;
#X obj 332 594 plot lfive 0 0 0 190 w5;
#X obj 545 621 drawpolygon 0 1 0 190 width 190;
#X obj 545 601 drawpolygon 0 1 0 182 width 182;
#X obj 545 581 drawpolygon 0 1 0 174 width 174;
#X obj 545 641 drawpolygon 0 1 0 198 width 198;
#X obj 545 661 drawpolygon 0 1 0 206 width 206;
#X obj 329 209 plot lone 0 0 0 40 w1;
#X obj 59 209 drawsymbol staffname -40 30 0;
#X obj 59 284 drawsymbol stafftwo -40 70 0;
#X obj 59 409 drawsymbol staffthree -40 100 0;
#X obj 59 514 drawsymbol stafffour -40 130 0;
#X obj 58 593 drawsymbol stafffive -40 180 0;
#X obj 329 514 plot curve lfour 900 2 0 140 w4;
#X obj 590 484 drawpolygon 0 1 0 132 width 132;
#X obj 589 506 drawpolygon 0 1 0 140 width 140;
#X obj 590 529 drawpolygon 0 1 0 148 width 148;
#X obj 614 280 drawpolygon 0 1 0 72 width 72;
#X obj 614 300 drawpolygon 0 1 0 80 width 80;
#X obj 614 320 drawpolygon 0 1 0 88 width 88;
#X text 655 166 STAFFLINES;
#X obj 58 690 drawsymbol staffsix -40 250 0;
#X obj 333 689 plot lsix 400 0 0 260 w6;
#X obj 776 596 drawpolygon 0 1 5 206 5 174;
#X obj 775 617 drawcurve 0 1 0 194 0 202 10 202 10 194 0 194, f 27
;
#X obj 35 87 drawpolygon 23 1 a 0 a 300;
#X obj 329 284 plot ltwo 214 2 0 80 w2;
#X obj 331 620 plot lseven 0 0 0 190 w7;
#X obj 331 643 plot leight 0 0 0 190 w8;
#X obj 21 16 struct template float x float y array lone lone-e symbol
staffname array ltwo ltwo-e symbol stafftwo array lthree lthree-e symbol
staffthree array lfour lfour-e symbol stafffour float w1 float w2 float
w3 float w4 float width symbol stafffive symbol staffsix array lfive
lfive-e float w5 float w6 array lsix lsix-e float w7 float a array
lseven lseven-e array leight leight-e float w8, f 133;
#X connect 2 0 26 0;
#X connect 2 0 28 0;
#X connect 3 0 15 0;
#X connect 3 0 25 0;
#X connect 4 0 24 0;
#X connect 4 0 41 0;
#X connect 5 0 22 0;
#X connect 5 0 23 0;
#X connect 6 0 32 0;
#X connect 6 0 33 0;
#X connect 6 0 34 0;
#X connect 7 0 16 0;
#X connect 7 0 27 0;
#X connect 14 0 29 0;
#X connect 14 0 30 0;
#X connect 14 0 31 0;
#X restore 34 42 pd template;
#N canvas 830 474 450 300 frl. 0;
#X obj 42 44 struct lone-e float w;
#X restore 49 64 pd frl. lone-e;
#N canvas 299 474 450 300 voc. 0;
#X obj 42 18 struct ltwo-e float y;
#X restore 49 86 pd voc. ltwo-e;
#N canvas 756 474 450 300 prs. 0;
#X obj 31 17 struct lthree-e float w;
#X restore 49 110 pd prs. lthree-e;
#N canvas 830 474 450 300 sng. 0;
#X obj 36 17 struct lfour-e float y;
#X restore 49 133 pd sng. lfour-e;
#N canvas 546 474 450 300 cbs. 0;
#X obj 53 31 struct lfive-e float x float y;
#X obj 67 65 filledcurve 900 900 1 -2 -2 -2 2 2 2 2 -2;
#X restore 49 156 pd cbs. lfive-e;
#N canvas 0 23 450 300 dyn. 0;
#X obj 27 30 struct lsix-e float y float w;
#X restore 48 179 pd dyn. lsix-e;
#N canvas 0 23 450 300 lseven-e 0;
#X obj 47 27 struct lseven-e float x float y;
#X obj 70 100 drawpolygon 0 2 -4 -4 -4 4 4 4 4 -4 -4 -4;
#X obj 72 59 tgl 15 0 empty empty empty 17 7 0 10 -262144 -1 -1 0 1
;
#X connect 2 0 1 0;
#X restore 72 205 pd lseven-e;
#N canvas 77 473 450 300 leight-e 0;
#X obj 45 31 struct leight-e float x float y;
#X obj 75 68 filledcurve 90 90 1 -2 -2 -2 2 2 2 2 -2;
#X restore 72 226 pd leight-e;
#X restore 12 14 pd structures;
#N canvas 0 23 383 453 play 0;
#X obj 142 377 r template-p;
#X obj 47 402 set template a;
#X obj 48 84 metro 30000;
#X msg 57 343 stop;
#X obj 47 153 t f f;
#X obj 48 108 random 60000;
#X obj 48 132 + 10000;
#X obj 47 180 pack f 1000;
#X obj 175 113 t f;
#X obj 47 370 line;
#X msg 47 244 0 \, \$2 \$1;
#X msg 177 249 \; pd-score clear \; get-score-p bang \; template-width
\$2 \; make-staff bang \;;
#X obj 47 204 t a a;
#X obj 48 45 t f f;
#X obj 259 98 sel;
#X obj 48 21 r play;
#X connect 0 0 1 1;
#X connect 2 0 5 0;
#X connect 3 0 9 0;
#X connect 4 0 7 0;
#X connect 4 1 8 0;
#X connect 5 0 6 0;
#X connect 6 0 4 0;
#X connect 7 0 12 0;
#X connect 8 0 2 1;
#X connect 9 0 1 0;
#X connect 10 0 9 0;
#X connect 12 0 10 0;
#X connect 12 1 11 0;
#X connect 13 0 2 0;
#X connect 13 1 14 0;
#X connect 14 0 3 0;
#X connect 15 0 13 0;
#X restore 12 85 pd play;
#X msg 236 157 \; play \$1;
#X msg 20 132 \; pd-score clear \; get-score-p bang \; template-width
1000 \; make-grid 3 \; pd-score vis 1 \;;
#N canvas 0 23 438 518 play2 0;
#X obj 142 427 r template-p;
#X obj 47 452 set template a;
#X obj 48 84 metro 30000;
#X msg 57 393 stop;
#X obj 47 153 t f f;
#X obj 47 180 pack f 1000;
#X obj 175 113 t f;
#X obj 47 420 line;
#X msg 47 294 0 \, \$2 \$1;
#X obj 48 45 t f f;
#X obj 259 98 sel;
#X obj 48 21 r play2;
#X obj 47 204 t a a b;
#X obj 220 214 random 6;
#X obj 220 238 + 1;
#X obj 84 240 list;
#X msg 177 299 \; pd-score clear \; get-score-p bang \; template-width
\$2 \; make-grid \$3 \;;
#X obj 48 108 random 20000;
#X obj 48 132 + 8000;
#X floatatom 220 262 5 0 0 0 - - -, f 5;
#X connect 0 0 1 1;
#X connect 2 0 17 0;
#X connect 3 0 7 0;
#X connect 4 0 5 0;
#X connect 4 1 6 0;
#X connect 5 0 12 0;
#X connect 6 0 2 1;
#X connect 7 0 1 0;
#X connect 8 0 7 0;
#X connect 9 0 2 0;
#X connect 9 1 10 0;
#X connect 10 0 3 0;
#X connect 11 0 9 0;
#X connect 12 0 8 0;
#X connect 12 1 15 0;
#X connect 12 2 13 0;
#X connect 13 0 14 0;
#X connect 14 0 15 1;
#X connect 14 0 19 0;
#X connect 15 0 16 0;
#X connect 17 0 18 0;
#X connect 18 0 4 0;
#X restore 311 101 pd play2;
#X obj 320 137 tgl 15 0 empty empty empty 17 7 0 10 -262144 -1 -1 0
1;
#X msg 320 157 \; play2 \$1;
#X connect 3 0 7 0;
#X connect 10 0 11 0;
