#N canvas 825 455 449 299 12;
#N canvas 371 455 451 299 init 1;
#N canvas 0 23 450 300 setsymbols 0;
#X obj 112 32 r template-p;
#X obj 112 56 t b p;
#X msg 100 108 list frl. voc. prs. sng. cb. dyn.;
#X obj 100 188 set -symbol template staffname stafftwo staffthree stafffour
stafffive staffsix, f 29;
#X connect 0 0 1 0;
#X connect 1 0 2 0;
#X connect 1 1 3 6;
#X connect 2 0 3 0;
#X restore 22 105 pd setsymbols;
#N canvas 0 23 450 300 score-p 0;
#X obj 80 137 pointer;
#X msg 80 114 traverse pd-score \, bang;
#X obj 80 82 r get-score-p;
#X obj 80 161 s score-p;
#X connect 0 0 3 0;
#X connect 1 0 0 0;
#X connect 2 0 1 0;
#X restore 21 16 pd score-p;
#N canvas 124 474 450 300 template-p 0;
#X obj 36 157 append template x y;
#X obj 36 59 t b p;
#X text 153 210 <-- getting "template" pointer via [append], f 27
;
#X obj 36 214 s template-p;
#X obj 36 28 r score-p;
#X obj 152 98 r page-margins;
#X obj 36 124 list append 80 20;
#X connect 0 0 3 0;
#X connect 1 0 6 0;
#X connect 1 1 0 2;
#X connect 4 0 1 0;
#X connect 5 0 6 1;
#X connect 6 0 0 0;
#X restore 22 45 pd template-p;
#N canvas 197 23 1083 751 make-staff 0;
#X obj 155 510 /;
#X obj 155 638 set;
#X msg 129 222 set template \$1;
#X msg 129 197 symbol l\$1;
#X obj 129 172 symbol;
#X obj 129 346 + 3;
#X obj 182 428 setsize;
#X obj 235 398 r template-p;
#X obj 176 612 r template-p;
#X obj 146 82 t a a;
#X obj 88 139 list split 1;
#X obj 553 226 list split 1;
#X obj 155 560 pack;
#X msg 155 586 set template w\$2 \, \$1;
#X obj 724 60 r template-p;
#X obj 591 91 set template width;
#X obj 184 457 r template-width;
#X obj 155 482 swap;
#X obj 129 371 t f f f;
#X obj 412 466 element;
#X obj 519 363 list;
#X obj 129 247 t b a a a, f 42;
#X obj 446 437 r template-p;
#X obj 504 615 set;
#X obj 146 28 r make-staff;
#X obj 155 535 fd_ceil;
#X obj 581 53 r template-width;
#X msg 521 387 symbol \$3;
#X obj 560 431 list;
#X msg 561 457 set \$1-e \$2;
#X msg 580 356 w;
#X obj 605 391 symbol;
#X msg 627 356 y;
#X obj 129 322 random 50;
#X obj 412 491 t b p p;
#X obj 329 447 t f f;
#X obj 583 329 sel 1 3 6;
#X msg 146 56 1 one \, 2 two \, 3 three \, 4 four \, 5 five \, 6 six
\, 7 seven;
#X obj 553 251 t f f;
#X connect 0 0 25 0;
#X connect 2 0 21 0;
#X connect 3 0 2 0;
#X connect 4 0 3 0;
#X connect 5 0 18 0;
#X connect 7 0 6 1;
#X connect 8 0 1 1;
#X connect 9 0 10 0;
#X connect 9 1 11 0;
#X connect 10 1 4 0;
#X connect 11 0 38 0;
#X connect 12 0 13 0;
#X connect 13 0 1 0;
#X connect 14 0 15 1;
#X connect 16 0 17 1;
#X connect 17 0 0 0;
#X connect 17 1 0 1;
#X connect 18 1 17 0;
#X connect 18 2 6 0;
#X connect 19 0 34 0;
#X connect 20 0 27 0;
#X connect 21 0 33 0;
#X connect 21 1 6 0;
#X connect 21 2 19 0;
#X connect 21 3 20 0;
#X connect 22 0 19 1;
#X connect 24 0 37 0;
#X connect 25 0 12 0;
#X connect 26 0 15 0;
#X connect 27 0 28 0;
#X connect 28 0 29 0;
#X connect 29 0 23 0;
#X connect 30 0 31 0;
#X connect 31 0 28 1;
#X connect 32 0 31 0;
#X connect 33 0 5 0;
#X connect 34 1 23 1;
#X connect 35 0 12 1;
#X connect 36 0 30 0;
#X connect 36 1 30 0;
#X connect 36 2 30 0;
#X connect 36 3 32 0;
#X connect 37 0 9 0;
#X connect 38 0 35 0;
#X connect 38 1 36 0;
#X restore 22 77 pd make-staff;
#X msg 266 24 bang;
#X obj 267 51 random 1600;
#X obj 267 76 + 200;
#X msg 268 99 \; pd-score clear \; get-score-p bang \; template-width
\$1 \; make-staff bang \;;
#N canvas 771 258 450 300 filled 0;
#X obj 24 59 t b b;
#X obj 24 83 random 1000;
#X msg 117 3 bang;
#X obj 117 27 random 30;
#X obj 117 51 sel;
#X obj 151 83 until;
#X obj 79 120 random 32;
#X obj 79 144 + 174;
#X obj 34 190 append template s t;
#X obj 161 166 r score-p;
#X connect 0 0 1 0;
#X connect 0 1 6 0;
#X connect 1 0 8 0;
#X connect 2 0 3 0;
#X connect 3 0 4 0;
#X connect 4 1 5 0;
#X connect 5 0 0 0;
#X connect 6 0 7 0;
#X connect 7 0 8 1;
#X connect 9 0 8 2;
#X restore 53 147 pd filled squares;
#N canvas 197 23 1083 751 make-staff-old 0;
#X obj 571 716 random 40;
#X obj 571 740 - 20;
#X obj 155 510 /;
#X obj 227 891 t b f;
#X obj 226 917 f;
#X obj 263 918 + 0;
#X msg 292 882 0;
#X obj 221 860 random;
#X obj 155 638 set;
#X msg 129 222 set template \$1;
#X msg 129 197 symbol l\$1;
#X obj 129 172 symbol;
#X obj 129 346 + 3;
#X obj 182 428 setsize;
#X obj 235 398 r template-p;
#X obj 176 612 r template-p;
#X obj 147 101 t a a;
#X obj 88 139 list split 1;
#X obj 553 226 list split 1;
#X obj 155 560 pack;
#X msg 155 586 set template w\$2 \, \$1;
#X obj 724 60 r template-p;
#X obj 606 114 set template width;
#X obj 184 457 r template-width;
#X obj 155 482 swap;
#X obj 129 371 t f f f;
#X obj 418 628 element;
#X obj 621 638 list;
#X obj 129 247 t b a a a, f 42;
#X obj 452 599 r template-p;
#X obj 663 873 set;
#X obj 146 28 r make-staff;
#X obj 143 768 t f f f b, f 15;
#X obj 123 807 until;
#X obj 123 832 f;
#X obj 123 857 + 1;
#X obj 158 832 sel;
#X obj 162 859 t f b;
#X msg 64 834 0;
#X obj 185 794 - 2;
#X obj 155 535 fd_ceil;
#X obj 581 53 r template-width;
#X msg 623 662 symbol \$3;
#X obj 658 761 list;
#X msg 659 787 set \$1-e \$2;
#X msg 773 551 w;
#X obj 798 586 symbol;
#X msg 820 551 y;
#X obj 418 678 f;
#X obj 543 691 b;
#X obj 419 785 random 6;
#X obj 129 322 random 50;
#X obj 643 717 t a a;
#X obj 596 918 random 40;
#X obj 596 942 - 20;
#X obj 386 873 t b b;
#X obj 376 951 random 20;
#X obj 328 783 t f f;
#X obj 436 919 r template-width;
#X obj 418 653 t b p p;
#X obj 418 703 t f f;
#X obj 256 834 / 3;
#X msg 634 449 50;
#X obj 603 474 t f;
#X floatatom 603 499 5 0 0 0 - - -, f 5;
#X floatatom 328 808 5 0 0 0 - - -, f 5;
#X obj 127 664 list prepend;
#X obj 329 447 t f f;
#X obj 297 626 fd_iterate;
#X obj 421 978 set lfive-e x y;
#X obj 155 727 list split 1;
#X obj 297 650 t b f;
#X obj 297 674 random 100;
#X obj 297 698 moses 20;
#X obj 297 722 b;
#X obj 297 746 f;
#X obj 768 771 random 100;
#X obj 768 819 b;
#X obj 832 798 moses 20;
#X obj 832 822 b;
#X obj 880 828 b;
#X obj 737 851 random 10;
#X obj 737 875 - 20;
#X obj 768 795 moses 2;
#X obj 827 861 random 10;
#X obj 827 885 + 5;
#X obj 910 878 + 20;
#X obj 838 937 t f;
#X msg 595 448 200;
#X obj 910 854 random 8;
#X obj 528 821 random 20;
#X obj 528 845 - 10;
#X obj 373 725 sel 1 3 5 6 7 4 2;
#X obj 776 524 sel 1 3 6;
#X obj 420 816 crand 1 16;
#X obj 553 251 t f f f f f;
#X obj 589 377 sel 5;
#X msg 147 75 1 one \, 2 two \, 3 three \, 4 four \, 5 five \, 6 six
\, 7 seven;
#X obj 127 688 route 5;
#X connect 0 0 1 0;
#X connect 1 0 30 0;
#X connect 2 0 40 0;
#X connect 3 0 4 0;
#X connect 3 1 5 0;
#X connect 4 0 5 1;
#X connect 4 0 57 0;
#X connect 5 0 4 1;
#X connect 6 0 5 1;
#X connect 6 0 4 1;
#X connect 7 0 3 0;
#X connect 9 0 28 0;
#X connect 10 0 9 0;
#X connect 11 0 10 0;
#X connect 12 0 25 0;
#X connect 14 0 13 1;
#X connect 15 0 8 1;
#X connect 16 0 17 0;
#X connect 16 1 18 0;
#X connect 17 1 11 0;
#X connect 18 0 95 0;
#X connect 19 0 20 0;
#X connect 20 0 8 0;
#X connect 21 0 22 1;
#X connect 23 0 24 1;
#X connect 24 0 2 0;
#X connect 24 1 2 1;
#X connect 25 0 66 0;
#X connect 25 1 24 0;
#X connect 25 2 13 0;
#X connect 26 0 59 0;
#X connect 27 0 42 0;
#X connect 28 0 51 0;
#X connect 28 1 13 0;
#X connect 28 2 26 0;
#X connect 28 3 27 0;
#X connect 29 0 26 1;
#X connect 32 0 33 0;
#X connect 32 1 39 0;
#X connect 32 2 61 0;
#X connect 32 3 6 0;
#X connect 33 0 34 0;
#X connect 34 0 35 0;
#X connect 35 0 36 0;
#X connect 36 0 38 0;
#X connect 36 1 37 0;
#X connect 37 0 34 1;
#X connect 37 1 7 0;
#X connect 38 0 34 1;
#X connect 39 0 36 1;
#X connect 40 0 19 0;
#X connect 42 0 52 0;
#X connect 43 0 44 0;
#X connect 44 0 30 0;
#X connect 45 0 46 0;
#X connect 46 0 43 1;
#X connect 47 0 46 0;
#X connect 48 0 60 0;
#X connect 49 0 0 0;
#X connect 50 0 30 0;
#X connect 51 0 12 0;
#X connect 52 0 43 0;
#X connect 53 0 54 0;
#X connect 54 0 69 1;
#X connect 55 0 56 0;
#X connect 55 1 76 0;
#X connect 56 0 69 0;
#X connect 57 0 65 0;
#X connect 57 1 26 0;
#X connect 58 0 56 1;
#X connect 59 0 48 0;
#X connect 59 1 30 1;
#X connect 59 2 69 2;
#X connect 60 1 92 0;
#X connect 61 0 7 1;
#X connect 62 0 63 0;
#X connect 63 0 51 1;
#X connect 63 0 64 0;
#X connect 66 0 98 0;
#X connect 67 0 19 1;
#X connect 67 1 66 1;
#X connect 68 0 71 0;
#X connect 70 1 32 0;
#X connect 71 0 72 0;
#X connect 71 1 75 1;
#X connect 72 0 73 0;
#X connect 73 0 74 0;
#X connect 74 0 75 0;
#X connect 75 0 57 0;
#X connect 76 0 83 0;
#X connect 77 0 81 0;
#X connect 78 0 79 0;
#X connect 78 1 80 0;
#X connect 79 0 84 0;
#X connect 80 0 89 0;
#X connect 81 0 82 0;
#X connect 82 0 87 0;
#X connect 83 0 77 0;
#X connect 83 1 78 0;
#X connect 84 0 85 0;
#X connect 85 0 87 0;
#X connect 86 0 87 0;
#X connect 87 0 69 1;
#X connect 88 0 63 0;
#X connect 89 0 86 0;
#X connect 90 0 91 0;
#X connect 91 0 30 0;
#X connect 92 0 50 0;
#X connect 92 1 50 0;
#X connect 92 2 55 0;
#X connect 92 3 94 0;
#X connect 92 5 90 0;
#X connect 92 6 90 0;
#X connect 92 7 49 0;
#X connect 93 0 45 0;
#X connect 93 1 45 0;
#X connect 93 2 45 0;
#X connect 93 3 47 0;
#X connect 94 0 30 0;
#X connect 95 0 67 0;
#X connect 95 1 93 0;
#X connect 95 2 48 1;
#X connect 95 3 96 0;
#X connect 96 0 88 0;
#X connect 96 1 62 0;
#X connect 97 0 16 0;
#X connect 98 0 68 0;
#X connect 98 1 70 0;
#X restore 132 77 pd make-staff-old;
#X connect 4 0 5 0;
#X connect 5 0 6 0;
#X connect 6 0 7 0;
#X restore 12 38 pd init;
#N canvas 522 312 758 462 edit 0;
#X msg 189 30 traverse pd-score \, next;
#X obj 189 54 pointer;
#X obj 189 78 t p p p;
#X floatatom 25 114 5 0 0 0 - - -, f 5;
#X obj 25 137 element template lone;
#X floatatom 10 201 5 0 0 0 - - -, f 5;
#X obj 25 161 t p p;
#X msg 221 194 bang;
#X obj 221 218 pointer;
#X floatatom 221 266 5 0 0 0 - - -, f 5;
#X floatatom 211 120 5 0 0 0 - - -, f 5;
#X obj 211 143 setsize template lone;
#X obj 269 87 getsize template lone;
#X obj 332 61 pointer;
#X msg 377 22 bang;
#X floatatom 269 111 5 0 0 0 - - -, f 5;
#X msg 298 175 \; pd-score clear;
#X obj 10 224 set lone-e y;
#X obj 221 242 get lone-e y;
#X floatatom 16 13 5 0 0 0 - - -, f 5;
#X msg 30 64 set lone-e w;
#X obj 30 89 set;
#X floatatom 34 38 5 0 0 0 - - -, f 5;
#X obj 356 403 set;
#X floatatom 337 306 5 0 0 0 - - -, f 5;
#X msg 208 348 set lfive-e x;
#X msg 505 202 traverse pd-score \, next;
#X obj 505 226 pointer;
#X obj 505 250 t p p p;
#X obj 381 361 element template lfive;
#X floatatom 402 307 5 0 0 0 - - -, f 5;
#X obj 585 308 getsize template lfive;
#X floatatom 585 333 5 0 0 0 - - -, f 5;
#X obj 512 24 nbx 5 14 -1e+37 1e+37 0 0 page-margin-l page-margin-l-set
page-margin-l 0 -8 0 10 -262144 -1 -1 0 256;
#X obj 512 54 nbx 5 14 -1e+37 1e+37 0 0 page-margin-r page-margin-r-set
page-margin-r 0 -8 0 10 -262144 -1 -1 0 256;
#N canvas 0 22 450 300 presets 0;
#X obj 21 35 r page-margin-l;
#X obj 21 59 text set presets 0 1;
#X obj 21 106 text set presets 0 2;
#X obj 21 82 r page-margin-r;
#X obj 200 22 text define -k presets;
#A set margins 80 20 \;;
#X connect 0 0 1 0;
#X connect 3 0 2 0;
#X restore 528 93 pd presets;
#X connect 0 0 1 0;
#X connect 1 0 2 0;
#X connect 2 0 4 1;
#X connect 2 1 11 1;
#X connect 2 2 13 0;
#X connect 3 0 4 0;
#X connect 4 0 6 0;
#X connect 5 0 17 0;
#X connect 6 0 17 1;
#X connect 6 1 8 0;
#X connect 6 1 21 1;
#X connect 7 0 8 0;
#X connect 8 0 18 0;
#X connect 10 0 11 0;
#X connect 12 0 15 0;
#X connect 13 0 12 0;
#X connect 14 0 13 0;
#X connect 18 0 9 0;
#X connect 20 0 21 0;
#X connect 22 0 21 0;
#X connect 24 0 23 0;
#X connect 25 0 23 0;
#X connect 26 0 27 0;
#X connect 27 0 28 0;
#X connect 28 0 29 1;
#X connect 28 2 31 0;
#X connect 29 0 23 1;
#X connect 30 0 29 0;
#X connect 31 0 32 0;
#X restore 12 62 pd edit;
#X msg 155 49 \; pd-score clear;
#X obj 236 137 tgl 15 0 empty empty empty 17 7 0 10 -262144 -1 -1 0
1;
#N canvas 370 455 450 300 TODO 0;
#X text 25 31 register changes (red 8 \, green 8);
#X text 26 56 thicker lines?;
#X text 26 77 filled/empty rectangle: tremolo diad/ non-tremolo;
#X text 25 101 triangles: preassure and voicig (high pitch);
#X restore 160 18 pd TODO;
#N canvas 0 22 450 300 structures 0;
#N canvas 11 23 1141 408 score 1;
#X coords 0 0 1 1 300 300 0;
#X restore 14 19 pd score;
#N canvas 155 23 1125 751 template 0;
#X text 74 164 INSTRUMENT NAMES;
#X text 327 168 INDIVIDUAL INSTRUMENT LINES;
#X obj 257 458 tgl 15 0 empty empty empty 17 7 0 10 -262144 -1 -1 0
1;
#X obj 283 369 tgl 15 0 empty empty empty 17 7 0 10 -262144 -1 -1 0
1;
#X obj 298 249 tgl 15 0 empty empty empty 17 7 0 10 -262144 -1 -1 0
1;
#X obj 274 174 tgl 15 0 empty empty empty 17 7 0 10 -262144 -1 -1 0
1;
#X obj 625 219 tgl 15 0 empty empty empty 17 7 0 10 -262144 -1 -1 0
1;
#X obj 279 559 tgl 15 0 empty empty empty 17 7 0 10 -262144 -1 -1 0
1;
#X text 14 213 frl;
#X text 14 283 voc;
#X text 14 403 prs;
#X text 14 513 sng;
#X text 14 583 cb;
#X text 9 688 dyn;
#X obj 600 444 tgl 15 0 empty empty empty 17 7 0 10 -262144 -1 -1 0
1;
#X obj 329 409 plot lthree 0 0 0 110 w3;
#X obj 332 594 plot lfive 0 0 0 190 w5;
#X obj 545 621 drawpolygon 0 1 0 190 width 190;
#X obj 545 601 drawpolygon 0 1 0 182 width 182;
#X obj 545 581 drawpolygon 0 1 0 174 width 174;
#X obj 545 641 drawpolygon 0 1 0 198 width 198;
#X obj 545 661 drawpolygon 0 1 0 206 width 206;
#X obj 329 209 plot lone 0 0 0 40 w1;
#X obj 59 209 drawsymbol staffname -40 30 0;
#X obj 59 284 drawsymbol stafftwo -40 70 0;
#X obj 59 409 drawsymbol staffthree -40 100 0;
#X obj 59 514 drawsymbol stafffour -40 130 0;
#X obj 58 593 drawsymbol stafffive -40 180 0;
#X obj 329 284 plot ltwo 900 4 0 80 w2;
#X obj 329 514 plot curve lfour 900 2 0 140 w4;
#X obj 590 484 drawpolygon 0 1 0 132 width 132;
#X obj 589 506 drawpolygon 0 1 0 140 width 140;
#X obj 590 529 drawpolygon 0 1 0 148 width 148;
#X obj 614 280 drawpolygon 0 1 0 72 width 72;
#X obj 614 300 drawpolygon 0 1 0 80 width 80;
#X obj 614 320 drawpolygon 0 1 0 88 width 88;
#X text 655 166 STAFFLINES;
#X obj 58 690 drawsymbol staffsix -40 250 0;
#X obj 35 87 drawpolygon 23 10 0 0 a 0;
#X obj 333 689 plot lsix 400 0 0 260 w6;
#X obj 21 16 struct template float x float y array lone lone-e symbol
staffname array ltwo ltwo-e symbol stafftwo array lthree lthree-e symbol
staffthree array lfour lfour-e symbol stafffour float w1 float w2 float
w3 float w4 float width symbol stafffive symbol staffsix array lfive
lfive-e float w5 float w6 array lsix lsix-e float w7 float a array
lseven lseven-e, f 133;
#X obj 331 620 plot lseven 0 0 0 190 w7;
#X obj 776 596 drawpolygon 0 1 5 206 5 174;
#X obj 775 617 drawcurve 0 1 0 194 0 202 10 202 10 194 0 194, f 27
;
#X connect 2 0 26 0;
#X connect 2 0 29 0;
#X connect 3 0 15 0;
#X connect 3 0 25 0;
#X connect 4 0 24 0;
#X connect 4 0 28 0;
#X connect 5 0 22 0;
#X connect 5 0 23 0;
#X connect 6 0 33 0;
#X connect 6 0 34 0;
#X connect 6 0 35 0;
#X connect 7 0 16 0;
#X connect 7 0 27 0;
#X connect 14 0 30 0;
#X connect 14 0 31 0;
#X connect 14 0 32 0;
#X restore 34 42 pd template;
#N canvas 830 474 450 300 frl. 0;
#X obj 42 44 struct lone-e float w;
#X restore 49 64 pd frl. lone-e;
#N canvas 299 474 450 300 voc. 0;
#X obj 42 18 struct ltwo-e float y;
#X restore 49 86 pd voc. ltwo-e;
#N canvas 756 474 450 300 prs. 0;
#X obj 31 17 struct lthree-e float w;
#X restore 49 110 pd prs. lthree-e;
#N canvas 830 474 450 300 sng. 0;
#X obj 36 17 struct lfour-e float y;
#X restore 49 133 pd sng. lfour-e;
#N canvas 546 474 450 300 cbs. 0;
#X obj 67 65 filledcurve 0 0 1 -2 -2 -2 2 2 2 2 -2;
#X obj 53 31 struct lfive-e float x float y;
#X restore 49 156 pd cbs. lfive-e;
#N canvas 0 23 450 300 dyn. 0;
#X obj 27 30 struct lsix-e float y float w;
#X restore 48 179 pd dyn. lsix-e;
#N canvas 0 23 450 300 lseven-e 0;
#X obj 47 27 struct lseven-e float x float y;
#X obj 70 78 drawpolygon 0 2 -4 -4 -4 4 4 4 4 -4 -4 -4;
#X restore 72 205 pd lseven-e;
#X restore 12 14 pd structures;
#N canvas 0 23 383 453 play 0;
#X obj 142 377 r template-p;
#X obj 47 402 set template a;
#X obj 48 84 metro 30000;
#X msg 57 343 stop;
#X obj 47 153 t f f;
#X obj 48 108 random 60000;
#X obj 48 132 + 10000;
#X obj 47 180 pack f 1000;
#X obj 175 113 t f;
#X obj 47 370 line;
#X msg 47 244 0 \, \$2 \$1;
#X msg 177 249 \; pd-score clear \; get-score-p bang \; template-width
\$2 \; make-staff bang \;;
#X obj 47 204 t a a;
#X obj 48 45 t f f;
#X obj 259 98 sel;
#X obj 48 21 r play;
#X connect 0 0 1 1;
#X connect 2 0 5 0;
#X connect 3 0 9 0;
#X connect 4 0 7 0;
#X connect 4 1 8 0;
#X connect 5 0 6 0;
#X connect 6 0 4 0;
#X connect 7 0 12 0;
#X connect 8 0 2 1;
#X connect 9 0 1 0;
#X connect 10 0 9 0;
#X connect 12 0 10 0;
#X connect 12 1 11 0;
#X connect 13 0 2 0;
#X connect 13 1 14 0;
#X connect 14 0 3 0;
#X connect 15 0 13 0;
#X restore 12 85 pd play;
#X msg 236 157 \; play \$1;
#X msg 21 132 \; pd-score clear \; get-score-p bang \; template-width
1000 \; make-staff bang \; pd-score vis 1 \;;
#X connect 3 0 7 0;
