#N struct template float x float y array lone lone-e symbol staffname
array ltwo ltwo-e symbol stafftwo array lthree lthree-e symbol staffthree
array lfour lfour-e symbol stafffour float w1 float w2 float w3 float
w4;
#N struct lone-e float y;
#N struct ltwo-e float y;
#N struct lthree-e float y;
#N struct lfour-e float y;
#N canvas 647 47 450 300 12;
#N canvas 19 25 559 375 score 1;
#X scalar template 50 80 first second third fourth 20 29 31 19 \; 0
\; 0 \; 0 \; 0 \; 0 \; 7 \; 0 \; 12 \; 0 \; 0 \; 0 \; 14 \; 0 \; 0
\; 0 \; -12 \; 0 \; 0 \; 0 \; 0 \; -3 \; 0 \; 0 \; \; 0 \; 0 \; 0 \;
0 \; -13 \; 0 \; 0 \; -14 \; 0 \; 0 \; 0 \; -10 \; 0 \; 19 \; 6 \;
0 \; \; 0 \; 0 \; 9 \; 0 \; 11 \; 11 \; 0 \; 6 \; 0 \; 13 \; 0 \; 7
\; 0 \; 18 \; 0 \; \; 0 \; 0 \; 0 \; 0 \; 2 \; 0 \; 0 \; 0 \; 0 \;
6 \; 0 \; 0 \; 0 \; 0 \; -13 \; 0 \; 0 \; -20 \; 7 \; 19 \; 0 \; 0
\; 0 \; 0 \; \;;
#X coords 0 0 1 1 300 300 0;
#X restore 14 9 pd score;
#N canvas 626 179 461 461 template 0;
#X obj 230 99 drawpolygon 0 1 0 -16 450 -16;
#X obj 230 139 drawpolygon 0 1 0 0 450 0;
#X obj 230 179 drawpolygon 0 1 0 16 450 16;
#X obj 230 119 drawpolygon 0 1 0 -8 450 -8;
#X obj 230 159 drawpolygon 0 1 0 8 450 8;
#X obj 22 90 drawsymbol staffname 0 -50 0;
#X obj 26 206 drawsymbol stafftwo 0 30 0;
#X obj 32 289 drawsymbol staffthree 0 110 0;
#X obj 32 360 drawsymbol stafffour 0 190 0;
#X obj 21 16 struct template float x float y array lone lone-e symbol
staffname array ltwo ltwo-e symbol stafftwo array lthree lthree-e symbol
staffthree array lfour lfour-e symbol stafffour float w1 float w2 float
w3 float w4;
#X obj 26 230 plot ltwo 0 2 0 60 w2;
#X obj 22 317 plot lthree 0 2 0 140 w3;
#X obj 22 388 plot lfour 0 2 0 220 w4;
#X obj 20 114 plot lone 0 2 0 0 w1;
#X restore 34 32 pd template;
#N canvas 724 274 467 281 init 0;
#N canvas 0 23 450 300 setsymbols 0;
#X obj 100 188 set -symbol template staffname stafftwo staffthree stafffour
, f 29;
#X msg 100 108 list first second third fourth;
#X obj 30 56 t p b p;
#X obj 30 32 inlet;
#X obj 30 80 outlet;
#X connect 1 0 0 0;
#X connect 2 0 4 0;
#X connect 2 1 1 0;
#X connect 2 2 0 4;
#X connect 3 0 2 0;
#X restore 21 64 pd setsymbols;
#N canvas 0 23 450 300 set 0;
#X obj 26 39 t b p;
#X obj 26 87 + 3;
#X obj 26 112 setsize template lone;
#X obj 206 39 t b p;
#X obj 206 87 + 3;
#X obj 26 169 t b p;
#X obj 26 217 + 3;
#X obj 216 169 t b p;
#X obj 216 217 + 3;
#X obj 206 112 setsize template ltwo;
#X obj 26 242 setsize template lthree;
#X obj 216 242 setsize template lfour;
#X obj 206 63 random 50;
#X obj 26 63 random 50;
#X obj 26 193 random 50;
#X obj 216 193 random 50;
#X floatatom 65 91 5 0 0 0 - - -, f 5;
#X obj 331 11 inlet;
#X obj 331 35 t p p p p p;
#X obj 331 59 outlet;
#X connect 0 0 13 0;
#X connect 0 1 2 1;
#X connect 1 0 2 0;
#X connect 1 0 16 0;
#X connect 3 0 12 0;
#X connect 3 1 9 1;
#X connect 4 0 9 0;
#X connect 5 0 14 0;
#X connect 5 1 10 1;
#X connect 6 0 10 0;
#X connect 7 0 15 0;
#X connect 7 1 11 1;
#X connect 8 0 11 0;
#X connect 12 0 4 0;
#X connect 13 0 1 0;
#X connect 14 0 6 0;
#X connect 15 0 8 0;
#X connect 17 0 18 0;
#X connect 18 0 19 0;
#X connect 18 1 0 0;
#X connect 18 2 3 0;
#X connect 18 3 5 0;
#X connect 18 4 7 0;
#X restore 21 87 pd set array sizes;
#N canvas 0 23 450 300 lone-e 0;
#X obj 163 242 element template lone;
#X obj 51 255 set lone-e y;
#X obj 72 95 until;
#X obj 72 116 t b b;
#X obj 147 161 fd_sum;
#X obj 147 185 moses 50;
#X obj 224 177 t b b;
#X obj 65 178 random 40;
#X obj 65 202 - 20;
#X obj 147 209 sel;
#X obj 147 137 random 20;
#X obj 199 65 getsize template lone;
#X obj 199 98 t f f f;
#X obj 320 129 /;
#X obj 320 201 set template w1;
#X obj 203 24 t p p p;
#X obj 96 49 sel;
#X obj 320 153 int;
#X obj 320 177 + 1;
#X floatatom 359 180 5 0 0 0 - - -, f 5;
#X floatatom 258 128 5 0 0 0 - - -, f 5;
#X obj 11 19 inlet;
#X obj 11 43 t p p;
#X obj 11 67 outlet;
#X obj 225 133 / 3;
#X msg 320 105 450 \$1;
#X connect 0 0 1 1;
#X connect 2 0 3 0;
#X connect 3 0 7 0;
#X connect 3 1 10 0;
#X connect 4 0 5 0;
#X connect 5 0 9 0;
#X connect 5 1 6 0;
#X connect 6 0 4 1;
#X connect 6 1 2 1;
#X connect 7 0 8 0;
#X connect 8 0 1 0;
#X connect 9 1 0 0;
#X connect 10 0 4 0;
#X connect 11 0 12 0;
#X connect 12 0 16 0;
#X connect 12 1 5 1;
#X connect 12 2 25 0;
#X connect 12 2 20 0;
#X connect 12 2 24 0;
#X connect 13 0 17 0;
#X connect 15 0 11 0;
#X connect 15 1 0 1;
#X connect 15 2 14 1;
#X connect 16 1 2 0;
#X connect 17 0 18 0;
#X connect 18 0 14 0;
#X connect 18 0 19 0;
#X connect 21 0 22 0;
#X connect 22 0 23 0;
#X connect 22 1 15 0;
#X connect 24 0 10 1;
#X connect 25 0 13 0;
#X restore 21 110 pd lone-e elements;
#X msg 262 12 \; pd-score clear \; get-score-p bang \;;
#N canvas 0 23 450 300 score-p 0;
#X obj 80 137 pointer;
#X msg 80 114 traverse pd-score \, bang;
#X obj 80 82 r get-score-p;
#X obj 80 161 outlet;
#X connect 0 0 3 0;
#X connect 1 0 0 0;
#X connect 2 0 1 0;
#X restore 21 16 pd score-p;
#N canvas 0 22 450 300 template-p 0;
#X obj 36 157 append template x y;
#X msg 16 111 50 80;
#X obj 36 59 t b p;
#X obj 36 212 outlet;
#X text 88 213 <-- getting "template" pointer via [append];
#X obj 36 28 inlet;
#X connect 0 0 3 0;
#X connect 1 0 0 0;
#X connect 2 0 1 0;
#X connect 2 1 0 2;
#X connect 5 0 2 0;
#X restore 21 39 pd template-p;
#N canvas 0 23 450 300 ltwo-e 0;
#X obj 72 95 until;
#X obj 72 116 t b b;
#X obj 147 161 fd_sum;
#X obj 147 185 moses 50;
#X obj 224 177 t b b;
#X obj 65 178 random 40;
#X obj 65 202 - 20;
#X obj 147 209 sel;
#X obj 147 137 random 20;
#X obj 199 98 t f f f;
#X obj 320 129 /;
#X obj 203 24 t p p p;
#X obj 96 49 sel;
#X obj 320 153 int;
#X obj 320 177 + 1;
#X floatatom 359 180 5 0 0 0 - - -, f 5;
#X floatatom 258 128 5 0 0 0 - - -, f 5;
#X obj 11 19 inlet;
#X obj 11 43 t p p;
#X obj 11 67 outlet;
#X obj 225 133 / 3;
#X obj 199 65 getsize template ltwo;
#X obj 320 201 set template w2;
#X obj 163 242 element template ltwo;
#X obj 51 255 set ltwo-e y;
#X msg 320 105 450 \$1;
#X connect 0 0 1 0;
#X connect 1 0 5 0;
#X connect 1 1 8 0;
#X connect 2 0 3 0;
#X connect 3 0 7 0;
#X connect 3 1 4 0;
#X connect 4 0 2 1;
#X connect 4 1 0 1;
#X connect 5 0 6 0;
#X connect 6 0 24 0;
#X connect 7 1 23 0;
#X connect 8 0 2 0;
#X connect 9 0 12 0;
#X connect 9 1 3 1;
#X connect 9 2 25 0;
#X connect 9 2 16 0;
#X connect 9 2 20 0;
#X connect 10 0 13 0;
#X connect 11 0 21 0;
#X connect 11 1 23 1;
#X connect 11 2 22 1;
#X connect 12 1 0 0;
#X connect 13 0 14 0;
#X connect 14 0 15 0;
#X connect 14 0 22 0;
#X connect 17 0 18 0;
#X connect 18 0 19 0;
#X connect 18 1 11 0;
#X connect 20 0 8 1;
#X connect 21 0 9 0;
#X connect 23 0 24 1;
#X connect 25 0 10 0;
#X restore 21 140 pd ltwo-e elements;
#N canvas 0 23 450 300 lthree-e 0;
#X obj 72 95 until;
#X obj 72 116 t b b;
#X obj 147 161 fd_sum;
#X obj 147 185 moses 50;
#X obj 224 177 t b b;
#X obj 65 178 random 40;
#X obj 65 202 - 20;
#X obj 147 209 sel;
#X obj 147 137 random 20;
#X obj 199 98 t f f f;
#X obj 320 129 /;
#X obj 203 24 t p p p;
#X obj 96 49 sel;
#X obj 320 153 int;
#X obj 320 177 + 1;
#X floatatom 359 180 5 0 0 0 - - -, f 5;
#X floatatom 258 128 5 0 0 0 - - -, f 5;
#X obj 11 19 inlet;
#X obj 11 43 t p p;
#X obj 11 67 outlet;
#X obj 225 133 / 3;
#X obj 199 65 getsize template lthree;
#X obj 320 201 set template w3;
#X obj 163 242 element template lthree;
#X obj 51 255 set lthree-e y;
#X msg 320 105 450 \$1;
#X connect 0 0 1 0;
#X connect 1 0 5 0;
#X connect 1 1 8 0;
#X connect 2 0 3 0;
#X connect 3 0 7 0;
#X connect 3 1 4 0;
#X connect 4 0 2 1;
#X connect 4 1 0 1;
#X connect 5 0 6 0;
#X connect 6 0 24 0;
#X connect 7 1 23 0;
#X connect 8 0 2 0;
#X connect 9 0 12 0;
#X connect 9 1 3 1;
#X connect 9 2 25 0;
#X connect 9 2 16 0;
#X connect 9 2 20 0;
#X connect 10 0 13 0;
#X connect 11 0 21 0;
#X connect 11 1 23 1;
#X connect 11 2 22 1;
#X connect 12 1 0 0;
#X connect 13 0 14 0;
#X connect 14 0 15 0;
#X connect 14 0 22 0;
#X connect 17 0 18 0;
#X connect 18 0 19 0;
#X connect 18 1 11 0;
#X connect 20 0 8 1;
#X connect 21 0 9 0;
#X connect 23 0 24 1;
#X connect 25 0 10 0;
#X restore 21 170 pd lthree-e elements;
#N canvas 0 23 450 300 lfour-e 0;
#X obj 72 95 until;
#X obj 72 116 t b b;
#X obj 147 161 fd_sum;
#X obj 147 185 moses 50;
#X obj 224 177 t b b;
#X obj 65 178 random 40;
#X obj 65 202 - 20;
#X obj 147 209 sel;
#X obj 147 137 random 20;
#X obj 199 98 t f f f;
#X obj 320 129 /;
#X obj 203 24 t p p p;
#X obj 96 49 sel;
#X obj 320 153 int;
#X obj 320 177 + 1;
#X floatatom 359 180 5 0 0 0 - - -, f 5;
#X floatatom 258 128 5 0 0 0 - - -, f 5;
#X obj 11 19 inlet;
#X obj 11 43 t p p;
#X obj 11 67 outlet;
#X obj 225 133 / 3;
#X obj 199 65 getsize template lfour;
#X obj 320 201 set template w4;
#X obj 163 242 element template lfour;
#X obj 51 255 set lfour-e y;
#X msg 320 105 450 \$1;
#X connect 0 0 1 0;
#X connect 1 0 5 0;
#X connect 1 1 8 0;
#X connect 2 0 3 0;
#X connect 3 0 7 0;
#X connect 3 1 4 0;
#X connect 4 0 2 1;
#X connect 4 1 0 1;
#X connect 5 0 6 0;
#X connect 6 0 24 0;
#X connect 7 1 23 0;
#X connect 8 0 2 0;
#X connect 9 0 12 0;
#X connect 9 1 3 1;
#X connect 9 2 16 0;
#X connect 9 2 20 0;
#X connect 9 2 25 0;
#X connect 10 0 13 0;
#X connect 11 0 21 0;
#X connect 11 1 23 1;
#X connect 11 2 22 1;
#X connect 12 1 0 0;
#X connect 13 0 14 0;
#X connect 14 0 15 0;
#X connect 14 0 22 0;
#X connect 17 0 18 0;
#X connect 18 0 19 0;
#X connect 18 1 11 0;
#X connect 20 0 8 1;
#X connect 21 0 9 0;
#X connect 23 0 24 1;
#X connect 25 0 10 0;
#X restore 21 200 pd lfour-e elements;
#X connect 0 0 1 0;
#X connect 1 0 2 0;
#X connect 2 0 6 0;
#X connect 4 0 5 0;
#X connect 5 0 0 0;
#X connect 6 0 7 0;
#X connect 7 0 8 0;
#X restore 243 6 pd init;
#N canvas 661 236 450 300 lone-e 0;
#X obj 42 44 struct lone-e float y;
#X obj 51 93 drawpolygon 0 2 0 0 0 2 2 2 2 0 0 0;
#X restore 49 54 pd lone-e;
#N canvas 627 358 450 300 ltwo-e 0;
#X obj 42 18 struct ltwo-e float y;
#X restore 49 76 pd ltwo-e;
#N canvas 0 23 450 300 edit 0;
#X msg 189 30 traverse pd-score \, next;
#X obj 189 54 pointer;
#X obj 189 78 t p p p;
#X floatatom 25 114 5 0 0 0 - - -, f 5;
#X obj 25 137 element template lone;
#X floatatom 10 201 5 0 0 0 - - -, f 5;
#X obj 25 161 t p p;
#X msg 221 194 bang;
#X obj 221 218 pointer;
#X floatatom 221 266 5 0 0 0 - - -, f 5;
#X floatatom 211 120 5 0 0 0 - - -, f 5;
#X obj 211 143 setsize template lone;
#X obj 269 87 getsize template lone;
#X obj 332 61 pointer;
#X msg 377 22 bang;
#X floatatom 269 111 5 0 0 0 - - -, f 5;
#X msg 298 175 \; pd-score clear;
#X obj 10 224 set lone-e y;
#X obj 221 242 get lone-e y;
#X connect 0 0 1 0;
#X connect 1 0 2 0;
#X connect 2 0 4 1;
#X connect 2 1 11 1;
#X connect 2 2 13 0;
#X connect 3 0 4 0;
#X connect 4 0 6 0;
#X connect 5 0 17 0;
#X connect 6 0 17 1;
#X connect 6 1 8 0;
#X connect 7 0 8 0;
#X connect 8 0 18 0;
#X connect 10 0 11 0;
#X connect 12 0 15 0;
#X connect 13 0 12 0;
#X connect 14 0 13 0;
#X connect 18 0 9 0;
#X restore 308 7 pd edit;
#N canvas 648 297 450 300 lthree-e 0;
#X obj 30 17 struct lthree-e float y;
#X restore 49 100 pd lthree-e;
#N canvas 0 23 450 300 lfour-e 0;
#X obj 39 51 struct lfour-e float y;
#X restore 49 123 pd lfour-e;
