#N canvas 830 26 450 300 12;
#X obj 57 21 inlet;
#X obj 305 68 r \$2-p;
#X obj 217 155 element template \$3\$1;
#X obj 57 45 t a a;
#X obj 161 100 list split 1;
#X obj 27 102 list split 1;
#X obj 217 260 set \$3\$1-e x y w;
#X obj 67 159 list prepend \$1;
#X obj 267 197 t p p;
#X obj 67 192 route 4;
#X obj 156 206 list split 1;
#X obj 67 260 set \$3\$1-e x y c v;
#X text 223 239 5-line staff == "4";
#X connect 0 0 3 0;
#X connect 1 0 2 1;
#X connect 2 0 8 0;
#X connect 3 0 5 0;
#X connect 3 1 4 0;
#X connect 4 0 2 0;
#X connect 5 1 7 0;
#X connect 7 0 9 0;
#X connect 8 0 11 4;
#X connect 8 1 6 3;
#X connect 9 0 11 0;
#X connect 9 1 10 0;
#X connect 10 1 6 0;
