#N canvas 609 70 450 300 10;
#X obj 27 8 r seed;
#X obj 126 115 + \$1;
#X obj 126 136 + \$2;
#X obj 126 157 + \$3;
#X obj 126 178 list prepend seed;
#X obj 126 199 list trim;
#X obj 126 220 random \$1;
#X obj 126 241 outlet;
#X obj 185 100 inlet;
#X obj 325 104 inlet;
#X obj 235 233 print fd_rand-\$2;
#X connect 0 0 1 0;
#X connect 1 0 2 0;
#X connect 2 0 3 0;
#X connect 3 0 4 0;
#X connect 4 0 5 0;
#X connect 5 0 6 0;
#X connect 5 0 10 0;
#X connect 6 0 7 0;
#X connect 8 0 6 0;
#X connect 9 0 6 1;
