#N canvas 73 472 516 432 10;
#X obj 55 34 inlet;
#X obj 301 28 r score-pointer;
#X obj 301 50 t b p;
#X obj 301 99 text get init-setup;
#X obj 301 72 f \$1;
#X obj 301 130 append l-\$1 x y w s\$1v l\$1v l\$1c l\$1w y\$1 w\$1
, f 20;
#X obj 55 212 set l-\$1 x y w s\$1v l\$1v l\$1c l\$1w y\$1 w\$1;
#X connect 0 0 6 0;
#X connect 1 0 2 0;
#X connect 2 0 4 0;
#X connect 2 1 5 9;
#X connect 3 0 5 0;
#X connect 4 0 3 0;
#X connect 5 0 6 9;
