#N canvas 0 22 450 300 12;
#X obj 37 135 getsize \$2 \$3\$1;
#X obj 37 37 inlet;
#X obj 37 156 outlet;
#X obj 97 67 r \$2-p;
#X obj 37 89 pointer;
#X connect 0 0 2 0;
#X connect 1 0 4 0;
#X connect 3 0 4 1;
#X connect 4 0 0 0;
