#N struct template float x float y array word word-e;
#N struct word-e float x float y float w symbol what;
#N canvas 545 55 450 300 10;
#N canvas 0 23 450 300 score 1;
#X scalar template 50 50 \; 193 122 0 this \; 188 44 7 that \; 132
0 0 frog \; 46 71 0 punta \; -56 0 3 symbol \; \;;
#X restore 25 20 pd score;
#N canvas 0 23 450 300 structure 0;
#X obj 26 22 struct template float x float y array word word-e;
#N canvas 57 340 450 300 word-e 1;
#X obj 45 28 struct word-e float x float y float w symbol what;
#X obj 80 79 drawsymbol what 0 -10;
#X restore 26 43 pd word-e;
#X obj 26 66 plot word 0 0 40 40;
#X restore 22 42 pd structure;
#X msg 26 78 traverse pd-score \, bang;
#X obj 26 99 pointer;
#X obj 26 120 t b p;
#X msg 26 141 50 50;
#X obj 26 162 append template x y;
#X obj 26 183 t b b p;
#X obj 111 225 setsize template word;
#X msg 75 207 5;
#X obj 282 89 element template word;
#X obj 248 178 set -symbol word-e what;
#X floatatom 264 32 5 0 0 0 - - -, f 5;
#X msg 208 102 symbol this;
#X obj 271 219 set word-e x;
#X floatatom 261 198 5 0 0 0 - - -, f 5;
#X floatatom 293 243 5 0 0 0 - - -, f 5;
#X msg 108 32 \; pd-score clear;
#X obj 321 257 set word-e y;
#X msg 265 145 symbol that;
#X msg 155 119 symbol frog;
#X msg 201 77 symbol punta;
#X connect 2 0 3 0;
#X connect 3 0 4 0;
#X connect 4 0 5 0;
#X connect 4 1 6 2;
#X connect 5 0 6 0;
#X connect 6 0 7 0;
#X connect 7 1 9 0;
#X connect 7 2 8 1;
#X connect 7 2 10 1;
#X connect 9 0 8 0;
#X connect 10 0 11 1;
#X connect 10 0 14 1;
#X connect 10 0 18 1;
#X connect 12 0 10 0;
#X connect 13 0 11 0;
#X connect 15 0 14 0;
#X connect 16 0 18 0;
#X connect 19 0 11 0;
#X connect 20 0 11 0;
#X connect 21 0 11 0;
