#N canvas 23 618 493 118 10;
#X declare -path ./lib;
#X obj 13 46 tgl 15 0 empty empty empty 17 7 0 10 -262144 -1 -1 0 1
;
#X msg 13 67 \; score autoplay \$1;
#N canvas 533 191 335 452 netsend 0;
#X obj 32 26 r connect;
#X obj 63 200 == 1;
#X obj 99 199 == 1;
#X obj 30 200 == 1;
#X obj 30 221 ==;
#X obj 30 242 ==;
#X obj 30 263 * 3;
#X obj 30 284 + 3;
#X obj 67 262 loadbang;
#X msg 67 283 0;
#X msg 30 329 \$1 \; connect-set color \$1 22 22;
#X obj 30 361 sel 1;
#X msg 30 382 \; connected-set bang;
#X msg 32 47 all bang;
#X obj 34 156 route 2 1 0;
#X obj 127 21 r score;
#X obj 127 42 list prepend all;
#X obj 127 63 list trim;
#X obj 34 128 clone _netsend 3;
#X obj 50 74 r disconnect;
#X msg 50 95 all bang;
#X connect 0 0 13 0;
#X connect 1 0 4 1;
#X connect 2 0 5 1;
#X connect 3 0 4 0;
#X connect 4 0 5 0;
#X connect 5 0 6 0;
#X connect 6 0 7 0;
#X connect 7 0 10 0;
#X connect 8 0 9 0;
#X connect 9 0 6 0;
#X connect 10 0 11 0;
#X connect 11 0 12 0;
#X connect 13 0 18 0;
#X connect 14 0 3 0;
#X connect 14 1 1 0;
#X connect 14 2 2 0;
#X connect 15 0 16 0;
#X connect 16 0 17 0;
#X connect 17 0 18 2;
#X connect 18 0 14 0;
#X connect 19 0 20 0;
#X connect 20 0 18 1;
#X restore 150 29 pd netsend;
#X obj 9 8 bng 15 250 50 0 connect connect-set connect 17 7 0 10 -261689
-1 -1;
#X obj 150 9 bng 15 250 50 0 connected connected-set connected 17 7
0 10 -262144 -1 -1;
#X obj 149 67 declare -path ./lib;
#X obj 9 26 bng 15 250 50 0 disconnect disconnect-set disconnect 17
7 0 10 -261234 -1 -1;
#X connect 0 0 1 0;
