#N canvas 0 23 450 300 10;
#X obj 351 76 get template w, f 8;
#X obj 331 52 t p p p p;
#X obj 326 140 swap;
#X obj 326 164 /;
#X obj 326 188 + 0.5;
#X obj 246 20 inlet size;
#X obj 145 20 inlet element;
#X obj 20 20 inlet value;
#X obj 246 45 t f f;
#X obj 278 76 setsize template \$3\$1, f 8;
#X obj 318 212 set template w\$1, f 8;
#X obj 261 266 element template \$3\$1;
#X obj 20 273 set \$3\$1-e w;
#X obj 60 250 set \$3\$1-e x;
#X obj 100 227 set \$3\$1-e y;
#X obj 331 21 r \$2-p;
#X obj 20 41 route w;
#X obj 61 75 route x;
#X obj 94 102 route y;
#X obj 131 131 route c;
#X obj 126 182 set \$3\$1-e c;
#X obj 198 128 route s;
#X obj 198 149 set \$3\$1-e s;
#X obj 164 202 t p p p p p;
#X connect 0 0 2 1;
#X connect 1 0 9 1;
#X connect 1 1 0 0;
#X connect 1 2 10 1;
#X connect 1 3 11 1;
#X connect 2 0 3 0;
#X connect 2 1 3 1;
#X connect 3 0 4 0;
#X connect 4 0 10 0;
#X connect 5 0 8 0;
#X connect 6 0 11 0;
#X connect 7 0 16 0;
#X connect 8 0 2 0;
#X connect 8 1 9 0;
#X connect 11 0 23 0;
#X connect 15 0 1 0;
#X connect 16 0 12 0;
#X connect 16 1 17 0;
#X connect 17 0 13 0;
#X connect 17 1 18 0;
#X connect 18 0 14 0;
#X connect 18 1 19 0;
#X connect 19 0 20 0;
#X connect 19 1 21 0;
#X connect 21 0 22 0;
#X connect 23 0 14 1;
#X connect 23 1 13 1;
#X connect 23 2 12 1;
#X connect 23 3 20 1;
#X connect 23 4 22 1;
