#N canvas 0 22 450 300 12;
#X obj 90 175 spigot;
#X obj 188 175 spigot;
#X obj 170 77 t f f;
#X obj 203 123 == 0;
#X obj 91 52 inlet;
#X obj 90 126 t a a;
#X obj 90 199 outlet;
#X obj 188 199 outlet;
#X obj 170 52 r is\$1;
#X connect 0 0 6 0;
#X connect 1 0 7 0;
#X connect 2 0 0 1;
#X connect 2 1 3 0;
#X connect 3 0 1 1;
#X connect 4 0 5 0;
#X connect 5 0 0 0;
#X connect 5 1 1 0;
#X connect 8 0 2 0;
