#N struct timeline-struct float x float y float tv float tc float t
float h;
#N struct template float x float y float w float h float t float tc
array a0 a0-e symbol s0 float s0v float y0 float a0c float a0v array
a1 a1-e symbol s1 float s1v float y1 float a1c float a1v symbol s1l0
symbol s1l1 symbol s1l2 float s1l0v float s1l1v float s1l2v array a2
a2-e symbol s2 float s2v float y2 float a2c float a2v symbol s2l0 symbol
s2l1 symbol s2l2 float s2l0v float s2l1v float s2l2v array a3 a3-e
symbol s3 float s3v float y3 float a3c float a3v array a4 a4-e symbol
s4 float s4v float y4 float a4c float a4v array a5 a5-e symbol s5 float
s5v float y5 float a5c float a5v float gclef float cclef float tv;
#N struct a0-e float x float y float w symbol bowx float bowxv float
bowxX float bowxY;
#N struct a1-e float x float y float w;
#N struct a2-e float x float y float w;
#N struct a3-e float x float y float w;
#N struct a4-e float x float y float c float v;
#N struct a5-e float x float y float w;
#N canvas 21 473 451 301 12;
#X declare -path ./lib;
#N canvas 0 23 450 300 presets 0;
#X obj 208 34 text define preset;
#N canvas 277 173 450 300 update-changes 0;
#X obj 59 74 symbol;
#X obj 59 269 s;
#X msg 127 250 symbol \$1-set;
#X msg 59 171 traverse pd-score \, next;
#X obj 59 195 pointer;
#X obj 59 147 t b a;
#X obj 59 224 get;
#X msg 59 29 0 \, 1 \, 2 \, 3 \, 4 \, 5;
#X obj 59 96 t a a;
#X msg 59 123 set template \$1;
#X obj 264 112 r update-changes;
#X obj 264 136 t b b;
#X obj 291 169 s get-pointer-set;
#X msg 59 52 s\$1 \, s\$1v \, a\$1c \, a\$1v \, y\$1;
#X connect 0 0 8 0;
#X connect 2 0 1 1;
#X connect 3 0 4 0;
#X connect 4 0 6 0;
#X connect 5 0 3 0;
#X connect 5 1 6 0;
#X connect 6 0 1 0;
#X connect 7 0 13 0;
#X connect 8 0 9 0;
#X connect 8 1 2 0;
#X connect 9 0 5 0;
#X connect 10 0 11 0;
#X connect 11 0 7 0;
#X connect 11 1 12 0;
#X connect 13 0 0 0;
#X restore 27 68 pd update-changes;
#N canvas 0 23 450 300 load-preset 0;
#X obj 194 29 r load-preset;
#X obj 194 53 change -1;
#X obj 60 164 f;
#X obj 34 28 r overwrite-preset;
#X obj 64 128 bng 15 250 50 0 empty empty empty 17 7 0 10 -262144 -1
-1;
#X floatatom 60 188 5 0 0 0 - - -, f 5;
#X msg 59 234 \; preset write txt/preset-\$1.txt;
#X msg 194 83 \$1 \; preset read txt/preset-\$1.txt;
#X connect 0 0 1 0;
#X connect 1 0 7 0;
#X connect 2 0 6 0;
#X connect 2 0 5 0;
#X connect 3 0 2 0;
#X connect 4 0 2 0;
#X connect 7 0 2 1;
#X restore 27 22 pd load-preset;
#N canvas 0 23 450 300 update-preset 0;
#X msg 82 72 line 0 \, bang;
#X obj 111 131 list;
#X obj 69 165 b;
#X obj 111 155 list split 2;
#X obj 111 179 t b a;
#X obj 82 96 text sequence preset;
#X obj 157 182 list split 1;
#X obj 230 217 symbol;
#X obj 188 263 s;
#X obj 81 12 r update-preset;
#X connect 0 0 5 0;
#X connect 1 0 3 0;
#X connect 2 0 1 0;
#X connect 3 0 4 0;
#X connect 3 1 1 1;
#X connect 4 0 2 0;
#X connect 4 1 6 0;
#X connect 5 0 1 0;
#X connect 6 0 8 0;
#X connect 6 1 7 0;
#X connect 7 0 8 1;
#X connect 9 0 0 0;
#X restore 27 45 pd update-preset;
#X restore 194 43 pd presets;
#N canvas 741 78 539 273 controls 0;
#X obj 392 16 bng 15 250 50 0 get-pointer get-pointer-set get-pointer
17 7 0 10 -204800 -1 -1;
#X obj 10 12 _set 0 template;
#X obj 392 38 bng 15 250 50 0 update-changes update-changes-set update-changes
17 7 0 10 -204786 -13381 -1;
#X obj 392 96 bng 15 250 50 0 update-preset update-preset-set update-preset
17 7 0 10 -261682 -13381 -1;
#X obj 391 73 hradio 15 1 0 8 load-preset load-preset-set load-preset
0 -8 0 10 -262130 -1 -1 4;
#X obj 392 118 bng 15 250 50 0 overwrite-preset overwrite-preset-set
overwrite-preset 17 7 0 10 -258113 -1 -1;
#X obj 392 147 bng 15 250 50 0 test-fill test-fill-set test-fill 17
7 0 10 -262144 -1 -1;
#X obj 132 12 _set 1 template;
#X obj 254 12 _set 2 template;
#X obj 10 134 _set 3 template;
#X obj 132 134 _set 4 template;
#X obj 254 134 _set 5 template;
#X msg 394 172 \; preset click;
#X restore 94 43 pd controls;
#N canvas 4 418 594 498 init 0;
#X obj 59 350 pointer;
#X obj 67 300 r get-pointer;
#X msg 59 323 send template-p;
#X obj 59 250 append template x y w h;
#X obj 59 274 t b p;
#X msg 82 96 \; pd-score clear;
#X obj 273 22 r title;
#X obj 273 46 symbol;
#X msg 59 222 80 80 1000 300;
#X msg 274 69 \; title-set label \$1, f 32;
#X msg 295 139 \; title BASS_FLUTE;
#X msg 434 134 \; title VIOLA;
#X msg 444 171 \; title TRUMPET;
#X obj 36 19 r init;
#X obj 36 63 t f b b;
#X msg 36 378 \; preset read preset-\$1.txt \; update-preset bang \;
pd-score vis 1 \; pd-score obj 20 30 cnv 20 20 10 title title-set INSTRUMENT
0 10 0 20 0 12 0 \;;
#X msg 59 141 traverse pd-score \, bang;
#X obj 59 170 pointer;
#X obj 59 197 t b p;
#X connect 1 0 2 0;
#X connect 2 0 0 0;
#X connect 3 0 4 0;
#X connect 4 0 2 0;
#X connect 4 1 0 0;
#X connect 6 0 7 0;
#X connect 7 0 9 0;
#X connect 8 0 3 0;
#X connect 13 0 14 0;
#X connect 14 0 15 0;
#X connect 14 1 16 0;
#X connect 14 2 5 0;
#X connect 16 0 17 0;
#X connect 17 0 18 0;
#X connect 18 0 8 0;
#X connect 18 1 3 4;
#X restore 20 43 pd init;
#N canvas 78 55 1175 380 score 1;
#X scalar timeline-struct 80 80 1 0 40.6667 300 \;;
#X scalar template 80 80 1000 300 0 0 empty 0 15 999 1 XY 1 41 0 1
MST ORD MSP 1 1 1 Rot 1 90 900 1 +180 +90 +0 1 1 1 L.H. 1 245 39 1
VLE 1 199 0 1 DYN. 1 142 0 1 0 1 0 \; 0 0 8 symbol 0 0 0 \; 33.3333
0 0 symbol 0 0 0 \; 66.6667 0 0 symbol 0 0 0 \; 100 0 0 symbol 0 0
0 \; 133.333 0 0 symbol 0 0 0 \; 166.667 0 0 symbol 0 0 0 \; 200 0
0 frog 1 0 -3 \; 233.333 0 0 symbol 0 0 0 \; 266.667 0 0 symbol 0 0
0 \; 300 0 0 symbol 0 0 0 \; 333.333 0 0 symbol 0 0 0 \; 366.667 0
0 symbol 0 0 0 \; 400 0 0 norm 1 0 0 \; 433.333 0 0 symbol 0 0 0 \;
466.667 0 0 symbol 0 0 0 \; 500 0 0 symbol 0 0 0 \; 533.333 0 0 symbol
0 0 0 \; 566.667 0 0 punta 1 0 3 \; 600 0 0 symbol 0 0 0 \; 633.333
0 0 symbol 0 0 0 \; 666.667 0 0 symbol 0 0 0 \; 700 0 0 symbol 0 0
0 \; 733.333 0 0 symbol 0 0 0 \; 766.667 0 0 symbol 0 0 0 \; 800 0
0 symbol 0 0 0 \; 833.333 0 0 symbol 0 0 0 \; 866.667 0 0 symbol 0
0 0 \; 900 0 0 symbol 0 0 0 \; 933.333 0 0 symbol 0 0 0 \; 966.667
0 0 symbol 0 0 0 \; \; 0 0 0 \; 33.3333 0 0 \; 66.6667 0 0 \; 100 0
0 \; 133.333 0 0 \; 166.667 0 0 \; 200 0 0 \; 233.333 0 0 \; 266.667
0 0 \; 300 0 0 \; 333.333 0 0 \; 366.667 0 0 \; 400 0 0 \; 433.333
0 0 \; 466.667 0 0 \; 500 0 0 \; 533.333 0 0 \; 566.667 9 0 \; 600
0 0 \; 633.333 8 0 \; 666.667 0 0 \; 700 8 0 \; 733.333 0 0 \; 766.667
0 0 \; 800 0 0 \; 833.333 0 0 \; 866.667 0 0 \; 900 0 0 \; 933.333
0 0 \; 966.667 0 0 \; \; 0 0 0 \; 33.3333 -9.99984 2 \; 66.6667 -7.36924
0 \; 100 0 0 \; 133.333 0 0 \; 166.667 0 0 \; 200 0 0 \; 233.333 5.11211
2 \; 266.667 0 0 \; 300 0 0 \; 333.333 0 0 \; 366.667 0 0 \; 400 0
0 \; 433.333 0 0 \; 466.667 0 0 \; 500 0 0 \; 533.333 -0.826997 1 \;
566.667 0.655345 2 \; 600 -5.62082 3 \; 633.333 0 0 \; 666.667 0 0
\; 700 0 0 \; 733.333 0 0 \; 766.667 0 0 \; 800 0 0 \; 833.333 0 0
\; 866.667 0 0 \; 900 0 0 \; 933.333 -9.05911 3 \; 966.667 0 0 \; \;
0 0 0 \; 33.3333 0 3 \; 66.6667 0 0 \; 100 0 0 \; 133.333 0 0 \; 166.667
0 0 \; 200 0 0 \; 233.333 0 0 \; 266.667 0 0 \; 300 0 0 \; 333.333
0 0 \; 366.667 0 7 \; 400 0 0 \; 433.333 0 0 \; 466.667 0 1 \; 500
0 0 \; 533.333 0 0 \; 566.667 0 0 \; 600 0 0 \; 633.333 0 0 \; 666.667
0 0 \; 700 0 0 \; 733.333 0 0 \; 766.667 0 2 \; 800 0 0 \; 833.333
0 7 \; 866.667 0 0 \; 900 0 0 \; 933.333 0 0 \; 966.667 0 0 \; \; 0
0 0 0 \; 33.3333 0 0 0 \; 66.6667 0 0 0 \; 100 0 0 0 \; 133.333 0 0
0 \; 166.667 0 0 0 \; 200 0 0 0 \; 233.333 0 0 0 \; 266.667 0 0 0 \;
300 0 0 0 \; 333.333 0 0 0 \; 366.667 0 0 0 \; 400 0 0 0 \; 433.333
0 0 0 \; 466.667 9 0 1 \; 500 0 0 0 \; 533.333 0 0 0 \; 566.667 0 0
0 \; 600 0 0 0 \; 633.333 0 0 0 \; 666.667 0 0 0 \; 700 16 0 1 \; 733.333
0 0 0 \; 766.667 0 0 0 \; 800 0 0 0 \; 833.333 0 0 0 \; 866.667 0 0
0 \; 900 0 0 0 \; 933.333 -2 0 1 \; 966.667 0 0 0 \; \; 0 0 0 \; 33.3333
0 0 \; 66.6667 0 0 \; 100 0 0 \; 133.333 0 0 \; 166.667 0 0 \; 200
0 5 \; 233.333 0 0 \; 266.667 0 0 \; 300 0 0 \; 333.333 0 0 \; 366.667
0 9 \; 400 0 0 \; 433.333 0 0 \; 466.667 0 0 \; 500 0 8 \; 533.333
0 0 \; 566.667 0 0 \; 600 0 0 \; 633.333 0 0 \; 666.667 0 9 \; 700
0 0 \; 733.333 0 9 \; 766.667 0 0 \; 800 0 0 \; 833.333 0 0 \; 866.667
0 0 \; 900 0 0 \; 933.333 0 0 \; 966.667 0 0 \; \;;
#X obj 20 30 cnv 20 20 10 title title-set VIOLA 0 10 0 20 -262144 -33289
0;
#X obj 1050 30 cnv 20 40 30 pagenum pagenum-set *1* 5 15 0 16 -225271
-33289 0;
#X restore 20 20 pd score;
#N canvas 684 22 1065 1094 structure 0;
#X text 20 10 ///////// THE STRUCTURE ///////////////////////////////
;
#X text 20 234 ///////// THE PLOTS ///////////////////////////////////
;
#X obj 51 721 drawpolygon 0 1 0 y4(0:1000)(-8:992) w y4(0:1000)(-8:992)
;
#X obj 51 761 drawpolygon 0 1 0 y4(0:1000)(8:1008) w y4(0:1000)(8:1008)
;
#X obj 51 781 drawpolygon 0 1 0 y4(0:1000)(16:1016) w y4(0:1000)(16:1016)
;
#X obj 51 741 drawpolygon 0 1 0 y4 w y4;
#X obj 50 351 drawpolygon -v a1v 0 1 0 y1(0:1000)(-8:992) w y1(0:1000)(-8:992)
;
#X obj 50 384 drawpolygon -v a1v 0 1 0 y1 w y1;
#X obj 50 404 drawpolygon -v a1v 0 1 0 y1(0:1000)(8:1008) w y1(0:1000)(8:1008)
;
#X obj 51 701 drawpolygon 0 1 0 y4(0:1000)(-16:984) w y4(0:1000)(-16:984)
;
#X obj 50 487 drawpolygon -v a2v 0 1 0 y2(0:1000)(-8:992) w y2(0:1000)(-8:992)
;
#X obj 50 519 drawpolygon -v a2v 0 1 0 y2 w y2;
#X obj 50 539 drawpolygon -v a2v 0 1 0 y2(0:1000)(8:1008) w y2(0:1000)(8:1008)
;
#N canvas 224 287 525 303 a0-e 0;
#X obj 18 19 struct a0-e float x float y float w symbol bowx float
bowxv float bowxX float bowxY;
#X obj 71 83 drawsymbol -v bowxv bowx bowxX bowxY;
#X restore 509 31 pd a0-e;
#N canvas 500 400 450 300 a1-e 0;
#X obj 40 40 struct a1-e float x float y float w;
#X restore 509 51 pd a1-e;
#N canvas 191 434 450 300 a2-e 0;
#X obj 40 40 struct a2-e float x float y float w;
#X restore 509 71 pd a2-e;
#N canvas 500 400 450 300 a3-e 0;
#X obj 40 40 struct a3-e float x float y float w;
#X restore 509 91 pd a3-e;
#N canvas 500 400 450 300 a4-e 0;
#X obj 40 40 struct a4-e float x float y float c float v;
#X obj 40 70 filledcurve -v v c c 1 -2 -2 -2 2 2 2 2 -2;
#X restore 509 111 pd a4-e;
#N canvas 500 400 450 300 a5-e 0;
#X obj 39 42 struct a5-e float x float y float w;
#X restore 509 131 pd a5-e;
#X obj 22 213 s template-clicks;
#X obj 42 274 plot -v a0v a0 a0c 0 20 y0;
#X obj 40 331 plot -v a1v a1 a1c 0 20 y1;
#X obj 40 467 plot -v a2v curve a2 a2c 0 20 y2;
#X obj 41 615 plot -v a3v a3 a3c 0 20 y3;
#X obj 39 973 plot -v a5v a5 a5c 0 20 y5;
#X obj 41 681 plot -v a4v a4 a4c 0 20 y4;
#X obj 22 254 drawsymbol -v s0v s0 x(0:1000)(-70:0) y0(0:1000)(-10:990)
0;
#X obj 20 311 drawsymbol -v s1v s1 x(0:1000)(-70:0) y1(0:1000)(-10:990)
0;
#X obj 20 448 drawsymbol -v s2v s2 x(0:1000)(-70:0) y2(0:1000)(-10:990)
0;
#X obj 21 595 drawsymbol -v s3v s3 x(0:1000)(-70:0) y3(0:1000)(-10:990)
0;
#X obj 22 661 drawsymbol -v s4v s4 x(0:1000)(-70:0) y4(0:1000)(-10:990)
0;
#X obj 20 953 drawsymbol -v s5v s5 x(0:1000)(-70:0) y5(0:1000)(-10:990)
0;
#X obj 419 347 drawsymbol -v s1l0v s1l0 x(0:1000)(-35:0) y1(0:1000)(-16:984)
333;
#X obj 420 383 drawsymbol -v s1l1v s1l1 x(0:1000)(-35:0) y1 333;
#X obj 420 404 drawsymbol -v s1l2v s1l2 x(0:1000)(-35:0) y1(0:1000)(16:1016)
333;
#X obj 418 488 drawsymbol -v s2l0v s2l0 x(0:1000)(-35:0) y2(0:1000)(-16:984)
333;
#X obj 419 524 drawsymbol -v s2l1v s2l1 x(0:1000)(-35:0) y2 333;
#X obj 418 545 drawsymbol -v s2l2v s2l2 x(0:1000)(-35:0) y2(0:1000)(16:1016)
333;
#X obj 572 666 drawpolygon -v gclef 0 1 5 y4(0:1000)(-16:982) 5 y4(0:1000)(16:1016)
;
#X obj 572 702 drawcurve -v gclef 0 1 0 y4(0:1000)(16:1016) 0 y4 10
y4 10 y4(0:1000)(16:1016) 0 y4(0:1000)(16:1016);
#X obj 571 776 drawpolygon -v cclef 0 1 0 y4(0:1000)(-16:984) 0 y4(0:1000)(16:1016)
;
#X obj 570 817 drawpolygon -v cclef 0 1 3 y4(0:1000)(-16:984) 3 y4(0:1000)(16:1016)
;
#X obj 570 913 drawcurve -v cclef 0 1 3 y4(0:1000)(3:1003) 5 y4(0:1000)(3:1003)
10 y4(0:1000)(8:1008) 8 y4(0:1000)(16:1016);
#X obj 570 857 drawcurve -v cclef 0 1 3 y4(0:1000)(-3:997) 5 y4(0:1000)(-3:997)
10 y4(0:1000)(-8:992) 8 y4(0:1000)(-16:984);
#X text 565 628 ///////// THE GCLEF ///////////////////////////////////
;
#X text 558 748 ///////// THE CCLEF ///////////////////////////////////
;
#X obj 22 30 struct template float x float y float w float h float
t float tc array a0 a0-e symbol s0 float s0v float y0 float a0c float
a0v array a1 a1-e symbol s1 float s1v float y1 float a1c float a1v
symbol s1l0 symbol s1l1 symbol s1l2 float s1l0v float s1l1v float s1l2v
array a2 a2-e symbol s2 float s2v float y2 float a2c float a2v symbol
s2l0 symbol s2l1 symbol s2l2 float s2l0v float s2l1v float s2l2v array
a3 a3-e symbol s3 float s3v float y3 float a3c float a3v array a4 a4-e
symbol s4 float s4v float y4 float a4c float a4v array a5 a5-e symbol
s5 float s5v float y5 float a5c float a5v float gclef float cclef float
tv;
#X connect 46 0 19 0;
#X restore 94 20 pd structure;
#N canvas 0 23 505 318 timeline 0;
#X obj 43 238 r timeline;
#N canvas 0 23 450 300 test 0;
#X obj 194 67 line;
#X msg 194 91 \$1 \; timeline \$1;
#X obj 81 146 spigot 1;
#X obj 62 12 tgl 15 0 empty empty empty 17 7 0 10 -262144 -1 -1 0 1
;
#X obj 62 32 t f f;
#X msg 170 41 0 \, 1000 10000;
#X obj 194 129 sel 1000;
#X msg 194 153 bang \; test-fill bang \; pd-score sort;
#X obj 50 86 sel 1 0;
#X msg 155 74 stop;
#X connect 0 0 1 0;
#X connect 1 0 6 0;
#X connect 2 0 5 0;
#X connect 3 0 4 0;
#X connect 4 0 8 0;
#X connect 4 1 2 1;
#X connect 5 0 0 0;
#X connect 6 0 7 0;
#X connect 7 0 2 0;
#X connect 8 0 7 0;
#X connect 8 1 9 0;
#X connect 9 0 0 0;
#X restore 328 229 pd test timeline;
#X text 18 54 ///////// THE TIMELINE ///////////////////////////////////
;
#X obj 22 78 drawpolygon -v tv tc 1 t(0:1000)(0:1000) 0 t(0:1000)(0:1000)
h;
#X obj 27 119 drawpolygon -v tv tc 10 t(0:1000)(-2:998) 2 t(0:1000)(2:1002)
2;
#X obj 138 238 r timeline-struct-p;
#X obj 21 13 struct timeline-struct float x float y float tv float
tc float t float h;
#N canvas 0 22 450 300 init-timeline 0;
#X msg 77 48 traverse pd-score \, bang;
#X obj 77 77 pointer;
#X obj 76 104 t b p;
#X obj 73 252 pointer;
#X obj 73 176 t b p;
#X msg 73 225 send timeline-struct-p;
#X obj 77 151 append timeline-struct x y tv h;
#X msg 76 128 80 80 1 300;
#X obj 78 21 r init-timeline;
#X connect 0 0 1 0;
#X connect 1 0 2 0;
#X connect 2 0 7 0;
#X connect 2 1 6 4;
#X connect 4 0 5 0;
#X connect 4 1 3 0;
#X connect 5 0 3 0;
#X connect 6 0 4 0;
#X connect 7 0 6 0;
#X connect 8 0 0 0;
#X restore 44 185 pd init-timeline;
#X obj 43 261 set timeline-struct t;
#X connect 0 0 8 0;
#X connect 5 0 8 1;
#X restore 20 66 pd timeline;
#N canvas 253 60 829 692 test 0;
#X obj 51 180 fd_iterate;
#X obj 51 202 t b f;
#X obj 51 230 random 10;
#X obj 60 477 list prepend 0;
#X obj 180 477 list prepend 0;
#X obj 300 477 list prepend 0;
#X obj 51 156 t f f;
#X obj 363 174 t b f f;
#X msg 408 268 list w;
#X msg 467 268 list y;
#X msg 385 146 0 \, 1 \, 2 \, 5;
#X obj 32 334 list prepend w;
#X obj 409 200 sel 0 5 1 2;
#X msg 201 189 25;
#X msg 228 7 25 4;
#X obj 228 31 unpack;
#X obj 205 62 t f f;
#X obj 205 86 fd_iterate;
#X obj 83 15 t b f;
#X obj 152 148 random 20;
#X obj 152 172 - 10;
#X msg 52 122 x \$1;
#X msg 152 196 y \$1;
#X obj 367 89 bng 15 250 50 0 empty empty empty 17 7 0 10 -262144 -1
-1;
#X obj 346 106 t b b b;
#X obj 445 84 s get-pointer-set;
#X obj 339 28 r test-fill;
#X obj 52 98 random 1000;
#X msg 246 221 c \$1;
#X msg 243 172 900;
#X msg 289 172 0;
#X obj 170 109 random 100;
#X obj 243 148 moses 20;
#X obj 311 133 moses 30;
#X msg 311 157 90;
#X obj 70 62 t b b b b;
#X msg 499 398 s \$1;
#X obj 110 556 clone _array-set 6 template a;
#X obj 499 349 random 10;
#X obj 499 373 == 0;
#X connect 0 0 1 0;
#X connect 1 0 2 0;
#X connect 1 1 4 0;
#X connect 2 0 11 0;
#X connect 3 0 37 0;
#X connect 4 0 37 1;
#X connect 5 0 37 2;
#X connect 6 0 0 0;
#X connect 6 1 5 0;
#X connect 7 0 13 0;
#X connect 7 1 5 1;
#X connect 7 1 4 1;
#X connect 7 1 3 1;
#X connect 7 2 12 0;
#X connect 8 0 11 1;
#X connect 9 0 11 1;
#X connect 10 0 7 0;
#X connect 11 0 3 0;
#X connect 12 0 8 0;
#X connect 12 1 8 0;
#X connect 12 2 9 0;
#X connect 12 3 9 0;
#X connect 13 0 6 0;
#X connect 14 0 15 0;
#X connect 15 0 16 0;
#X connect 15 1 5 1;
#X connect 15 1 4 1;
#X connect 15 1 3 1;
#X connect 16 0 17 0;
#X connect 16 1 5 0;
#X connect 17 0 18 0;
#X connect 18 0 35 0;
#X connect 18 1 4 0;
#X connect 19 0 20 0;
#X connect 20 0 22 0;
#X connect 21 0 3 0;
#X connect 22 0 3 0;
#X connect 23 0 24 0;
#X connect 24 0 14 0;
#X connect 24 1 10 0;
#X connect 24 2 25 0;
#X connect 26 0 24 0;
#X connect 27 0 21 0;
#X connect 28 0 3 0;
#X connect 29 0 28 0;
#X connect 30 0 28 0;
#X connect 31 0 32 0;
#X connect 32 0 29 0;
#X connect 32 1 33 0;
#X connect 33 0 34 0;
#X connect 33 1 30 0;
#X connect 34 0 28 0;
#X connect 35 0 27 0;
#X connect 35 1 19 0;
#X connect 35 2 31 0;
#X connect 35 3 38 0;
#X connect 36 0 3 0;
#X connect 38 0 39 0;
#X connect 39 0 36 0;
#X restore 117 66 pd test fill;
#N canvas 536 381 450 300 sizes 0;
#X obj 229 167 clone _setsize 6 template a;
#X obj 54 173 list;
#X obj 54 197 list split 2;
#X obj 14 197 t b;
#X msg 54 125 0;
#X msg 86 254 \; _setsize-\$1a \$2 \;;
#X obj 54 103 t b b;
#X obj 121 124 s get-pointer;
#X obj 54 221 t b a;
#X obj 54 55 text;
#X obj 54 149 text get -s text t;
#X obj 54 79 t b p;
#X msg 54 34 read sizes.txt \, bang;
#X obj 54 10 r load-sizes;
#X connect 1 0 2 0;
#X connect 2 0 8 0;
#X connect 2 1 1 1;
#X connect 3 0 1 0;
#X connect 4 0 10 0;
#X connect 6 0 4 0;
#X connect 6 1 7 0;
#X connect 8 0 3 0;
#X connect 8 1 5 0;
#X connect 9 0 11 0;
#X connect 10 0 1 0;
#X connect 11 0 6 0;
#X connect 11 1 10 3;
#X connect 12 0 9 0;
#X connect 13 0 12 0;
#X restore 20 89 pd sizes;
#N canvas 180 563 1095 751 fill 0;
#X msg 326 78 \; get-pointer bang;
#X obj 133 256 fd_iterate;
#X obj 225 326 /;
#X obj 133 283 t f f b;
#X obj 156 345 *;
#X obj 243 275 get template w;
#X obj 243 251 r template-p;
#X obj 133 228 t f b f, f 21;
#X obj 225 302 f;
#X obj 133 654 list prepend 0;
#X obj 70 175 list split 1;
#X obj 541 168 list split 1;
#X obj 110 202 sel;
#X obj 359 322 f;
#X obj 391 347 sel 1 2 4;
#X obj 133 412 pack;
#X obj 133 465 list;
#X msg 347 515 0 \$1;
#X obj 341 490 random 10;
#X obj 375 594 t a;
#X msg 104 40 all bang;
#X obj 578 479 random 20;
#X obj 578 503 - 10;
#X obj 261 429 random 40;
#X obj 261 452 - 20;
#X obj 103 85 clone _getsize 6 template a;
#X obj 406 253 sel;
#X obj 450 253 b;
#X obj 560 323 f;
#X obj 562 347 sel 4;
#X msg 468 486 0 0;
#X obj 133 697 clone _element 6 template a;
#X msg 416 486 0 0 0;
#X msg 262 486 \$1 0 1;
#X obj 406 229 random 2;
#X msg 579 526 \$1 0;
#X obj 554 221 t f f f;
#X obj 715 628 t f;
#X obj 322 14 bng 15 250 50 0 empty empty empty 17 7 0 10 -262144 -1
-1;
#X obj 316 35 t b b b;
#X obj 461 66 random 10;
#X obj 394 16 r fill;
#X obj 542 29 r from-netsend;
#X obj 103 113 t a a a;
#N canvas 657 187 926 775 viola-stuff 0;
#X msg 84 77 30;
#X obj 158 34 inlet;
#X obj 335 207 r template-p;
#X obj 156 239 element template a0;
#X obj 203 525 set a0-e bowxv;
#X obj 171 638 set -symbol a0-e bowx;
#X obj 80 410 random 3;
#X obj 383 15 r title;
#X obj 339 94 sel VIOLA;
#X msg 339 118 1;
#X msg 371 118 0;
#X obj 383 39 symbol;
#X obj 162 63 spigot;
#X obj 771 58 r template-p;
#X obj 550 129 set -symbol template s2l0 s2l1 s2l2;
#X obj 527 337 set template s2l0v s2l1v s2l2v;
#X msg 460 193 \$1 \$1 \$1;
#X msg 549 103 list +180 +90 +0;
#X obj 82 526 sel 0 1 2;
#X obj 552 200 set -symbol template s1l0 s1l1 s1l2;
#X msg 557 172 list MST ORD MSP;
#X obj 525 294 set template s1l0v s1l1v s1l2v;
#X obj 507 67 sel 1;
#X obj 338 142 t f f f f;
#X obj 687 376 r template-p;
#X obj 439 417 set template gclef cclef;
#X obj 436 334 t f f;
#X obj 443 375 == 0;
#X obj 174 178 fd_iterate;
#X obj 94 604 unpack f s;
#X msg 107 567 0 norm;
#X obj 380 589 t p p;
#X obj 197 284 t b p p;
#X msg 33 567 3 punta;
#X msg 178 570 -3 frog;
#X obj 159 326 random 20;
#X obj 70 450 change;
#X obj 70 475 t b f;
#X msg 159 476 1;
#X obj 159 376 sel 1;
#X obj 159 351 < 5;
#X obj 161 87 route 0;
#X obj 120 668 t f f;
#X obj 201 670 * 2;
#X obj 146 723 set a0-e bowxY y;
#X connect 1 0 12 0;
#X connect 2 0 3 1;
#X connect 3 0 32 0;
#X connect 6 0 36 0;
#X connect 7 0 11 0;
#X connect 8 0 9 0;
#X connect 8 1 10 0;
#X connect 9 0 23 0;
#X connect 10 0 23 0;
#X connect 11 0 8 0;
#X connect 12 0 41 0;
#X connect 13 0 14 3;
#X connect 13 0 15 3;
#X connect 13 0 19 3;
#X connect 13 0 21 3;
#X connect 16 0 15 0;
#X connect 16 0 21 0;
#X connect 17 0 14 0;
#X connect 18 0 33 0;
#X connect 18 1 30 0;
#X connect 18 2 34 0;
#X connect 20 0 19 0;
#X connect 22 0 17 0;
#X connect 22 0 20 0;
#X connect 23 0 12 1;
#X connect 23 1 16 0;
#X connect 23 2 22 0;
#X connect 23 3 26 0;
#X connect 24 0 25 2;
#X connect 26 0 27 0;
#X connect 26 1 25 1;
#X connect 27 0 25 0;
#X connect 28 0 3 0;
#X connect 29 0 42 0;
#X connect 29 1 5 0;
#X connect 30 0 29 0;
#X connect 31 0 5 1;
#X connect 31 1 44 2;
#X connect 32 0 35 0;
#X connect 32 1 4 1;
#X connect 32 2 31 0;
#X connect 33 0 29 0;
#X connect 34 0 29 0;
#X connect 35 0 40 0;
#X connect 36 0 37 0;
#X connect 37 0 38 0;
#X connect 37 1 18 0;
#X connect 38 0 4 0;
#X connect 39 0 6 0;
#X connect 39 1 4 0;
#X connect 40 0 39 0;
#X connect 41 0 28 0;
#X connect 42 0 44 0;
#X connect 42 1 43 0;
#X connect 43 0 44 1;
#X restore 622 123 pd viola-stuff;
#X obj 677 245 r title;
#X obj 677 299 sel VIOLA;
#X msg 677 323 1;
#X msg 709 323 0;
#X obj 356 405 sel 0;
#X obj 364 460 b;
#X obj 677 269 symbol;
#X obj 677 347 t f f;
#X obj 413 430 == 0;
#X obj 355 430 spigot;
#X obj 612 424 t b b;
#X obj 612 449 spigot;
#X obj 675 451 spigot;
#X obj 713 372 t f f;
#X obj 760 518 random 5;
#X obj 650 514 crand -10 10;
#X obj 675 476 t b b;
#X obj 653 545 pack;
#X obj 696 401 == 0;
#X connect 1 0 3 0;
#X connect 2 0 4 1;
#X connect 3 0 15 0;
#X connect 3 1 4 0;
#X connect 3 2 34 0;
#X connect 4 0 15 1;
#X connect 5 0 8 1;
#X connect 6 0 5 0;
#X connect 7 0 1 0;
#X connect 7 1 8 0;
#X connect 7 2 2 1;
#X connect 8 0 2 0;
#X connect 9 0 31 0;
#X connect 10 1 12 0;
#X connect 11 0 36 0;
#X connect 12 1 7 0;
#X connect 13 0 14 0;
#X connect 14 0 21 0;
#X connect 14 1 55 0;
#X connect 14 2 23 0;
#X connect 14 3 49 0;
#X connect 15 0 16 0;
#X connect 16 0 9 0;
#X connect 17 0 19 0;
#X connect 18 0 17 0;
#X connect 19 0 16 1;
#X connect 20 0 25 0;
#X connect 21 0 22 0;
#X connect 22 0 35 0;
#X connect 23 0 24 0;
#X connect 24 0 33 0;
#X connect 25 0 43 0;
#X connect 26 0 13 0;
#X connect 26 1 27 0;
#X connect 27 0 28 0;
#X connect 28 0 29 0;
#X connect 29 0 32 0;
#X connect 29 1 30 0;
#X connect 30 0 19 0;
#X connect 32 0 19 0;
#X connect 33 0 19 0;
#X connect 34 0 26 0;
#X connect 35 0 19 0;
#X connect 36 0 13 1;
#X connect 36 1 28 1;
#X connect 36 2 37 0;
#X connect 37 0 9 1;
#X connect 38 0 39 0;
#X connect 39 0 20 0;
#X connect 39 1 0 0;
#X connect 39 2 40 0;
#X connect 40 0 34 1;
#X connect 41 0 38 0;
#X connect 43 0 10 0;
#X connect 43 1 11 0;
#X connect 43 2 44 0;
#X connect 45 0 51 0;
#X connect 46 0 47 0;
#X connect 46 1 48 0;
#X connect 47 0 52 0;
#X connect 48 0 52 0;
#X connect 49 0 54 0;
#X connect 49 1 50 0;
#X connect 50 0 18 0;
#X connect 51 0 46 0;
#X connect 52 0 53 0;
#X connect 52 1 58 0;
#X connect 53 0 54 1;
#X connect 54 0 18 0;
#X connect 55 0 56 0;
#X connect 55 1 57 0;
#X connect 56 0 21 0;
#X connect 57 0 61 0;
#X connect 58 0 63 0;
#X connect 58 1 57 1;
#X connect 59 0 62 1;
#X connect 60 0 62 0;
#X connect 61 0 60 0;
#X connect 61 1 59 0;
#X connect 62 0 19 0;
#X connect 63 0 56 1;
#X restore 98 90 pd fill;
#N canvas 0 23 1254 751 reader 0;
#X obj 36 147 tgl 15 0 empty empty empty 17 7 0 10 -262144 -1 -1 0
1;
#X obj 36 167 sel 1 0;
#N canvas 0 23 450 300 get 0;
#X obj 65 45 t b b;
#X obj 77 146 symbol;
#X msg 77 243 traverse pd-score \, next;
#X obj 77 267 pointer;
#X obj 77 219 t b a;
#X obj 77 296 get;
#X msg 65 70 0 \, 1 \, 2 \, 3 \, 4 \, 5;
#X obj 77 168 t a a;
#X msg 77 195 set template \$1;
#X msg 77 124 s\$1 \, s\$1v \, a\$1c \, a\$1w \, a\$1v \, y\$1 \, w\$1
;
#X msg 204 34 \; pd-score sort \; get-pointer bang;
#X obj 65 10 bng 15 250 50 0 empty empty empty 17 7 0 10 -262144 -1
-1;
#X obj 65 94 t b f b;
#X obj 64 370 list store;
#X obj 62 402 print;
#X obj 77 320 list prepend append;
#X obj 77 343 list trim;
#X connect 0 0 6 0;
#X connect 0 1 10 0;
#X connect 1 0 7 0;
#X connect 2 0 3 0;
#X connect 3 0 5 0;
#X connect 4 0 2 0;
#X connect 4 1 5 0;
#X connect 5 0 15 0;
#X connect 6 0 12 0;
#X connect 7 0 8 0;
#X connect 8 0 4 0;
#X connect 9 0 1 0;
#X connect 11 0 0 0;
#X connect 12 0 13 0;
#X connect 12 1 9 0;
#X connect 12 2 13 1;
#X connect 13 0 14 0;
#X connect 15 0 16 0;
#X connect 16 0 13 0;
#X restore 234 173 pd get info;
#X msg 151 204 \; get-pointer bang;
#X obj 620 267 r template-p;
#X obj 500 493 f;
#X obj 436 307 counter;
#X obj 480 349 moses;
#X msg 434 256 0 \, bang;
#X obj 509 319 getsize template a1;
#X obj 479 390 element template a1;
#X obj 481 422 get a1-e x y w;
#X obj 518 520 pack;
#X obj 579 146 t b p;
#X msg 578 170 0;
#X obj 578 194 element template a1;
#X obj 578 218 get a1-e x;
#X obj 387 412 del;
#X obj 481 446 t b f f;
#X obj 279 259 r template-p;
#X obj 159 485 f;
#X obj 95 299 counter;
#X obj 139 341 moses;
#X msg 93 248 0 \, bang;
#X obj 177 512 pack;
#X obj 46 404 del;
#X obj 140 438 t b f f;
#X obj 168 311 getsize template a0;
#X obj 138 382 element template a0;
#X obj 135 412 get a0-e x y w;
#X obj 533 350 print end1;
#X obj 192 342 print end2;
#X obj 350 504 osc~ 2;
#X obj 207 525 line~;
#X obj 514 569 line~;
#X obj 743 669 -~;
#X obj 743 693 mtof~;
#X obj 330 603 osc~;
#X obj 929 275 r template-p;
#X obj 809 501 f;
#X obj 745 315 counter;
#X obj 789 357 moses;
#X obj 825 576 pack;
#X obj 696 420 del;
#X obj 790 454 t b f f;
#X obj 842 358 print end1;
#X obj 391 625 line~;
#X obj 818 327 getsize template a5;
#X obj 788 398 element template a5;
#X obj 790 430 get a5-e x y w;
#X obj 809 525 abs;
#X obj 809 549 / 10;
#X obj 347 646 *~;
#X obj 1168 295 r template-p;
#X obj 1046 527 f;
#X obj 984 335 counter;
#X obj 1028 377 moses;
#X obj 935 440 del;
#X obj 1030 485 t b f f;
#X obj 1081 378 print end1;
#X obj 1064 613 line~;
#X obj 1057 347 getsize template a4;
#X obj 1027 418 element template a4;
#X obj 1064 661 +~ 60;
#X obj 425 684 env~;
#X floatatom 425 708 5 0 0 0 - - -, f 5;
#X floatatom 902 606 5 0 0 0 - - -, f 5;
#X floatatom 869 535 5 0 0 0 - - -, f 5;
#X obj 299 697 dac~ 3;
#X floatatom 999 562 5 0 0 0 - - -, f 5;
#X obj 1029 450 get a4-e x y v;
#X floatatom 1130 476 5 0 0 0 - - -, f 5;
#X obj 350 552 +~;
#X floatatom 213 475 5 0 0 0 - - -, f 5;
#X msg 360 164 30 25;
#X floatatom 360 212 5 0 0 0 - - -, f 5;
#X obj 360 188 /;
#X msg 757 259 0 \, bang;
#X msg 1037 262 0 \, bang;
#X obj 1062 567 spigot;
#X obj 949 91 line;
#X msg 949 115 \$1 \; timeline \$1;
#X obj 836 170 spigot 1;
#X obj 817 36 tgl 15 0 empty empty empty 17 7 0 10 -262144 -1 -1 0
1;
#X obj 817 56 t f f;
#X msg 925 65 0 \, 1000 10000;
#X obj 949 153 sel 1000;
#X obj 805 110 sel 1 0;
#X msg 910 98 stop;
#X msg 951 183 bang \; fill bang \; pd-score sort;
#X floatatom 585 504 5 0 0 0 - - -, f 5;
#X obj 1064 637 *~ 1;
#X floatatom 266 465 5 0 0 0 - - -, f 5;
#X obj 354 39 tgl 15 0 empty empty empty 17 7 0 10 -262144 -1 -1 0
1;
#X obj 354 59 switch~;
#X connect 0 0 1 0;
#X connect 4 0 9 0;
#X connect 4 0 10 1;
#X connect 5 0 12 0;
#X connect 6 0 7 0;
#X connect 7 0 10 0;
#X connect 7 1 30 0;
#X connect 8 0 6 0;
#X connect 9 0 7 1;
#X connect 10 0 11 0;
#X connect 11 0 18 0;
#X connect 11 1 5 1;
#X connect 11 1 90 0;
#X connect 12 0 34 0;
#X connect 13 0 14 0;
#X connect 13 1 15 1;
#X connect 14 0 15 0;
#X connect 15 0 16 0;
#X connect 17 0 6 0;
#X connect 18 0 5 0;
#X connect 18 1 12 1;
#X connect 18 2 17 0;
#X connect 19 0 27 0;
#X connect 19 0 28 1;
#X connect 20 0 24 0;
#X connect 21 0 22 0;
#X connect 22 0 28 0;
#X connect 22 1 31 0;
#X connect 23 0 21 0;
#X connect 24 0 33 0;
#X connect 25 0 21 0;
#X connect 26 0 20 0;
#X connect 26 1 24 1;
#X connect 26 2 25 0;
#X connect 27 0 22 1;
#X connect 28 0 29 0;
#X connect 29 0 26 0;
#X connect 29 2 20 1;
#X connect 29 2 73 0;
#X connect 32 0 72 0;
#X connect 33 0 32 0;
#X connect 34 0 35 1;
#X connect 35 0 36 0;
#X connect 36 0 72 1;
#X connect 37 0 52 0;
#X connect 38 0 47 0;
#X connect 38 0 48 1;
#X connect 39 0 50 0;
#X connect 39 0 67 0;
#X connect 40 0 41 0;
#X connect 41 0 48 0;
#X connect 41 1 45 0;
#X connect 42 0 46 0;
#X connect 43 0 40 0;
#X connect 44 0 39 0;
#X connect 44 1 42 1;
#X connect 44 2 43 0;
#X connect 46 0 52 1;
#X connect 47 0 41 1;
#X connect 48 0 49 0;
#X connect 49 0 44 0;
#X connect 49 2 39 1;
#X connect 50 0 51 0;
#X connect 51 0 42 0;
#X connect 51 0 66 0;
#X connect 52 0 64 0;
#X connect 52 0 68 0;
#X connect 53 0 61 0;
#X connect 53 0 62 1;
#X connect 54 0 69 0;
#X connect 54 0 79 0;
#X connect 55 0 56 0;
#X connect 56 0 62 0;
#X connect 56 1 59 0;
#X connect 57 0 55 0;
#X connect 58 0 54 0;
#X connect 58 2 57 0;
#X connect 60 0 91 0;
#X connect 61 0 56 1;
#X connect 62 0 70 0;
#X connect 63 0 35 0;
#X connect 64 0 65 0;
#X connect 70 0 58 0;
#X connect 70 1 54 1;
#X connect 70 2 71 0;
#X connect 70 2 79 1;
#X connect 72 0 37 0;
#X connect 74 0 76 0;
#X connect 76 0 75 0;
#X connect 77 0 40 0;
#X connect 78 0 55 0;
#X connect 79 0 60 0;
#X connect 80 0 81 0;
#X connect 81 0 86 0;
#X connect 82 0 85 0;
#X connect 82 0 23 0;
#X connect 82 0 8 0;
#X connect 82 0 77 0;
#X connect 82 0 78 0;
#X connect 83 0 84 0;
#X connect 84 0 87 0;
#X connect 84 1 82 1;
#X connect 85 0 80 0;
#X connect 86 0 89 0;
#X connect 87 0 89 0;
#X connect 87 1 88 0;
#X connect 88 0 80 0;
#X connect 89 0 82 0;
#X connect 91 0 63 0;
#X connect 93 0 94 0;
#X restore 20 112 pd reader;
#N canvas 703 244 477 468 tempo 0;
#X obj 65 45 t b b;
#X msg 65 70 0 \, 1 \, 2 \, 3 \, 4 \, 5;
#X obj 65 10 bng 15 250 50 0 empty empty empty 17 7 0 10 -262144 -1
-1;
#X msg 65 103 set template a\$1;
#X obj 65 182 getsize;
#X msg 208 64 \; get-pointer bang;
#X obj 65 127 t b a;
#X obj 65 151 pointer;
#X obj 111 127 r template-p;
#X obj 156 174 get template w;
#X obj 65 206 swap;
#X obj 65 230 /;
#X obj 65 254 print;
#X connect 0 0 1 0;
#X connect 0 1 5 0;
#X connect 1 0 3 0;
#X connect 2 0 0 0;
#X connect 3 0 6 0;
#X connect 4 0 10 0;
#X connect 6 0 7 0;
#X connect 6 1 4 0;
#X connect 7 0 4 0;
#X connect 8 0 7 1;
#X connect 8 0 9 0;
#X connect 9 0 10 1;
#X connect 10 0 11 0;
#X connect 10 1 11 1;
#X connect 11 0 12 0;
#X restore 100 112 pd tempo;
#N canvas 0 23 1280 751 notes 0;
#X obj 318 141 r template-p;
#X obj 249 206 moses;
#X obj 505 185 line;
#X obj 300 180 getsize template a4;
#X obj 250 261 element template a4;
#X obj 173 279 bng 15 250 50 0 empty empty empty 17 7 0 10 -262144
-1 -1;
#X obj 505 209 s timeline;
#X obj 94 273 del;
#X obj 265 17 bng 15 250 50 0 empty empty empty 17 7 0 10 -262144 -1
-1;
#X msg 266 129 0;
#X obj 245 361 t f f;
#X obj 249 399 -;
#X obj 247 297 get a4-e x y c v;
#X obj 189 160 counter;
#X obj 319 389 spigot;
#X obj 241 450 t f b;
#X obj 308 332 f;
#X obj 316 360 pack;
#X obj 43 89 spigot 1;
#X obj 87 17 tgl 15 0 empty empty empty 17 7 0 10 -262144 -1 -1 0 1
;
#X obj 265 37 t b b b b;
#X msg 782 53 \; fill bang \; pd-score sort \; get-pointer bang \;
;
#X obj 319 413 unpack;
#X obj 331 586 osc~;
#X obj 451 508 *~;
#X obj 663 707 dac~ 3;
#X obj 451 484 vline~;
#X obj 249 422 * 31;
#X obj 246 333 + 30;
#X obj 331 610 *~ 0.1;
#X msg 198 92 0 \, bang;
#X obj 306 75 bng 15 250 50 0 empty empty empty 17 7 0 10 -262144 -1
-1;
#X obj 306 95 t b b b;
#X obj 657 189 r template-p;
#X obj 657 213 getsize template a5;
#X obj 582 259 moses;
#X obj 516 403 f;
#X obj 582 310 get a5-e w x;
#X obj 683 356 t f f;
#X obj 687 394 -;
#X obj 687 417 * 31;
#X obj 684 328 + 30;
#X obj 659 447 pack;
#X obj 662 648 *~;
#X obj 582 286 element template a5;
#X obj 571 382 / 10;
#X obj 883 194 r template-p;
#X obj 808 264 moses;
#X obj 909 361 t f f;
#X obj 913 399 -;
#X obj 913 422 * 31;
#X obj 910 333 + 30;
#X obj 885 452 pack;
#X obj 885 476 line~;
#X obj 797 387 / 10;
#X obj 883 218 getsize template a0;
#X obj 808 291 element template a0;
#X obj 808 315 get a0-e w x;
#X obj 885 524 osc~;
#X obj 319 437 pack f 3;
#X obj 319 461 line~;
#X obj 323 498 *~ -0.35;
#X obj 323 526 +~ 69;
#X obj 324 551 mtof~;
#X obj 885 500 *~ 100;
#X obj 1140 198 r template-p;
#X obj 1065 268 moses;
#X obj 1138 394 t f f;
#X obj 1142 432 -;
#X obj 1142 455 * 31;
#X obj 1139 366 + 30;
#X obj 1114 485 pack;
#X obj 1054 391 / 10;
#X obj 1140 222 getsize template a3;
#X obj 1065 295 element template a3;
#X obj 1065 319 get a3-e w x;
#X obj 867 669 dac~ 8;
#X obj 828 634 *~;
#X obj 1391 214 r template-p;
#X obj 1316 284 moses;
#X obj 1417 381 t f f;
#X obj 1421 419 -;
#X obj 1421 442 * 31;
#X obj 1418 353 + 30;
#X obj 1393 472 pack;
#X obj 1316 311 element template a1;
#X obj 1391 238 getsize template a1;
#X obj 1316 335 get a1-e y x;
#X obj 1305 407 / -20;
#X obj 1305 431 + 0.5;
#X obj 1393 520 *~ 20;
#X obj 885 548 *~;
#X obj 168 299 r subdiv;
#X obj 718 381 r subdiv;
#X obj 962 377 r subdiv;
#X obj 1182 397 r subdiv;
#X obj 1487 391 r subdiv;
#X obj 466 71 t f f;
#X obj 466 95 pack;
#X obj 522 101 /;
#X obj 401 390 random 4000;
#X obj 407 342 b;
#X msg 451 460 0.5 3 \, 0 \$1 3;
#X msg 490 134 20 \, 980 \$1 \; subdiv \$2;
#X floatatom 168 323 5 0 0 0 - - -, f 5;
#X msg 522 77 \$1 1000;
#X obj 391 39 + 1000;
#X obj 391 15 random 20000;
#X obj 659 471 vline~;
#X obj 1114 509 vline~;
#X obj 1393 496 vline~;
#X obj 114 36 switch~;
#X connect 0 0 3 0;
#X connect 0 0 4 1;
#X connect 1 0 4 0;
#X connect 1 0 35 0;
#X connect 1 0 47 0;
#X connect 1 0 66 0;
#X connect 1 0 79 0;
#X connect 1 1 5 0;
#X connect 2 0 6 0;
#X connect 3 0 1 1;
#X connect 4 0 12 0;
#X connect 5 0 18 0;
#X connect 7 0 13 0;
#X connect 8 0 20 0;
#X connect 9 0 11 1;
#X connect 9 0 39 1;
#X connect 10 0 11 1;
#X connect 10 1 11 0;
#X connect 11 0 27 0;
#X connect 12 0 28 0;
#X connect 12 1 16 1;
#X connect 12 2 17 1;
#X connect 12 3 14 1;
#X connect 13 0 1 0;
#X connect 14 0 22 0;
#X connect 15 0 7 0;
#X connect 15 1 16 0;
#X connect 16 0 17 0;
#X connect 17 0 14 0;
#X connect 18 0 8 0;
#X connect 19 0 18 1;
#X connect 19 0 111 0;
#X connect 20 0 30 0;
#X connect 20 1 9 0;
#X connect 20 2 107 0;
#X connect 20 3 21 0;
#X connect 22 0 59 0;
#X connect 22 1 101 0;
#X connect 23 0 29 0;
#X connect 24 0 43 0;
#X connect 24 0 77 0;
#X connect 26 0 24 0;
#X connect 27 0 15 0;
#X connect 28 0 10 0;
#X connect 29 0 24 1;
#X connect 30 0 13 0;
#X connect 31 0 32 0;
#X connect 32 0 30 0;
#X connect 32 1 9 0;
#X connect 32 2 103 0;
#X connect 33 0 34 0;
#X connect 33 0 44 1;
#X connect 34 0 35 1;
#X connect 35 0 44 0;
#X connect 37 0 45 0;
#X connect 37 1 41 0;
#X connect 38 0 39 1;
#X connect 38 1 39 0;
#X connect 39 0 40 0;
#X connect 40 0 42 1;
#X connect 41 0 38 0;
#X connect 42 0 108 0;
#X connect 43 0 25 0;
#X connect 44 0 37 0;
#X connect 45 0 42 0;
#X connect 46 0 55 0;
#X connect 46 0 56 1;
#X connect 47 0 56 0;
#X connect 48 0 49 1;
#X connect 48 1 49 0;
#X connect 49 0 50 0;
#X connect 50 0 52 1;
#X connect 51 0 48 0;
#X connect 52 0 53 0;
#X connect 53 0 64 0;
#X connect 54 0 52 0;
#X connect 55 0 47 1;
#X connect 56 0 57 0;
#X connect 57 0 54 0;
#X connect 57 1 51 0;
#X connect 58 0 91 0;
#X connect 59 0 60 0;
#X connect 60 0 61 0;
#X connect 61 0 62 0;
#X connect 62 0 63 0;
#X connect 63 0 23 0;
#X connect 64 0 58 0;
#X connect 65 0 73 0;
#X connect 65 0 74 1;
#X connect 66 0 74 0;
#X connect 67 0 68 1;
#X connect 67 1 68 0;
#X connect 68 0 69 0;
#X connect 69 0 71 1;
#X connect 70 0 67 0;
#X connect 71 0 109 0;
#X connect 72 0 71 0;
#X connect 73 0 66 1;
#X connect 74 0 75 0;
#X connect 75 0 72 0;
#X connect 75 1 70 0;
#X connect 77 0 76 0;
#X connect 78 0 85 1;
#X connect 78 0 86 0;
#X connect 79 0 85 0;
#X connect 80 0 81 1;
#X connect 80 1 81 0;
#X connect 81 0 82 0;
#X connect 82 0 84 1;
#X connect 83 0 80 0;
#X connect 84 0 110 0;
#X connect 85 0 87 0;
#X connect 86 0 79 1;
#X connect 87 0 88 0;
#X connect 87 1 83 0;
#X connect 88 0 89 0;
#X connect 89 0 84 0;
#X connect 90 0 91 1;
#X connect 91 0 62 0;
#X connect 92 0 27 1;
#X connect 92 0 28 1;
#X connect 92 0 104 0;
#X connect 93 0 40 1;
#X connect 93 0 41 1;
#X connect 94 0 51 1;
#X connect 94 0 50 1;
#X connect 95 0 70 1;
#X connect 95 0 69 1;
#X connect 96 0 83 1;
#X connect 96 0 82 1;
#X connect 97 0 98 0;
#X connect 97 1 105 0;
#X connect 98 0 103 0;
#X connect 99 0 98 1;
#X connect 100 0 102 0;
#X connect 101 0 100 0;
#X connect 102 0 26 0;
#X connect 103 0 2 0;
#X connect 105 0 99 0;
#X connect 106 0 97 0;
#X connect 107 0 106 0;
#X connect 108 0 43 1;
#X connect 109 0 77 1;
#X connect 110 0 90 0;
#X restore 174 112 pd notes;
#N canvas 2 23 1278 751 instruments 0;
#X text 65 640 frl.;
#X text 65 730 voc.;
#X text 65 826 sng.;
#X text 99 755 vocal (a \, e \, i \, o \, u) formed with the mouth
from high to low. Note: the vocal must NOT be sung (see 'sng.') \,
it must be used to change the spectrum of the resulting pitch.;
#X text 97 675 frullato \, fluttertongue \, or 'growl' when convenient
\, if the acoustic result is equivalent;
#X text 95 852 sing a pitch according to High \, Medium \, and Low
lines in the staff.;
#X text 30 595 BASS_FLUTE and TRUMPET:;
#X text 691 153 mpc.;
#X text 723 182 Cover the mouthpiece with your mouth. The thicker the
line \, the more covered the mouthpiece (MouthPiece Coverage).;
#X text 693 295 sord.;
#X text 725 324 Use a sordina (unspecified) to cover the bell. The
thicker the line \, the more covered the bell.;
#X text 72 323 PITCH:;
#X text 68 139 DYNAMICS (DYN):;
#X text 108 170 All players have a dynamic line that needs to be relative
to the whole ensemble.;
#X text 64 36 This is a live-generated score for Bass Flute \, Trumpet
in Bb \, and Viola. All players have their own screen which displays
their score., f 135;
#X text 69 217 RHYTHM:;
#X text 31 501 Each player has up to 6 lines to read in real-time \,
in which different idiomatic elements of the instrument are controlled
separatedly. In what follows \, there is a more specific description
for each player.;
#X text 110 356 Each player has a traditional pitch staff in which
each pitch needs to be read relatively to the notehead position and
the lines. Between staff-lines there are up to 8 positions \, meaning
that the tone must be divided in eighths. Extreme pitch accuracy is
not demanded \, but it is encouraged.;
#X text 106 252 Each page lasts approximately 30 seconds \, and there
is a line that follows the score at the correct speed. Extreme rhythmic
accuracy is not demanded \, but it is encouraged.;
#X text 659 258 TRUMPET:;
#X text 657 116 BASS_FLUTE:;
#X text 663 405 VIOLA:;
#X text 30 109 ALL PLAYERS:;
#X text 691 438 XY;
#X text 687 595 ROT;
#X text 722 613 +0 +90 +180: This is the bow rotation \, or the angle
against the viola \, and it goes from 0 (punta facing player) to 180
(punta facing tastiera) and all that is in between.;
#X text 722 681 THICKNESS OF THE LINE: This is the bow inclination
\, or the angle of rotation against its own axis \, and it goes from
'thin' line (like col legno tratto) to 'thick' line (like col legno
battuto). This is meant for bowing \, not stricking.;
#X text 691 763 L.H.;
#X text 725 788 This is the Left Hand finger(s) pressure on strings.
It goes from almost nothing (thin line) to normal pressure (thick line).
'Almost nothing' is like an harmonics position but less.;
#X text 725 528 Y (frog \, punta): This is the vertical bow position
across the viola \, and it goes from 'punta' to 'frog' and all that
is in between.;
#X text 723 473 X (MSP \, SP \, ORD \, ST \, MST): This is the horizontal
bow position across the viola \, and it goes from MSP (Molto Sul Pont)
to MST (Molto Sul Tasto) and all that is in between.;
#X restore 20 158 pd instruments;
#X msg 266 74 \; pd-score clear \, vis 0;
#N canvas 720 477 507 300 send 0;
#X msg 43 20 \; init 4 \; title BASS_FLUTE \; load-sizes bang \; listen
5001 \; fill bang \;;
#X msg 183 20 \; init 5 \; title TRUMPET \; load-sizes bang \; listen
5002 \; fill bang \;;
#X msg 323 20 \; init 6 \; title VIOLA \; load-sizes bang \; listen
5003 \; fill bang \;;
#X msg 32 155 \; pd-score print ../output/test-0/BASS_FLUTE-0.ps \,
write ../output/test-0/BASS_FLUTE-0.txt;
#X msg 91 215 10;
#X obj 91 240 fd_iterate;
#X connect 4 0 5 0;
#X restore 20 135 pd send message;
#N canvas 0 23 450 300 netreceive 0;
#X obj 74 86 netreceive;
#X obj 74 12 r listen;
#X msg 74 36 listen \$1;
#X obj 74 110 s from-netsend;
#X connect 0 0 3 0;
#X connect 1 0 2 0;
#X connect 2 0 0 0;
#X restore 197 20 pd netreceive;
#N canvas 495 128 785 627 sketch 0;
#X obj 216 244 list;
#X msg 315 285 \; pd-score clear \; init \$1 \; title \$2 \; load-sizes
bang \; fill bang \;;
#X obj 220 275 t b a a;
#X obj 218 412 list;
#X msg 64 214 4 BASS_FLUTE;
#X msg 178 214 5 TRUMPET;
#X msg 279 212 6 VIOLA;
#X obj 114 71 f;
#X obj 152 72 + 1;
#X obj 186 74 moses 10;
#X obj 179 100 t b f;
#X obj 80 33 bng 15 250 50 0 empty empty empty 17 7 0 10 -262144 -1
-1;
#X obj 218 352 del 200;
#X msg 197 39 0, f 2;
#X obj 210 525 del 2000;
#X obj 154 137 f;
#X obj 191 137 + 1;
#X obj 230 137 mod 4;
#X obj 155 167 sel 0 1 2 3;
#X obj 212 437 t a a;
#X obj 385 172 ggee/getdir;
#X obj 213 550 list;
#X obj 218 376 symbol;
#X obj 115 32 t b b b;
#X obj 8 166 del 2000;
#X obj 41 125 del 100;
#X obj 313 82 print done;
#X obj 18 100 spigot 1;
#X obj 17 5 tgl 15 0 empty empty empty 17 7 0 10 -262144 -1 -1 0 1
;
#X obj 17 25 t f f;
#X obj 17 49 sel 1;
#X msg 208 475 bang \; pd-score vis 1 \, print \$1/../output/test-0/\$3-\$4.ps
;
#X msg 215 576 bang \; pd-score write \$1/../output/test-0/\$3-\$4.txt
\, vis 0 \;;
#X obj 299 40 t b b;
#X msg 109 99 0;
#X connect 0 0 2 0;
#X connect 2 0 12 0;
#X connect 2 1 3 1;
#X connect 2 2 1 0;
#X connect 3 0 19 0;
#X connect 4 0 0 0;
#X connect 5 0 0 0;
#X connect 6 0 0 0;
#X connect 7 0 8 0;
#X connect 8 0 9 0;
#X connect 9 0 7 1;
#X connect 9 0 10 0;
#X connect 9 1 33 0;
#X connect 10 0 15 0;
#X connect 10 1 0 1;
#X connect 11 0 23 0;
#X connect 12 0 22 0;
#X connect 13 0 7 1;
#X connect 14 0 21 0;
#X connect 15 0 16 0;
#X connect 15 0 18 0;
#X connect 16 0 17 0;
#X connect 17 0 15 1;
#X connect 18 0 4 0;
#X connect 18 1 5 0;
#X connect 18 2 6 0;
#X connect 18 3 25 0;
#X connect 19 0 31 0;
#X connect 19 1 21 1;
#X connect 20 0 22 1;
#X connect 21 0 32 0;
#X connect 22 0 3 0;
#X connect 23 0 7 0;
#X connect 23 1 20 0;
#X connect 23 2 13 0;
#X connect 24 0 15 0;
#X connect 25 0 27 0;
#X connect 27 0 7 0;
#X connect 28 0 29 0;
#X connect 29 0 30 0;
#X connect 29 1 27 1;
#X connect 30 0 11 0;
#X connect 31 0 14 0;
#X connect 32 0 24 0;
#X connect 33 0 26 0;
#X connect 33 1 34 0;
#X connect 34 0 28 0;
#X restore 14 196 pd sketch;
#N canvas 635 295 507 384 get 1;
#X msg 17 274 0 \, 1000 30000;
#X obj 17 298 line;
#X obj 23 42 tgl 15 0 empty empty empty 17 7 0 10 -262144 -1 -1 0 1
;
#X obj 11 190 metro 30000;
#X obj 11 214 t b b;
#X obj 346 290 sel;
#X obj 346 314 counter;
#X obj 346 338 moses 3;
#X msg 328 264 0;
#X obj 17 322 s timeline;
#X obj 346 362 sel 0 1 2;
#X msg 346 386 BASS_FLUTE;
#X obj 346 410 symbol;
#X obj 114 431 list;
#X msg 397 410 TRUMPET;
#X msg 426 385 VIOLA;
#X msg 146 12 0;
#X msg 50 45 stop;
#X msg 55 465 \; pd-score clear \, read ../output/test-0/\$2-\$1.txt
\, vis 1 \; init-timeline bang \; pd-score obj 20 30 cnv 20 20 10 title
title-set \$2 0 10 0 20 0 12 0 \, obj 1050 30 cnv 20 40 30 pagenum
pagenum-set *\$1* 5 15 0 16 6 12 0 \;;
#X obj 166 395 r instrument;
#X obj 166 419 symbol;
#X obj 9 12 r start;
#X obj 173 285 moses 10;
#X obj 173 263 counter;
#X obj 235 366 s pd;
#X msg 235 335 quit;
#X obj 259 274 t b b;
#X obj 246 307 del 100;
#X obj 151 345 + 1;
#X msg 68 8 0;
#X msg 99 8 1;
#X msg 182 10 1;
#X msg 213 11 2;
#X obj 154 44 t f f;
#X msg 253 11 3;
#X msg 293 11 4;
#X obj 10 244 f 30000;
#X msg 85 117 30;
#X msg 112 147 20;
#X msg 141 113 40;
#X obj 113 192 * 1000;
#X connect 0 0 1 0;
#X connect 1 0 9 0;
#X connect 2 0 3 0;
#X connect 3 0 4 0;
#X connect 4 0 36 0;
#X connect 4 1 23 0;
#X connect 5 0 6 0;
#X connect 6 0 7 0;
#X connect 7 0 10 0;
#X connect 7 1 8 0;
#X connect 8 0 2 0;
#X connect 10 0 11 0;
#X connect 10 1 14 0;
#X connect 10 2 15 0;
#X connect 11 0 12 0;
#X connect 13 0 18 0;
#X connect 14 0 12 0;
#X connect 15 0 12 0;
#X connect 16 0 33 0;
#X connect 17 0 1 0;
#X connect 19 0 20 0;
#X connect 20 0 13 1;
#X connect 21 0 2 0;
#X connect 22 0 28 0;
#X connect 22 1 26 0;
#X connect 23 0 22 0;
#X connect 26 0 27 0;
#X connect 26 1 8 0;
#X connect 27 0 25 0;
#X connect 28 0 13 0;
#X connect 29 0 17 0;
#X connect 29 0 2 0;
#X connect 30 0 2 0;
#X connect 31 0 33 0;
#X connect 32 0 33 0;
#X connect 33 0 23 0;
#X connect 33 1 6 0;
#X connect 34 0 33 0;
#X connect 35 0 33 0;
#X connect 36 0 0 0;
#X connect 37 0 40 0;
#X connect 38 0 40 0;
#X connect 39 0 40 0;
#X connect 40 0 3 1;
#X connect 40 0 36 1;
#X restore 87 196 pd get sketch;
#N canvas 23 343 450 300 setbounds 0;
#X msg 19 81 \; pd-score vis 0 \, setbounds 525 0 1700 380 \, vis 1
;
#X msg 36 131 \; pd-score vis 0 \, setbounds 525 410 1700 790 \, vis
1;
#X msg 54 181 \; pd-score vis 0 \, setbounds 525 800 1700 1180 \, vis
1;
#X obj 29 9 r instrument;
#X obj 27 57 sel BASS_FLUTE TRUMPET VIOLA;
#X obj 29 33 symbol;
#X connect 3 0 5 0;
#X connect 4 0 0 0;
#X connect 4 1 1 0;
#X connect 4 2 2 0;
#X connect 5 0 4 0;
#X restore 31 226 pd setbounds;
#X msg 261 118 \; instrument BASS_FLUTE \; start 1 \;;
#X msg 261 178 \; instrument VIOLA \; start 1 \;;
#X obj 301 21 declare -path ./lib;
