#N struct timeline-struct float x float y float tv float tc float t
float h;
#N struct texts float x float y symbol tempo float tempo-vis float
tempo-x symbol ntempo float ntempo-vis float ntempo-x;
#N struct template float x float y float w float h float t float tc
float gclef float cclef float tv array a0 a0-e symbol s0 float s0v
float y0 float a0c float a0v float a0v-l array a1 a1-e symbol s1 float
s1v float y1 float a1c float a1v float a1v-l symbol s1l0 symbol s1l1
symbol s1l2 float s1l0v float s1l1v float s1l2v array a2 a2-e symbol
s2 float s2v float y2 float a2c float a2v float a2v-l symbol s2l0 symbol
s2l1 symbol s2l2 float s2l0v float s2l1v float s2l2v array a3 a3-e
symbol s3 float s3v float y3 float a3c float a3v float a3v-l array
a4 a4-e symbol s4 float s4v float y4 float a4c float a4v float a4v-l
array a5 a5-e symbol s5 float s5v float y5 float a5c float a5v float
a5v-l;
#N struct a0-e float x float y float w symbol bowx float bowxv float
bowxX float bowxY;
#N struct a1-e float x float y float w;
#N struct a2-e float x float y float w;
#N struct a3-e float x float y float w;
#N struct a4-e float x float y float c float v;
#N struct a5-e float x float y float w;
#N canvas 265 624 181 269 12;
#X declare -path ./lib;
#N canvas 2 23 1278 751 instructions 0;
#X text 65 640 frl.;
#X text 65 730 voc.;
#X text 65 826 sng.;
#X text 99 755 vocal (a \, e \, i \, o \, u) formed with the mouth
from high to low. Note: the vocal must NOT be sung (see 'sng.') \,
it must be used to change the spectrum of the resulting pitch.;
#X text 97 675 frullato \, fluttertongue \, or 'growl' when convenient
\, if the acoustic result is equivalent;
#X text 95 852 sing a pitch according to High \, Medium \, and Low
lines in the staff.;
#X text 30 595 BASS_FLUTE and TRUMPET:;
#X text 691 153 mpc.;
#X text 723 182 Cover the mouthpiece with your mouth. The thicker the
line \, the more covered the mouthpiece (MouthPiece Coverage).;
#X text 693 295 sord.;
#X text 725 324 Use a sordina (unspecified) to cover the bell. The
thicker the line \, the more covered the bell.;
#X text 72 323 PITCH:;
#X text 68 139 DYNAMICS (DYN):;
#X text 108 170 All players have a dynamic line that needs to be relative
to the whole ensemble.;
#X text 64 36 This is a live-generated score for Bass Flute \, Trumpet
in Bb \, and Viola. All players have their own screen which displays
their score., f 135;
#X text 69 217 RHYTHM:;
#X text 31 501 Each player has up to 6 lines to read in real-time \,
in which different idiomatic elements of the instrument are controlled
separatedly. In what follows \, there is a more specific description
for each player.;
#X text 110 356 Each player has a traditional pitch staff in which
each pitch needs to be read relatively to the notehead position and
the lines. Between staff-lines there are up to 8 positions \, meaning
that the tone must be divided in eighths. Extreme pitch accuracy is
not demanded \, but it is encouraged.;
#X text 106 252 Each page lasts approximately 30 seconds \, and there
is a line that follows the score at the correct speed. Extreme rhythmic
accuracy is not demanded \, but it is encouraged.;
#X text 659 258 TRUMPET:;
#X text 657 116 BASS_FLUTE:;
#X text 663 405 VIOLA:;
#X text 30 109 ALL PLAYERS:;
#X text 691 438 XY;
#X text 687 595 ROT;
#X text 722 613 +0 +90 +180: This is the bow rotation \, or the angle
against the viola \, and it goes from 0 (punta facing player) to 180
(punta facing tastiera) and all that is in between.;
#X text 722 681 THICKNESS OF THE LINE: This is the bow inclination
\, or the angle of rotation against its own axis \, and it goes from
'thin' line (like col legno tratto) to 'thick' line (like col legno
battuto). This is meant for bowing \, not stricking.;
#X text 691 763 L.H.;
#X text 725 788 This is the Left Hand finger(s) pressure on strings.
It goes from almost nothing (thin line) to normal pressure (thick line).
'Almost nothing' is like an harmonics position but less.;
#X text 725 528 Y (frog \, punta): This is the vertical bow position
across the viola \, and it goes from 'punta' to 'frog' and all that
is in between.;
#X text 723 473 X (MSP \, SP \, ORD \, ST \, MST): This is the horizontal
bow position across the viola \, and it goes from MSP (Molto Sul Pont)
to MST (Molto Sul Tasto) and all that is in between.;
#X restore 13 36 pd instructions _____;
#N canvas 514 787 1026 238 controls 0;
#X obj 609 38 fd_key;
#X obj 213 148 bng 30 250 50 0 fill fill-set fill 35 15 0 12 -204786
-1 -1;
#N canvas 0 23 581 345 (subpatch) 0;
#X obj 448 104 tgl 15 0 preset-vis preset-vis-set vis 17 7 0 10 -204800
-1 -1 0 1;
#X obj 104 104 bng 15 250 50 0 get-pointer get-pointer-set get-pointer
17 7 0 10 -204800 -1 -1;
#X obj 104 124 bng 15 250 50 0 update-changes update-changes-set update-changes
17 7 0 10 -204786 -13381 -1;
#X obj 335 104 bng 15 250 50 0 update-preset update-preset-set update-preset
17 7 0 10 -261682 -13381 -1;
#X obj 208 124 hradio 15 1 0 8 load-preset load-preset-set load-preset
0 -8 0 10 -262130 -1 -1 5;
#X obj 335 124 bng 15 250 50 0 overwrite-preset overwrite-preset-set
overwrite 17 7 0 10 -258113 -1 -1;
#X obj 104 155 hradio 15 1 0 8 get-sizes get-sizes-set get-sizes 0
-8 0 10 -262144 -1 -1 0;
#X obj 239 155 tgl 15 0 sizes-vis sizes-vis-set sizes-vis 17 7 0 10
-262144 -1 -1 0 1;
#X obj 329 154 tgl 15 0 titled titled-set titled 17 7 0 10 -262144
-1 -1 1 1;
#X coords 0 -1 1 1 389 94 2 100 100;
#X restore 213 38 pd;
#N canvas 0 23 450 300 (subpatch) 0;
#X obj 102 102 cnv 15 181 67 empty empty empty 20 12 0 14 -262130 -66577
0;
#X obj 105 151 nbx 3 14 0 1e+37 0 0 x-mgn x-mgn-set x-mgn 0 -8 0 10
-262144 -1 -1 80 256;
#X obj 145 151 nbx 3 14 0 1e+37 0 0 y-mgn y-mgn-set y-mgn 0 -8 0 10
-262144 -1 -1 55 256;
#X obj 185 151 nbx 4 14 0 1e+37 0 0 width width-set width 0 -8 0 10
-262144 -1 -1 1000 256;
#X obj 234 151 nbx 4 14 0 1e+37 0 0 height height-set height 0 -8 0
10 -262144 -1 -1 300 256;
#X obj 104 115 hradio 15 1 0 4 layout layout-set layout 0 -8 0 10 -262144
-1 -1 3;
#X obj 199 114 tgl 15 0 layout-vis layout-vis-set layout-vis 17 7 0
10 -262144 -1 -1 0 1;
#X coords 0 -1 1 1 185 71 2 100 100;
#X restore 23 43 pd;
#X obj 23 176 tgl 30 0 score-vis score-vis-set score-vis 35 15 0 12
-232576 -1 -1 1 1;
#X obj 241 12 bng 15 250 50 0 4-bass_flute 4-bass_flute-set 4-bass_flute
17 7 0 10 -262144 -1 -1;
#X obj 365 12 bng 15 250 50 0 5-trumpet 5-trumpet-set 5-trumpet 17
7 0 10 -262144 -1 -1;
#X obj 472 12 bng 15 250 50 0 6-viola 6-viola-set 6-viola 17 7 0 10
-262144 -1 -1;
#X obj 23 130 tgl 30 0 line-pos line-pos-set line-pos 35 15 0 12 -262130
-1 -1 0 1;
#X obj 23 12 tgl 15 0 guts guts-set guts 17 7 0 10 -262144 -1 -1 0
1;
#X obj 213 194 bng 15 250 50 0 isorhythms isorhythms-set isorhythms
17 7 0 10 -262144 -1 -1;
#N canvas 0 23 450 300 (subpatch) 0;
#X obj 105 125 nbx 5 30 -1e+37 1e+37 0 0 page-dur page-dur-set page-dur
0 -15 0 15 -262144 -1 -1 26152.6 256;
#X obj 105 205 nbx 5 14 -1e+37 1e+37 0 0 tempo tempo-set tempo 0 -8
0 10 -262144 -1 -1 1 256;
#X obj 171 204 nbx 5 14 -1e+37 1e+37 0 0 ntempo ntempo-set ntempo 0
-8 0 10 -262144 -1 -1 27 256;
#X obj 105 173 nbx 5 14 -1e+37 1e+37 0 0 maketempo-min maketempo-min-set
min 0 -8 0 10 -262144 -1 -1 20000 256;
#X obj 171 172 nbx 5 14 -1e+37 1e+37 0 0 maketempo-max maketempo-max-set
max 0 -8 0 10 -262144 -1 -1 40000 256;
#X coords 0 -1 1 1 139 126 2 100 100;
#X restore 857 38 pd;
#N canvas 0 23 450 300 (subpatch) 0;
#X obj 104 105 tgl 30 0 play play-set play 35 15 0 12 -204786 -1 -1
1 1;
#X obj 105 139 bng 15 250 50 0 reset reset-set reset 15 7 0 10 -261234
-1 -1;
#X coords 0 -1 1 1 85 60 2 100 100;
#X restore 609 150 pd;
#X obj 413 146 tgl 30 0 print-and-save print-and-save-set print-and-save
35 15 0 12 -204786 -1 -1 0 1;
#X obj 125 184 bng 15 250 50 0 clear-score clear-score-set clear-score
17 7 0 10 -261234 -1 -1;
#X obj 950 10 bng 15 250 50 0 quit quit-set quit 17 7 0 10 -258113
-1 -1;
#X obj 78 21 hradio 15 1 0 3 listen-port listen-port-set listen-port
0 -8 0 10 -262144 -1 -1 0;
#X obj 143 20 bng 15 250 50 0 listen-0 listen-0-set listen-0 17 7 0
10 -262144 -1 -1;
#X obj 711 171 nbx 5 20 -1e+37 1e+37 0 0 limit limit-set limit 0 -8
0 14 -262144 -1 -1 20 256;
#X obj 332 149 tgl 15 0 autoplay autoplay-set autoplay 17 7 0 10 -262144
-1 -1 0 1;
#X restore 13 59 pd controls _________;
#N canvas 19 474 450 300 guts 0;
#X obj 18 15 declare -path ./lib;
#N canvas 636 240 450 300 - 0;
#X obj 23 102 netreceive;
#X obj 23 16 r listen;
#X msg 23 78 listen \$1;
#X obj 23 40 t a a;
#X obj 23 151 t a a;
#X obj 121 188 list split 1;
#X obj 23 188 list split 1;
#X obj 63 263 s;
#X obj 115 73 print listening;
#X obj 121 212 list trim;
#X obj 121 236 symbol;
#X obj 41 216 list trim;
#X connect 0 0 4 0;
#X connect 1 0 3 0;
#X connect 2 0 0 0;
#X connect 3 0 2 0;
#X connect 3 1 8 0;
#X connect 4 0 6 0;
#X connect 4 1 5 0;
#X connect 5 0 9 0;
#X connect 6 1 11 0;
#X connect 9 0 10 0;
#X connect 10 0 7 1;
#X connect 11 0 7 0;
#X restore 18 44 pd - netreceive;
#N canvas 0 23 450 300 - 0;
#N canvas 525 363 1125 340 score 1;
#X scalar timeline-struct 80 55 1 0 1000 300 \;;
#X scalar texts 80 15 1'' 0 450 ...27'' 0 930 \;;
#X scalar template 80 55 1000 300 0 0 1 0 0 frl. 1 23 9 1 0 voc. 1
61 0 1 1 symbol symbol symbol 0 0 0 sng. 1 102 900 1 1 symbol symbol
symbol 0 0 0 sord. 1 147 38 1 0 trp 1 199 0 1 0 dyn. 1 263 0 1 0 \;
0 0 0 symbol 0 0 0 \; 37.037 0 0 symbol 0 0 0 \; 74.0741 0 2 symbol
0 0 0 \; 111.111 0 0 symbol 0 0 0 \; 148.148 0 0 symbol 0 0 0 \; 185.185
0 9 symbol 0 0 0 \; 222.222 0 0 symbol 0 0 0 \; 259.259 0 4 symbol
0 0 0 \; 296.296 0 0 symbol 0 0 0 \; 333.333 0 0 symbol 0 0 0 \; 370.37
0 0 symbol 0 0 0 \; 407.407 0 0 symbol 0 0 0 \; 444.444 0 0 symbol
0 0 0 \; 481.481 0 0 symbol 0 0 0 \; 518.518 0 0 symbol 0 0 0 \; 555.556
0 0 symbol 0 0 0 \; 592.593 0 0 symbol 0 0 0 \; 629.63 0 0 symbol 0
0 0 \; 666.667 0 0 symbol 0 0 0 \; 703.704 0 4 symbol 0 0 0 \; 740.741
0 0 symbol 0 0 0 \; 777.778 0 0 symbol 0 0 0 \; 814.815 0 0 symbol
0 0 0 \; 851.852 0 0 symbol 0 0 0 \; 888.889 0 0 symbol 0 0 0 \; 925.926
0 0 symbol 0 0 0 \; 962.963 0 0 symbol 0 0 0 \; \; 0 0 0 \; 37.037
0 0 \; 74.0741 5 0 \; 111.111 0 0 \; 148.148 0 0 \; 185.185 -2 0 \;
222.222 0 0 \; 259.259 -5 0 \; 296.296 0 0 \; 333.333 0 0 \; 370.37
0 0 \; 407.407 0 0 \; 444.444 0 0 \; 481.481 0 0 \; 518.518 0 0 \;
555.556 -6 0 \; 592.593 0 0 \; 629.63 0 0 \; 666.667 0 0 \; 703.704
7 0 \; 740.741 0 0 \; 777.778 0 0 \; 814.815 0 0 \; 851.852 0 0 \;
888.889 0 0 \; 925.926 0 0 \; 962.963 0 0 \; \; 0 0 0 \; 37.037 0 0
\; 74.0741 1 0 \; 111.111 0 0 \; 148.148 0 0 \; 185.185 1 0 \; 222.222
0 0 \; 259.259 -5 0 \; 296.296 0 0 \; 333.333 0 0 \; 370.37 0 0 \;
407.407 0 0 \; 444.444 0 0 \; 481.481 0 0 \; 518.518 0 0 \; 555.556
7 0 \; 592.593 0 0 \; 629.63 0 0 \; 666.667 0 0 \; 703.704 3 0 \; 740.741
0 0 \; 777.778 0 0 \; 814.815 0 0 \; 851.852 0 0 \; 888.889 0 0 \;
925.926 0 0 \; 962.963 0 0 \; \; 0 0 0 \; 37.037 0 0 \; 74.0741 0 2
\; 111.111 0 0 \; 148.148 0 0 \; 185.185 0 2 \; 222.222 0 0 \; 259.259
0 5 \; 296.296 0 0 \; 333.333 0 0 \; 370.37 0 0 \; 407.407 0 0 \; 444.444
0 0 \; 481.481 0 0 \; 518.518 0 0 \; 555.556 0 7 \; 592.593 0 0 \;
629.63 0 0 \; 666.667 0 0 \; 703.704 0 7 \; 740.741 0 0 \; 777.778
0 0 \; 814.815 0 0 \; 851.852 0 0 \; 888.889 0 0 \; 925.926 0 0 \;
962.963 0 0 \; \; 0 0 0 0 \; 37.037 16 0 1 \; 74.0741 0 0 0 \; 111.111
0 0 0 \; 148.148 3 0 1 \; 185.185 0 0 0 \; 222.222 16 0 1 \; 259.259
0 0 0 \; 296.296 0 0 0 \; 333.333 0 0 0 \; 370.37 0 0 0 \; 407.407
0 0 0 \; 444.444 0 0 0 \; 481.481 0 0 0 \; 518.518 -10 0 1 \; 555.556
0 0 0 \; 592.593 0 0 0 \; 629.63 0 0 0 \; 666.667 19 0 1 \; 703.704
0 0 0 \; 740.741 0 0 0 \; 777.778 0 0 0 \; 814.815 0 0 0 \; 851.852
0 0 0 \; 888.889 0 0 0 \; 925.926 0 0 0 \; 0 0 0 0 \; \; 0 0 0 \; 37.037
0 0 \; 74.0741 0 9 \; 111.111 0 0 \; 148.148 0 0 \; 185.185 0 8 \;
222.222 0 0 \; 259.259 0 0 \; 296.296 0 0 \; 333.333 0 0 \; 370.37
0 0 \; 407.407 0 0 \; 444.444 0 0 \; 481.481 0 0 \; 518.518 0 0 \;
555.556 0 4 \; 592.593 0 0 \; 629.63 0 0 \; 666.667 0 0 \; 703.704
0 7 \; 740.741 0 0 \; 777.778 0 0 \; 814.815 0 0 \; 851.852 0 0 \;
888.889 0 0 \; 925.926 0 0 \; 962.963 0 0 \; \;;
#X obj 20 30 cnv 20 20 10 title title-set TRUMPET 0 10 0 20 -262144
-33289 0;
#X restore 32 28 pd score;
#N canvas 172 23 1065 751 - 0;
#X text 20 10 ///////// THE STRUCTURE ///////////////////////////////
;
#X text 20 234 ///////// THE PLOTS ///////////////////////////////////
;
#X obj 51 811 drawpolygon 0 1 0 y4(0:1000)(-8:992) w y4(0:1000)(-8:992)
;
#X obj 51 851 drawpolygon 0 1 0 y4(0:1000)(8:1008) w y4(0:1000)(8:1008)
;
#X obj 51 871 drawpolygon 0 1 0 y4(0:1000)(16:1016) w y4(0:1000)(16:1016)
;
#X obj 51 831 drawpolygon 0 1 0 y4 w y4;
#X obj 51 791 drawpolygon 0 1 0 y4(0:1000)(-16:984) w y4(0:1000)(-16:984)
;
#X obj 22 213 s template-clicks;
#X obj 42 274 plot -v a0v a0 a0c 0 20 y0;
#X obj 40 331 plot -v a1v a1 a1c 0 20 y1;
#X obj 40 467 plot -v a2v curve a2 a2c 0 20 y2;
#X obj 41 615 plot -v a3v a3 a3c 0 20 y3;
#X obj 39 973 plot -v a5v a5 a5c 0 20 y5;
#X obj 41 771 plot -v a4v a4 a4c 0 20 y4;
#X obj 22 254 drawsymbol -v s0v s0 x(0:1000)(-70:0) y0(0:1000)(-10:990)
0;
#X obj 20 311 drawsymbol -v s1v s1 x(0:1000)(-70:0) y1(0:1000)(-10:990)
0;
#X obj 20 448 drawsymbol -v s2v s2 x(0:1000)(-70:0) y2(0:1000)(-10:990)
0;
#X obj 21 595 drawsymbol -v s3v s3 x(0:1000)(-70:0) y3(0:1000)(-10:990)
0;
#X obj 22 751 drawsymbol -v s4v s4 x(0:1000)(-70:0) y4(0:1000)(-10:990)
0;
#X obj 20 953 drawsymbol -v s5v s5 x(0:1000)(-70:0) y5(0:1000)(-10:990)
0;
#X obj 419 347 drawsymbol -v s1l0v s1l0 x(0:1000)(-35:0) y1(0:1000)(-16:984)
333;
#X obj 420 383 drawsymbol -v s1l1v s1l1 x(0:1000)(-35:0) y1 333;
#X obj 420 404 drawsymbol -v s1l2v s1l2 x(0:1000)(-35:0) y1(0:1000)(16:1016)
333;
#X obj 418 488 drawsymbol -v s2l0v s2l0 x(0:1000)(-35:0) y2(0:1000)(-16:984)
333;
#X obj 419 524 drawsymbol -v s2l1v s2l1 x(0:1000)(-35:0) y2 333;
#X obj 418 545 drawsymbol -v s2l2v s2l2 x(0:1000)(-35:0) y2(0:1000)(16:1016)
333;
#X obj 572 666 drawpolygon -v gclef 0 1 5 y4(0:1000)(-16:982) 5 y4(0:1000)(16:1016)
;
#X obj 572 702 drawcurve -v gclef 0 1 0 y4(0:1000)(16:1016) 0 y4 10
y4 10 y4(0:1000)(16:1016) 0 y4(0:1000)(16:1016);
#X obj 571 776 drawpolygon -v cclef 0 1 0 y4(0:1000)(-16:984) 0 y4(0:1000)(16:1016)
;
#X obj 570 817 drawpolygon -v cclef 0 1 3 y4(0:1000)(-16:984) 3 y4(0:1000)(16:1016)
;
#X obj 570 913 drawcurve -v cclef 0 1 3 y4(0:1000)(3:1003) 5 y4(0:1000)(3:1003)
10 y4(0:1000)(8:1008) 8 y4(0:1000)(16:1016);
#X obj 570 857 drawcurve -v cclef 0 1 3 y4(0:1000)(-3:997) 5 y4(0:1000)(-3:997)
10 y4(0:1000)(-8:992) 8 y4(0:1000)(-16:984);
#X text 565 628 ///////// THE GCLEF ///////////////////////////////////
;
#X text 558 748 ///////// THE CCLEF ///////////////////////////////////
;
#N canvas 224 287 525 303 - 0;
#X obj 18 19 struct a0-e float x float y float w symbol bowx float
bowxv float bowxX float bowxY;
#X obj 71 83 drawsymbol -v bowxv bowx bowxX bowxY;
#X restore 509 31 pd - a0-e;
#N canvas 500 400 450 300 - 0;
#X obj 40 40 struct a1-e float x float y float w;
#X restore 509 51 pd - a1-e;
#N canvas 191 434 450 300 - 0;
#X obj 40 40 struct a2-e float x float y float w;
#X restore 509 71 pd - a2-e;
#N canvas 500 400 450 300 - 0;
#X obj 40 40 struct a3-e float x float y float w;
#X restore 509 91 pd - a3-e;
#N canvas 500 400 450 300 - 0;
#X obj 40 40 struct a4-e float x float y float c float v;
#X obj 40 70 filledcurve -v v c c 1 -2 -2 -2 2 2 2 2 -2;
#X restore 509 111 pd - a4-e;
#N canvas 500 400 450 300 - 0;
#X obj 39 42 struct a5-e float x float y float w;
#X restore 509 131 pd - a5-e;
#X obj 22 30 struct template float x float y float w float h float
t float tc float gclef float cclef float tv array a0 a0-e symbol s0
float s0v float y0 float a0c float a0v float a0v-l array a1 a1-e symbol
s1 float s1v float y1 float a1c float a1v float a1v-l symbol s1l0 symbol
s1l1 symbol s1l2 float s1l0v float s1l1v float s1l2v array a2 a2-e
symbol s2 float s2v float y2 float a2c float a2v float a2v-l symbol
s2l0 symbol s2l1 symbol s2l2 float s2l0v float s2l1v float s2l2v array
a3 a3-e symbol s3 float s3v float y3 float a3c float a3v float a3v-l
array a4 a4-e symbol s4 float s4v float y4 float a4c float a4v float
a4v-l array a5 a5-e symbol s5 float s5v float y5 float a5c float a5v
float a5v-l;
#X obj 50 634 drawpolygon -v a3v-l 0 1 0 y3(0:1000)(-8:992) w y3(0:1000)(-8:992)
;
#X obj 50 666 drawpolygon -v a3v-l 0 1 0 y3 w y3;
#X obj 50 686 drawpolygon -v a3v-l 0 1 0 y3(0:1000)(8:1008) w y3(0:1000)(8:1008)
;
#X obj 50 351 drawpolygon -v a1v-l 0 1 0 y1(0:1000)(-8:992) w y1(0:1000)(-8:992)
;
#X obj 50 384 drawpolygon -v a1v-l 0 1 0 y1 w y1;
#X obj 50 404 drawpolygon -v a1v-l 0 1 0 y1(0:1000)(8:1008) w y1(0:1000)(8:1008)
;
#X obj 50 487 drawpolygon -v a2v-l 0 1 0 y2(0:1000)(-8:992) w y2(0:1000)(-8:992)
;
#X obj 50 519 drawpolygon -v a2v-l 0 1 0 y2 w y2;
#X obj 50 539 drawpolygon -v a2v-l 0 1 0 y2(0:1000)(8:1008) w y2(0:1000)(8:1008)
;
#X connect 40 0 7 0;
#X restore 32 73 pd - structure;
#N canvas 0 23 505 318 - 0;
#X text 18 54 ///////// THE TIMELINE ///////////////////////////////////
;
#X obj 22 78 drawpolygon -v tv tc 1 t(0:1000)(0:1000) 0 t(0:1000)(0:1000)
h;
#X obj 27 119 drawpolygon -v tv tc 10 t(0:1000)(-2:998) 2 t(0:1000)(2:1002)
2;
#X obj 21 13 struct timeline-struct float x float y float tv float
tc float t float h;
#X restore 32 116 pd - timeline;
#X obj 31 205 r timeline;
#X obj 126 205 r timeline-struct-p;
#X obj 31 228 set timeline-struct t;
#N canvas 280 131 448 484 - 0;
#X msg 77 48 traverse pd-score \, bang;
#X obj 77 77 pointer;
#X obj 62 384 pointer;
#X obj 62 308 t b p;
#X msg 62 357 send timeline-struct-p;
#X obj 78 21 r init-timeline;
#X obj 197 113 r x-mgn;
#X obj 197 134 r y-mgn;
#X obj 197 176 r height;
#X obj 62 231 f;
#X obj 62 262 append timeline-struct x y tv h;
#X msg 164 237 1;
#X obj 62 179 t b b p;
#X connect 0 0 1 0;
#X connect 1 0 12 0;
#X connect 3 0 4 0;
#X connect 3 1 2 0;
#X connect 4 0 2 0;
#X connect 5 0 0 0;
#X connect 6 0 9 1;
#X connect 7 0 10 1;
#X connect 8 0 10 3;
#X connect 9 0 10 0;
#X connect 10 0 3 0;
#X connect 11 0 10 2;
#X connect 12 0 9 0;
#X connect 12 1 11 0;
#X connect 12 2 10 4;
#X restore 32 152 pd - init-timeline;
#N canvas 0 23 450 300 - 0;
#X obj 194 67 line;
#X msg 194 91 \$1 \; timeline \$1;
#X obj 81 146 spigot 1;
#X obj 62 12 tgl 15 0 empty empty empty 17 7 0 10 -262144 -1 -1 0 1
;
#X obj 62 32 t f f;
#X msg 170 41 0 \, 1000 10000;
#X obj 194 129 sel 1000;
#X msg 194 153 bang \; test-fill bang \; pd-score sort;
#X obj 50 86 sel 1 0;
#X msg 155 74 stop;
#X connect 0 0 1 0;
#X connect 1 0 6 0;
#X connect 2 0 5 0;
#X connect 3 0 4 0;
#X connect 4 0 8 0;
#X connect 4 1 2 1;
#X connect 5 0 0 0;
#X connect 6 0 7 0;
#X connect 7 0 2 0;
#X connect 8 0 7 0;
#X connect 8 1 9 0;
#X connect 9 0 0 0;
#X restore 32 176 pd - test timeline;
#N canvas 1250 35 450 300 - 0;
#X obj 21 22 struct texts float x float y symbol tempo float tempo-vis
float tempo-x symbol ntempo float ntempo-vis float ntempo-x;
#X obj 32 103 drawsymbol -v tempo-vis tempo tempo-x 0 0;
#X obj 33 147 drawsymbol -v ntempo-vis ntempo ntempo-x 0 0;
#X restore 316 27 pd - texts;
#N canvas 1211 143 649 638 - 0;
#X msg 54 44 traverse pd-score \, bang;
#X obj 54 68 pointer;
#X obj 53 192 append texts x y;
#X obj 111 112 r x-mgn;
#X obj 109 139 r y-mgn;
#X obj 109 163 - 40;
#X obj 52 163 f;
#X obj 54 92 t b p;
#X obj 55 18 r drawsymbols;
#X obj 61 361 set -symbol texts tempo;
#X obj 57 468 set -symbol texts ntempo;
#X obj 424 44 r width;
#X obj 424 92 / 2;
#X obj 424 116 - 50;
#X obj 317 145 f;
#X obj 317 178 set texts tempo-x ntempo-x;
#X obj 314 367 set texts tempo-vis;
#X obj 330 467 set texts ntempo-vis;
#X obj 461 116 - 70;
#X obj 222 444 r texts-ptr;
#X obj 467 445 r texts-ptr;
#X obj 219 338 r texts-ptr;
#X obj 317 84 r texts-ptr;
#X obj 53 216 s texts-ptr;
#X obj 317 108 t b p;
#X obj 424 68 t f f;
#X obj 330 441 r tempo-vis-switch;
#X obj 57 412 r ntempo;
#X obj 61 311 r tempo;
#X obj 444 344 r texts-ptr;
#X obj 314 317 r autoplay;
#X msg 62 336 symbol \$1'';
#X msg 57 439 symbol ...\$1'';
#X connect 0 0 1 0;
#X connect 1 0 7 0;
#X connect 2 0 23 0;
#X connect 3 0 6 1;
#X connect 4 0 5 0;
#X connect 5 0 2 1;
#X connect 6 0 2 0;
#X connect 7 0 6 0;
#X connect 7 1 2 2;
#X connect 8 0 0 0;
#X connect 11 0 25 0;
#X connect 12 0 13 0;
#X connect 13 0 14 1;
#X connect 14 0 15 0;
#X connect 18 0 15 1;
#X connect 19 0 10 1;
#X connect 20 0 17 1;
#X connect 21 0 9 1;
#X connect 22 0 24 0;
#X connect 24 0 14 0;
#X connect 24 1 15 2;
#X connect 25 0 12 0;
#X connect 25 1 18 0;
#X connect 26 0 17 0;
#X connect 27 0 32 0;
#X connect 28 0 31 0;
#X connect 29 0 16 1;
#X connect 30 0 16 0;
#X connect 31 0 9 0;
#X connect 32 0 10 0;
#X restore 315 51 pd - tempo;
#X connect 3 0 5 0;
#X connect 4 0 5 1;
#X restore 18 73 pd - struct;
#N canvas 0 23 450 300 presets 0;
#X obj 208 22 text define preset;
#N canvas 0 23 450 300 - 0;
#X obj 194 29 r load-preset;
#X obj 194 53 change -1;
#X obj 60 164 f;
#X obj 34 28 r overwrite-preset;
#X obj 64 128 bng 15 250 50 0 empty empty empty 17 7 0 10 -262144 -1
-1;
#X floatatom 81 202 5 0 0 0 - - -, f 5;
#X msg 194 83 \$1 \; preset read ./txt/preset-\$1.txt;
#X msg 59 234 \; preset write ./txt/preset-\$1.txt;
#X connect 0 0 1 0;
#X connect 1 0 6 0;
#X connect 2 0 7 0;
#X connect 2 0 5 0;
#X connect 3 0 2 0;
#X connect 4 0 2 0;
#X connect 6 0 2 1;
#X restore 27 22 pd - load-preset;
#N canvas 277 173 450 300 - 0;
#X obj 59 74 symbol;
#X obj 59 269 s;
#X msg 127 250 symbol \$1-set;
#X msg 59 171 traverse pd-score \, next;
#X obj 59 195 pointer;
#X obj 59 147 t b a;
#X obj 59 224 get;
#X msg 59 29 0 \, 1 \, 2 \, 3 \, 4 \, 5;
#X obj 59 96 t a a;
#X msg 59 123 set template \$1;
#X obj 264 112 r update-changes;
#X obj 264 136 t b b;
#X obj 291 169 s get-pointer-set;
#X msg 59 52 s\$1 \, s\$1v \, a\$1c \, a\$1v \, y\$1;
#X connect 0 0 8 0;
#X connect 2 0 1 1;
#X connect 3 0 4 0;
#X connect 4 0 6 0;
#X connect 5 0 3 0;
#X connect 5 1 6 0;
#X connect 6 0 1 0;
#X connect 7 0 13 0;
#X connect 8 0 9 0;
#X connect 8 1 2 0;
#X connect 9 0 5 0;
#X connect 10 0 11 0;
#X connect 11 0 7 0;
#X connect 11 1 12 0;
#X connect 13 0 0 0;
#X restore 27 45 pd - update-changes;
#N canvas 0 23 450 300 - 0;
#X msg 82 72 line 0 \, bang;
#X obj 111 131 list;
#X obj 69 165 b;
#X obj 111 155 list split 2;
#X obj 111 179 t b a;
#X obj 82 96 text sequence preset;
#X obj 157 182 list split 1;
#X obj 230 217 symbol;
#X obj 188 263 s;
#X obj 81 12 r update-preset;
#X connect 0 0 5 0;
#X connect 1 0 3 0;
#X connect 2 0 1 0;
#X connect 3 0 4 0;
#X connect 3 1 1 1;
#X connect 4 0 2 0;
#X connect 4 1 6 0;
#X connect 5 0 1 0;
#X connect 6 0 8 0;
#X connect 6 1 7 0;
#X connect 7 0 8 1;
#X connect 9 0 0 0;
#X restore 27 68 pd - update-preset;
#N canvas 0 23 501 406 layout 0;
#X msg 45 177 \; x-mgn-set 80 \; y-mgn-set 80 \; width-set 1000 \;
height-set 300 \;;
#X obj 45 28 r layout;
#X msg 180 178 \; x-mgn-set 85 \; y-mgn-set 85 \; width-set 1200 \;
height-set 200 \;;
#X obj 283 13 r layout-vis;
#X msg 283 37 \; pd-layout vis \$1;
#X obj 45 111 f;
#X obj 56 53 r layout-bang;
#X msg 312 181 \; x-mgn-set 80 \; y-mgn-set 10 \; width-set 1000 \;
height-set 250 \;;
#X obj 45 135 sel 0 1 2 3, f 32;
#X msg 46 273 \; x-mgn-set 80 \; y-mgn-set 55 \; width-set 1000 \;
height-set 300 \;;
#X connect 1 0 5 0;
#X connect 3 0 4 0;
#X connect 5 0 8 0;
#X connect 6 0 5 0;
#X connect 8 0 0 0;
#X connect 8 1 2 0;
#X connect 8 2 7 0;
#X connect 8 3 9 0;
#X restore 27 104 pd layout;
#X restore 18 102 pd presets;
#N canvas 51 178 615 596 - 0;
#X obj 33 76 r preset-instrument;
#N canvas 0 23 365 459 - 0;
#X obj 73 396 pointer;
#X obj 81 346 r get-pointer;
#X msg 73 369 send template-p;
#X obj 73 296 append template x y w h;
#X obj 73 320 t b p;
#X msg 73 157 traverse pd-score \, bang;
#X obj 73 186 pointer;
#X obj 73 213 t b p;
#X obj 73 76 t b b;
#X obj 191 206 r x-mgn;
#X obj 191 227 r y-mgn;
#X obj 191 248 r width;
#X obj 191 269 r height;
#X obj 73 265 f;
#X obj 146 24 r init;
#X obj 73 24 inlet;
#X msg 105 103 \; pd-score clear \, vis 0 \; layout-bang bang \;;
#X connect 1 0 2 0;
#X connect 2 0 0 0;
#X connect 3 0 4 0;
#X connect 4 0 2 0;
#X connect 4 1 0 0;
#X connect 5 0 6 0;
#X connect 6 0 7 0;
#X connect 7 0 13 0;
#X connect 7 1 3 4;
#X connect 8 0 5 0;
#X connect 8 1 16 0;
#X connect 9 0 13 1;
#X connect 10 0 3 1;
#X connect 11 0 3 2;
#X connect 12 0 3 3;
#X connect 13 0 3 0;
#X connect 14 0 8 0;
#X connect 15 0 8 0;
#X restore 359 113 pd - initialize;
#X text 25 20 preset-num INSTRUMENT-NAME sizes-num;
#X obj 53 290 list split 1;
#X obj 53 314 sel 4 5 6;
#X msg 139 144 \; load-preset-set \$1 \; update-preset-set bang \;
get-sizes-set \$3 \;, f 24;
#X obj 296 242 spigot;
#X obj 330 216 r titled;
#X msg 298 271 \; pd-score obj 20 30 cnv 20 20 10 title title-set \$2
0 10 0 20 0 12 0 \; title symbol \$2 \; drawsymbols bang \;, f 19
;
#X msg 53 338 0 340;
#N canvas 0 22 450 300 - 0;
#X msg 16 67 0 340;
#X msg 69 141 \; pd-score vis 0 \, setbounds 525 \$1 1650 \$2 \, vis
1 \;;
#X msg 66 66 363 703;
#X msg 95 100 720 1058;
#X connect 0 0 1 0;
#X connect 2 0 1 0;
#X connect 3 0 1 0;
#X restore 370 423 pd - setup setbounds;
#X msg 49 404 \; pd-score setbounds 525 \$1 1650 \$2;
#X msg 33 503 \; init-timeline bang \; pd-score vis 1 \;;
#X obj 33 110 t b a a a b;
#X msg 77 361 363 703;
#X msg 150 357 720 1058;
#X connect 0 0 13 0;
#X connect 3 0 4 0;
#X connect 4 0 9 0;
#X connect 4 1 14 0;
#X connect 4 2 15 0;
#X connect 6 0 8 0;
#X connect 7 0 6 1;
#X connect 9 0 11 0;
#X connect 13 0 12 0;
#X connect 13 1 3 0;
#X connect 13 2 6 0;
#X connect 13 3 5 0;
#X connect 13 4 1 0;
#X connect 14 0 11 0;
#X connect 15 0 11 0;
#X restore 18 160 pd - preset-instrument;
#N canvas 474 476 433 287 - 0;
#N canvas 773 14 774 724 - 0;
#X msg 76 66 \; get-pointer bang;
#X obj 111 326 fd_iterate;
#X obj 194 411 /;
#X obj 111 383 t f f b;
#X obj 134 445 *;
#X obj 236 391 r template-p;
#X obj 111 298 t f b f, f 21;
#X obj 194 387 f;
#X obj 111 604 list prepend 0;
#X obj 53 245 list split 1;
#X obj 534 294 list split 1;
#X obj 93 272 sel;
#X obj 368 493 f;
#X obj 111 512 pack;
#X obj 111 556 list;
#X msg 53 110 all bang;
#X obj 53 136 clone _getsize 6 template a;
#X obj 368 322 sel;
#X obj 412 322 b;
#X obj 505 494 f;
#X obj 577 585 t f;
#X obj 53 42 t b b b;
#X obj 52 16 r fill;
#X obj 172 19 r from-netsend;
#X obj 53 164 t a a a;
#N canvas 354 23 926 751 - 0;
#X msg 84 77 30;
#X obj 158 34 inlet;
#X obj 335 207 r template-p;
#X obj 156 239 element template a0;
#X obj 203 525 set a0-e bowxv;
#X obj 171 638 set -symbol a0-e bowx;
#X obj 383 15 r title;
#X obj 339 94 sel VIOLA;
#X msg 339 118 1;
#X msg 371 118 0;
#X obj 383 39 symbol;
#X obj 162 63 spigot;
#X obj 771 58 r template-p;
#X obj 550 129 set -symbol template s2l0 s2l1 s2l2;
#X obj 527 337 set template s2l0v s2l1v s2l2v;
#X msg 460 193 \$1 \$1 \$1;
#X msg 549 103 list +180 +90 +0;
#X obj 82 526 sel 0 1 2;
#X obj 552 200 set -symbol template s1l0 s1l1 s1l2;
#X obj 525 294 set template s1l0v s1l1v s1l2v;
#X obj 507 67 sel 1;
#X obj 338 142 t f f f f;
#X obj 687 376 r template-p;
#X obj 439 417 set template gclef cclef;
#X obj 436 334 t f f;
#X obj 443 375 == 0;
#X obj 174 178 fd_iterate;
#X obj 94 604 unpack f s;
#X msg 107 567 0 norm;
#X obj 380 589 t p p;
#X obj 197 284 t b p p;
#X msg 33 567 3 punta;
#X msg 178 570 -3 frog;
#X obj 70 450 change;
#X obj 70 475 t b f;
#X msg 159 476 1;
#X obj 159 376 sel 1;
#X obj 159 351 < 5;
#X obj 161 87 route 0;
#X obj 120 668 t f f;
#X obj 201 670 * 2;
#X obj 146 723 set a0-e bowxY y;
#X msg 557 172 list MSP ORD MST;
#X obj 80 410 fd_rand 3 2;
#X obj 159 326 fd_rand 20 3;
#X connect 1 0 11 0;
#X connect 2 0 3 1;
#X connect 3 0 30 0;
#X connect 6 0 10 0;
#X connect 7 0 8 0;
#X connect 7 1 9 0;
#X connect 8 0 21 0;
#X connect 9 0 21 0;
#X connect 10 0 7 0;
#X connect 11 0 38 0;
#X connect 12 0 13 3;
#X connect 12 0 14 3;
#X connect 12 0 18 3;
#X connect 12 0 19 3;
#X connect 15 0 14 0;
#X connect 15 0 19 0;
#X connect 16 0 13 0;
#X connect 17 0 31 0;
#X connect 17 1 28 0;
#X connect 17 2 32 0;
#X connect 20 0 16 0;
#X connect 20 0 42 0;
#X connect 21 0 11 1;
#X connect 21 1 15 0;
#X connect 21 2 20 0;
#X connect 21 3 24 0;
#X connect 22 0 23 2;
#X connect 24 0 25 0;
#X connect 24 1 23 1;
#X connect 25 0 23 0;
#X connect 26 0 3 0;
#X connect 27 0 39 0;
#X connect 27 1 5 0;
#X connect 28 0 27 0;
#X connect 29 0 5 1;
#X connect 29 1 41 2;
#X connect 30 0 44 0;
#X connect 30 1 4 1;
#X connect 30 2 29 0;
#X connect 31 0 27 0;
#X connect 32 0 27 0;
#X connect 33 0 34 0;
#X connect 34 0 35 0;
#X connect 34 1 17 0;
#X connect 35 0 4 0;
#X connect 36 0 43 0;
#X connect 36 1 4 0;
#X connect 37 0 36 0;
#X connect 38 0 26 0;
#X connect 39 0 41 0;
#X connect 39 1 40 0;
#X connect 40 0 41 1;
#X connect 42 0 18 0;
#X connect 43 0 33 0;
#X connect 44 0 37 0;
#X restore 118 161 pd - viola-stuff;
#X obj 111 647 clone _element 6 template a;
#X text 315 620 0 \, 1 \, 2 \, 3 \, 5 == staffline point X-pos Y-pos
width;
#X text 315 640 4 == staffline point X-pos Y-pos color visibility;
#X obj 134 479 +;
#X obj 236 415 get template w x;
#X obj 236 439 -;
#X obj 317 453 t f f;
#X obj 200 486 * 0.5;
#X obj 111 350 - 0;
#X obj 533 319 t f f f f;
#X obj 596 430 == 4;
#N canvas 267 208 1011 687 - 0;
#X msg 237 461 0 \$1;
#X obj 409 400 - 10;
#X obj 82 400 - 20;
#X obj 830 403 sel 4;
#X msg 882 461 0 0;
#X msg 830 461 0 0 0;
#X msg 82 461 \$1 0 1;
#X msg 409 461 \$1 0;
#X obj 276 238 == 0;
#X obj 237 264 spigot;
#X obj 530 310 t b b;
#X obj 530 461 pack;
#X obj 82 40 inlet action;
#X obj 830 64 inlet inaction;
#X obj 82 548 outlet;
#X obj 82 79 sel 4;
#X obj 409 79 sel 1 2;
#X obj 237 79 sel;
#X msg 717 461 0 \$1;
#X obj 276 214 r isviola;
#X text 845 380 is pitch-staff?;
#X text 96 341 pitches;
#X text 718 262 let it through;
#X text 53 122 is pitch-staff?;
#X text 224 118 is 3-line;
#X obj 717 79 sel 3;
#X obj 791 237 b;
#X obj 717 103 t b b;
#X obj 432 223 _is viola;
#X obj 626 194 _is bflute;
#X obj 237 367 fd_rand 10 4;
#X obj 409 367 fd_rand 20 5;
#X obj 82 367 fd_rand 40 6;
#X obj 665 366 fd_rand 5 7;
#X obj 791 288 fd_rand 10 8;
#X obj 530 367 fd_crand -10 10 23;
#X msg 212 25;
#X connect 0 0 14 0;
#X connect 1 0 7 0;
#X connect 2 0 6 0;
#X connect 3 0 5 0;
#X connect 3 1 4 0;
#X connect 4 0 14 0;
#X connect 5 0 14 0;
#X connect 6 0 14 0;
#X connect 7 0 14 0;
#X connect 8 0 9 1;
#X connect 9 0 30 0;
#X connect 10 0 35 0;
#X connect 10 1 33 0;
#X connect 11 0 14 0;
#X connect 12 0 15 0;
#X connect 13 0 3 0;
#X connect 15 0 32 0;
#X connect 15 1 17 0;
#X connect 16 0 31 0;
#X connect 16 1 28 0;
#X connect 16 2 25 0;
#X connect 17 0 9 0;
#X connect 17 1 16 0;
#X connect 18 0 14 0;
#X connect 19 0 8 0;
#X connect 25 0 27 0;
#X connect 25 1 26 0;
#X connect 26 0 34 0;
#X connect 27 0 29 0;
#X connect 28 0 10 0;
#X connect 28 1 31 0;
#X connect 29 0 31 0;
#X connect 29 1 34 0;
#X connect 30 0 0 0;
#X connect 31 0 1 0;
#X connect 32 0 2 0;
#X connect 33 0 11 1;
#X connect 34 0 18 0;
#X connect 35 0 11 0;
#X restore 368 537 pd - action-inaction;
#X text 478 516 inaction;
#X text 356 517 action;
#X text 602 391 place pitch one point behind, f 17;
#X text 501 200 <-- make this more interesting!;
#X text 531 43 "weighted randomness";
#X obj 368 298 fd_rand 2 0;
#X obj 383 138 fd_rand 10 1;
#X connect 1 0 34 0;
#X connect 2 0 4 1;
#X connect 3 0 13 0;
#X connect 3 1 4 0;
#X connect 3 2 43 0;
#X connect 4 0 29 0;
#X connect 5 0 30 0;
#X connect 6 0 1 0;
#X connect 6 1 7 0;
#X connect 6 2 2 1;
#X connect 7 0 2 0;
#X connect 8 0 26 0;
#X connect 9 1 11 0;
#X connect 10 0 35 0;
#X connect 11 1 6 0;
#X connect 12 0 37 0;
#X connect 13 0 14 0;
#X connect 14 0 8 0;
#X connect 15 0 16 0;
#X connect 16 0 24 0;
#X connect 17 0 12 0;
#X connect 17 1 18 0;
#X connect 18 0 19 0;
#X connect 19 0 37 1;
#X connect 20 0 8 1;
#X connect 21 0 15 0;
#X connect 21 1 0 0;
#X connect 21 2 44 0;
#X connect 22 0 21 0;
#X connect 24 0 9 0;
#X connect 24 1 10 0;
#X connect 24 2 25 0;
#X connect 29 0 13 1;
#X connect 30 0 31 0;
#X connect 30 1 32 0;
#X connect 31 0 7 1;
#X connect 32 0 31 1;
#X connect 32 1 33 0;
#X connect 33 0 29 1;
#X connect 34 0 3 0;
#X connect 35 0 12 1;
#X connect 35 1 19 1;
#X connect 35 2 20 0;
#X connect 35 3 36 0;
#X connect 36 0 34 1;
#X connect 37 0 14 1;
#X connect 43 0 17 0;
#X connect 44 0 43 1;
#X restore 39 38 pd - weighted-random;
#N canvas 739 69 880 763 - 0;
#X msg 423 175 \; get-pointer bang;
#X obj 226 423 /;
#X obj 204 529 *;
#X obj 244 372 get template w;
#X obj 244 348 r template-p;
#X obj 226 399 f;
#X obj 134 612 list;
#X obj 638 195 clone _getsize 6 template a;
#X obj 597 89 r from-netsend;
#N canvas 354 23 926 751 - 0;
#X msg 84 77 30;
#X obj 158 34 inlet;
#X obj 335 207 r template-p;
#X obj 156 239 element template a0;
#X obj 203 525 set a0-e bowxv;
#X obj 171 638 set -symbol a0-e bowx;
#X obj 383 15 r title;
#X obj 339 94 sel VIOLA;
#X msg 339 118 1;
#X msg 371 118 0;
#X obj 383 39 symbol;
#X obj 162 63 spigot;
#X obj 771 58 r template-p;
#X obj 550 129 set -symbol template s2l0 s2l1 s2l2;
#X obj 527 337 set template s2l0v s2l1v s2l2v;
#X msg 460 193 \$1 \$1 \$1;
#X msg 549 103 list +180 +90 +0;
#X obj 82 526 sel 0 1 2;
#X obj 552 200 set -symbol template s1l0 s1l1 s1l2;
#X obj 525 294 set template s1l0v s1l1v s1l2v;
#X obj 507 67 sel 1;
#X obj 338 142 t f f f f;
#X obj 687 376 r template-p;
#X obj 439 417 set template gclef cclef;
#X obj 436 334 t f f;
#X obj 443 375 == 0;
#X obj 174 178 fd_iterate;
#X obj 94 604 unpack f s;
#X msg 107 567 0 norm;
#X obj 380 589 t p p;
#X obj 197 284 t b p p;
#X msg 33 567 3 punta;
#X msg 178 570 -3 frog;
#X obj 70 450 change;
#X obj 70 475 t b f;
#X msg 159 476 1;
#X obj 159 376 sel 1;
#X obj 159 351 < 5;
#X obj 161 87 route 0;
#X obj 120 668 t f f;
#X obj 201 670 * 2;
#X obj 146 723 set a0-e bowxY y;
#X msg 557 172 list MSP ORD MST;
#X obj 80 410 fd_rand 3 10;
#X obj 159 326 fd_rand 20 11;
#X connect 1 0 11 0;
#X connect 2 0 3 1;
#X connect 3 0 30 0;
#X connect 6 0 10 0;
#X connect 7 0 8 0;
#X connect 7 1 9 0;
#X connect 8 0 21 0;
#X connect 9 0 21 0;
#X connect 10 0 7 0;
#X connect 11 0 38 0;
#X connect 12 0 13 3;
#X connect 12 0 14 3;
#X connect 12 0 18 3;
#X connect 12 0 19 3;
#X connect 15 0 14 0;
#X connect 15 0 19 0;
#X connect 16 0 13 0;
#X connect 17 0 31 0;
#X connect 17 1 28 0;
#X connect 17 2 32 0;
#X connect 20 0 16 0;
#X connect 20 0 42 0;
#X connect 21 0 11 1;
#X connect 21 1 15 0;
#X connect 21 2 20 0;
#X connect 21 3 24 0;
#X connect 22 0 23 2;
#X connect 24 0 25 0;
#X connect 24 1 23 1;
#X connect 25 0 23 0;
#X connect 26 0 3 0;
#X connect 27 0 39 0;
#X connect 27 1 5 0;
#X connect 28 0 27 0;
#X connect 29 0 5 1;
#X connect 29 1 41 2;
#X connect 30 0 44 0;
#X connect 30 1 4 1;
#X connect 30 2 29 0;
#X connect 31 0 27 0;
#X connect 32 0 27 0;
#X connect 33 0 34 0;
#X connect 34 0 35 0;
#X connect 34 1 17 0;
#X connect 35 0 4 0;
#X connect 36 0 43 0;
#X connect 36 1 4 0;
#X connect 37 0 36 0;
#X connect 38 0 26 0;
#X connect 39 0 41 0;
#X connect 39 1 40 0;
#X connect 40 0 41 1;
#X connect 42 0 18 0;
#X connect 43 0 33 0;
#X connect 44 0 37 0;
#X restore 720 160 pd - viola-stuff;
#X text 234 532 X-pos;
#X obj 134 644 clone _element 6 template a;
#X text 358 621 0 \, 1 \, 2 \, 3 \, 5 == staffline point X-pos Y-pos
width;
#X text 358 641 4 == staffline point X-pos Y-pos color visibility;
#N canvas 770 57 450 300 - 0;
#X obj 33 30 array define myarray;
#X restore 738 84 pd - isoarrays;
#N canvas 0 23 1011 687 - 0;
#X msg 237 461 0 \$1;
#X obj 409 400 - 10;
#X obj 82 400 - 20;
#X obj 830 403 sel 4;
#X msg 882 461 0 0;
#X msg 830 461 0 0 0;
#X msg 82 461 \$1 0 1;
#X msg 409 461 \$1 0;
#X obj 276 238 == 0;
#X obj 237 264 spigot;
#X obj 530 310 t b b;
#X obj 530 461 pack;
#X obj 82 40 inlet action;
#X obj 830 64 inlet inaction;
#X obj 82 548 outlet;
#X obj 82 79 sel 4;
#X obj 409 79 sel 1 2;
#X obj 237 79 sel;
#X msg 717 461 0 \$1;
#X obj 276 214 r isviola;
#X text 845 380 is pitch-staff?;
#X text 96 341 pitches;
#X text 673 106 let it through;
#X text 53 122 is pitch-staff?;
#X text 224 118 is 3-line;
#X obj 444 225 _is viola;
#X obj 591 219 _is bflute;
#X obj 717 79 sel 3;
#X obj 775 181 t b;
#X obj 237 367 fd_rand 10 12;
#X obj 409 367 fd_rand 20 13;
#X obj 82 367 fd_rand 40 14;
#X obj 630 367 fd_rand 5 15;
#X obj 721 367 fd_rand 10 16;
#X obj 530 367 fd_crand -10 10 21;
#X connect 0 0 14 0;
#X connect 1 0 7 0;
#X connect 2 0 6 0;
#X connect 3 0 5 0;
#X connect 3 1 4 0;
#X connect 4 0 14 0;
#X connect 5 0 14 0;
#X connect 6 0 14 0;
#X connect 7 0 14 0;
#X connect 8 0 9 1;
#X connect 9 0 29 0;
#X connect 10 0 34 0;
#X connect 10 1 32 0;
#X connect 11 0 14 0;
#X connect 12 0 15 0;
#X connect 13 0 3 0;
#X connect 15 0 31 0;
#X connect 15 1 17 0;
#X connect 16 0 30 0;
#X connect 16 1 25 0;
#X connect 16 2 27 0;
#X connect 17 0 9 0;
#X connect 17 1 16 0;
#X connect 18 0 14 0;
#X connect 19 0 8 0;
#X connect 25 0 10 0;
#X connect 25 1 30 0;
#X connect 26 0 30 0;
#X connect 26 1 33 0;
#X connect 27 0 26 0;
#X connect 27 1 28 0;
#X connect 28 0 33 0;
#X connect 29 0 0 0;
#X connect 30 0 1 0;
#X connect 31 0 2 0;
#X connect 32 0 11 1;
#X connect 33 0 18 0;
#X connect 34 0 11 0;
#X restore 402 593 pd - action-inaction;
#X text 574 541 inaction;
#X text 433 542 action;
#X obj 322 34 r isorhythms;
#X obj 455 295 counter -m 10;
#X text 20 93 all lines must have same 'size';
#X obj 99 203 fd_iterate;
#X obj 41 279 fd_iterate 6;
#X obj 402 350 t f f;
#X obj 402 374 == 0;
#X obj 367 432 spigot;
#X obj 475 432 spigot;
#X obj 361 404 t f f;
#X obj 134 380 t f b f;
#X obj 158 414 f;
#X obj 230 313 t b f;
#X obj 160 496 t f f;
#X obj 134 559 pack f f f;
#X obj 161 169 t f f;
#X obj 99 227 t b f b;
#X obj 367 456 t b f;
#X obj 475 456 t b f;
#X obj 325 238 s resize-all;
#X obj 298 212 t f f;
#X obj 317 174 + 5;
#X obj 322 58 route float bang;
#X obj 393 94 t b b;
#X obj 313 92 t f b;
#X obj 420 139 t b b;
#X msg 597 302 \; isorhythms 5;
#X msg 596 342 \; isorhythms bang;
#X obj 41 303 t f f;
#X obj 158 438 - 0;
#X obj 170 299 == 4;
#X obj 402 326 fd_rand 2 9;
#X obj 335 135 fd_rand 25 17;
#X connect 1 0 2 1;
#X connect 2 0 32 2;
#X connect 3 0 5 1;
#X connect 4 0 3 0;
#X connect 5 0 1 0;
#X connect 6 0 11 0;
#X connect 15 0 6 1;
#X connect 18 0 40 0;
#X connect 19 0 49 1;
#X connect 21 0 34 0;
#X connect 22 0 46 0;
#X connect 23 0 24 0;
#X connect 23 1 26 1;
#X connect 24 0 25 1;
#X connect 25 0 35 0;
#X connect 26 0 36 0;
#X connect 27 0 25 0;
#X connect 27 1 26 0;
#X connect 28 0 32 0;
#X connect 28 1 29 0;
#X connect 28 2 27 0;
#X connect 29 0 47 0;
#X connect 30 0 5 0;
#X connect 30 1 1 1;
#X connect 31 0 32 1;
#X connect 31 1 2 0;
#X connect 32 0 6 0;
#X connect 33 0 21 0;
#X connect 33 1 30 0;
#X connect 34 0 22 0;
#X connect 34 1 29 1;
#X connect 34 2 49 0;
#X connect 35 1 15 0;
#X connect 36 1 15 1;
#X connect 38 0 33 0;
#X connect 38 1 37 0;
#X connect 39 0 38 0;
#X connect 40 0 42 0;
#X connect 40 1 41 0;
#X connect 41 0 50 0;
#X connect 41 1 43 0;
#X connect 42 0 38 0;
#X connect 42 1 43 0;
#X connect 43 0 0 0;
#X connect 43 1 19 0;
#X connect 46 0 28 0;
#X connect 46 1 48 0;
#X connect 47 0 31 0;
#X connect 48 0 47 1;
#X connect 49 0 23 0;
#X connect 50 0 39 0;
#X restore 39 68 pd - isorhythms;
#X restore 18 189 pd - fill;
#N canvas 0 23 450 300 - 0;
#N canvas 703 244 477 468 - 0;
#X obj 65 45 t b b;
#X msg 65 70 0 \, 1 \, 2 \, 3 \, 4 \, 5;
#X obj 65 10 bng 15 250 50 0 empty empty empty 17 7 0 10 -262144 -1
-1;
#X msg 65 103 set template a\$1;
#X obj 65 182 getsize;
#X msg 208 64 \; get-pointer bang;
#X obj 65 127 t b a;
#X obj 65 151 pointer;
#X obj 111 127 r template-p;
#X obj 156 174 get template w;
#X obj 65 206 swap;
#X obj 65 230 /;
#X obj 65 254 print;
#X connect 0 0 1 0;
#X connect 0 1 5 0;
#X connect 1 0 3 0;
#X connect 2 0 0 0;
#X connect 3 0 6 0;
#X connect 4 0 10 0;
#X connect 6 0 7 0;
#X connect 6 1 4 0;
#X connect 7 0 4 0;
#X connect 8 0 7 1;
#X connect 8 0 9 0;
#X connect 9 0 10 1;
#X connect 10 0 11 0;
#X connect 10 1 11 1;
#X connect 11 0 12 0;
#X restore 29 37 pd - get tempi;
#N canvas 495 128 785 627 - 0;
#X obj 216 244 list;
#X msg 315 285 \; pd-score clear \; init \$1 \; title \$2 \; load-sizes
bang \; fill bang \;;
#X obj 220 275 t b a a;
#X obj 218 412 list;
#X msg 64 214 4 BASS_FLUTE;
#X msg 178 214 5 TRUMPET;
#X msg 279 212 6 VIOLA;
#X obj 114 71 f;
#X obj 152 72 + 1;
#X obj 186 74 moses 10;
#X obj 179 100 t b f;
#X obj 80 33 bng 15 250 50 0 empty empty empty 17 7 0 10 -262144 -1
-1;
#X obj 218 352 del 200;
#X msg 197 39 0, f 2;
#X obj 210 525 del 2000;
#X obj 154 137 f;
#X obj 191 137 + 1;
#X obj 230 137 mod 4;
#X obj 155 167 sel 0 1 2 3;
#X obj 212 437 t a a;
#X obj 385 172 ggee/getdir;
#X obj 213 550 list;
#X obj 218 376 symbol;
#X obj 115 32 t b b b;
#X obj 8 166 del 2000;
#X obj 41 125 del 100;
#X obj 313 82 print done;
#X obj 18 100 spigot 1;
#X obj 17 5 tgl 15 0 empty empty empty 17 7 0 10 -262144 -1 -1 0 1
;
#X obj 17 25 t f f;
#X obj 17 49 sel 1;
#X msg 208 475 bang \; pd-score vis 1 \, print \$1/../output/test-0/\$3-\$4.ps
;
#X msg 215 576 bang \; pd-score write \$1/../output/test-0/\$3-\$4.txt
\, vis 0 \;;
#X obj 299 40 t b b;
#X msg 109 99 0;
#X connect 0 0 2 0;
#X connect 2 0 12 0;
#X connect 2 1 3 1;
#X connect 2 2 1 0;
#X connect 3 0 19 0;
#X connect 4 0 0 0;
#X connect 5 0 0 0;
#X connect 6 0 0 0;
#X connect 7 0 8 0;
#X connect 8 0 9 0;
#X connect 9 0 7 1;
#X connect 9 0 10 0;
#X connect 9 1 33 0;
#X connect 10 0 15 0;
#X connect 10 1 0 1;
#X connect 11 0 23 0;
#X connect 12 0 22 0;
#X connect 13 0 7 1;
#X connect 14 0 21 0;
#X connect 15 0 16 0;
#X connect 15 0 18 0;
#X connect 16 0 17 0;
#X connect 17 0 15 1;
#X connect 18 0 4 0;
#X connect 18 1 5 0;
#X connect 18 2 6 0;
#X connect 18 3 25 0;
#X connect 19 0 31 0;
#X connect 19 1 21 1;
#X connect 20 0 22 1;
#X connect 21 0 32 0;
#X connect 22 0 3 0;
#X connect 23 0 7 0;
#X connect 23 1 20 0;
#X connect 23 2 13 0;
#X connect 24 0 15 0;
#X connect 25 0 27 0;
#X connect 27 0 7 0;
#X connect 28 0 29 0;
#X connect 29 0 30 0;
#X connect 29 1 27 1;
#X connect 30 0 11 0;
#X connect 31 0 14 0;
#X connect 32 0 24 0;
#X connect 33 0 26 0;
#X connect 33 1 34 0;
#X connect 34 0 28 0;
#X restore 29 81 pd - sketch;
#N canvas 442 23 629 613 - 0;
#X msg 35 299 0 \, 1000 30000;
#X obj 35 323 line;
#X obj 41 67 tgl 15 0 empty empty empty 17 7 0 10 -262144 -1 -1 0 1
;
#X obj 29 215 metro 30000;
#X obj 29 239 t b b;
#X obj 364 315 sel;
#X obj 364 339 counter;
#X obj 364 363 moses 3;
#X msg 346 289 0;
#X obj 35 347 s timeline;
#X obj 364 387 sel 0 1 2;
#X msg 364 411 BASS_FLUTE;
#X obj 364 435 symbol;
#X obj 132 456 list;
#X msg 415 435 TRUMPET;
#X msg 444 410 VIOLA;
#X msg 164 37 0;
#X msg 68 70 stop;
#X msg 73 490 \; pd-score clear \, read ../output/test-0/\$2-\$1.txt
\, vis 1 \; init-timeline bang \; pd-score obj 20 30 cnv 20 20 10 title
title-set \$2 0 10 0 20 0 12 0 \, obj 1050 30 cnv 20 40 30 pagenum
pagenum-set *\$1* 5 15 0 16 6 12 0 \;;
#X obj 184 420 r instrument;
#X obj 184 444 symbol;
#X obj 27 37 r start;
#X obj 191 310 moses 10;
#X obj 191 288 counter;
#X obj 253 391 s pd;
#X msg 253 360 quit;
#X obj 277 299 t b b;
#X obj 264 332 del 100;
#X obj 169 370 + 1;
#X msg 86 33 0;
#X msg 117 33 1;
#X msg 200 35 1;
#X msg 231 36 2;
#X obj 172 69 t f f;
#X msg 271 36 3;
#X msg 311 36 4;
#X obj 28 269 f 30000;
#X msg 103 142 30;
#X msg 130 172 20;
#X msg 159 138 40;
#X obj 131 217 * 1000;
#X connect 0 0 1 0;
#X connect 1 0 9 0;
#X connect 2 0 3 0;
#X connect 3 0 4 0;
#X connect 4 0 36 0;
#X connect 4 1 23 0;
#X connect 5 0 6 0;
#X connect 6 0 7 0;
#X connect 7 0 10 0;
#X connect 7 1 8 0;
#X connect 8 0 2 0;
#X connect 10 0 11 0;
#X connect 10 1 14 0;
#X connect 10 2 15 0;
#X connect 11 0 12 0;
#X connect 13 0 18 0;
#X connect 14 0 12 0;
#X connect 15 0 12 0;
#X connect 16 0 33 0;
#X connect 17 0 1 0;
#X connect 19 0 20 0;
#X connect 20 0 13 1;
#X connect 21 0 2 0;
#X connect 22 0 28 0;
#X connect 22 1 26 0;
#X connect 23 0 22 0;
#X connect 26 0 27 0;
#X connect 26 1 8 0;
#X connect 27 0 25 0;
#X connect 28 0 13 0;
#X connect 29 0 17 0;
#X connect 29 0 2 0;
#X connect 30 0 2 0;
#X connect 31 0 33 0;
#X connect 32 0 33 0;
#X connect 33 0 23 0;
#X connect 33 1 6 0;
#X connect 34 0 33 0;
#X connect 35 0 33 0;
#X connect 36 0 0 0;
#X connect 37 0 40 0;
#X connect 38 0 40 0;
#X connect 39 0 40 0;
#X connect 40 0 3 1;
#X connect 40 0 36 1;
#X restore 29 125 pd - play sketch;
#X restore 18 218 pd - sketch-stuff;
#N canvas 0 23 450 300 - 0;
#N canvas 0 23 1254 751 reader 0;
#X obj 36 147 tgl 15 0 empty empty empty 17 7 0 10 -262144 -1 -1 0
1;
#X obj 36 167 sel 1 0;
#N canvas 0 23 450 300 get 0;
#X obj 65 45 t b b;
#X obj 77 146 symbol;
#X msg 77 243 traverse pd-score \, next;
#X obj 77 267 pointer;
#X obj 77 219 t b a;
#X obj 77 296 get;
#X msg 65 70 0 \, 1 \, 2 \, 3 \, 4 \, 5;
#X obj 77 168 t a a;
#X msg 77 195 set template \$1;
#X msg 77 124 s\$1 \, s\$1v \, a\$1c \, a\$1w \, a\$1v \, y\$1 \, w\$1
;
#X msg 204 34 \; pd-score sort \; get-pointer bang;
#X obj 65 10 bng 15 250 50 0 empty empty empty 17 7 0 10 -262144 -1
-1;
#X obj 65 94 t b f b;
#X obj 64 370 list store;
#X obj 62 402 print;
#X obj 77 320 list prepend append;
#X obj 77 343 list trim;
#X connect 0 0 6 0;
#X connect 0 1 10 0;
#X connect 1 0 7 0;
#X connect 2 0 3 0;
#X connect 3 0 5 0;
#X connect 4 0 2 0;
#X connect 4 1 5 0;
#X connect 5 0 15 0;
#X connect 6 0 12 0;
#X connect 7 0 8 0;
#X connect 8 0 4 0;
#X connect 9 0 1 0;
#X connect 11 0 0 0;
#X connect 12 0 13 0;
#X connect 12 1 9 0;
#X connect 12 2 13 1;
#X connect 13 0 14 0;
#X connect 15 0 16 0;
#X connect 16 0 13 0;
#X restore 234 173 pd get info;
#X msg 151 204 \; get-pointer bang;
#X obj 620 267 r template-p;
#X obj 500 493 f;
#X obj 436 307 counter;
#X obj 480 349 moses;
#X msg 434 256 0 \, bang;
#X obj 509 319 getsize template a1;
#X obj 479 390 element template a1;
#X obj 481 422 get a1-e x y w;
#X obj 518 520 pack;
#X obj 579 146 t b p;
#X msg 578 170 0;
#X obj 578 194 element template a1;
#X obj 578 218 get a1-e x;
#X obj 387 412 del;
#X obj 481 446 t b f f;
#X obj 279 259 r template-p;
#X obj 159 485 f;
#X obj 95 299 counter;
#X obj 139 341 moses;
#X msg 93 248 0 \, bang;
#X obj 177 512 pack;
#X obj 46 404 del;
#X obj 140 438 t b f f;
#X obj 168 311 getsize template a0;
#X obj 138 382 element template a0;
#X obj 135 412 get a0-e x y w;
#X obj 533 350 print end1;
#X obj 192 342 print end2;
#X obj 350 504 osc~ 2;
#X obj 207 525 line~;
#X obj 514 569 line~;
#X obj 743 669 -~;
#X obj 743 693 mtof~;
#X obj 330 603 osc~;
#X obj 929 275 r template-p;
#X obj 809 501 f;
#X obj 745 315 counter;
#X obj 789 357 moses;
#X obj 825 576 pack;
#X obj 696 420 del;
#X obj 790 454 t b f f;
#X obj 842 358 print end1;
#X obj 391 625 line~;
#X obj 818 327 getsize template a5;
#X obj 788 398 element template a5;
#X obj 790 430 get a5-e x y w;
#X obj 809 525 abs;
#X obj 809 549 / 10;
#X obj 347 646 *~;
#X obj 1168 295 r template-p;
#X obj 1046 527 f;
#X obj 984 335 counter;
#X obj 1028 377 moses;
#X obj 935 440 del;
#X obj 1030 485 t b f f;
#X obj 1081 378 print end1;
#X obj 1064 613 line~;
#X obj 1057 347 getsize template a4;
#X obj 1027 418 element template a4;
#X obj 1064 661 +~ 60;
#X obj 425 684 env~;
#X floatatom 425 708 5 0 0 0 - - -, f 5;
#X floatatom 902 606 5 0 0 0 - - -, f 5;
#X floatatom 869 535 5 0 0 0 - - -, f 5;
#X obj 299 697 dac~ 3;
#X floatatom 999 562 5 0 0 0 - - -, f 5;
#X obj 1029 450 get a4-e x y v;
#X floatatom 1130 476 5 0 0 0 - - -, f 5;
#X obj 350 552 +~;
#X floatatom 213 475 5 0 0 0 - - -, f 5;
#X msg 360 164 30 25;
#X floatatom 360 212 5 0 0 0 - - -, f 5;
#X obj 360 188 /;
#X msg 757 259 0 \, bang;
#X msg 1037 262 0 \, bang;
#X obj 1062 567 spigot;
#X obj 949 91 line;
#X msg 949 115 \$1 \; timeline \$1;
#X obj 836 170 spigot 1;
#X obj 817 36 tgl 15 0 empty empty empty 17 7 0 10 -262144 -1 -1 0
1;
#X obj 817 56 t f f;
#X msg 925 65 0 \, 1000 10000;
#X obj 949 153 sel 1000;
#X obj 805 110 sel 1 0;
#X msg 910 98 stop;
#X msg 951 183 bang \; fill bang \; pd-score sort;
#X floatatom 585 504 5 0 0 0 - - -, f 5;
#X obj 1064 637 *~ 1;
#X floatatom 266 465 5 0 0 0 - - -, f 5;
#X obj 354 39 tgl 15 0 empty empty empty 17 7 0 10 -262144 -1 -1 0
1;
#X obj 354 59 switch~;
#X connect 0 0 1 0;
#X connect 4 0 9 0;
#X connect 4 0 10 1;
#X connect 5 0 12 0;
#X connect 6 0 7 0;
#X connect 7 0 10 0;
#X connect 7 1 30 0;
#X connect 8 0 6 0;
#X connect 9 0 7 1;
#X connect 10 0 11 0;
#X connect 11 0 18 0;
#X connect 11 1 5 1;
#X connect 11 1 90 0;
#X connect 12 0 34 0;
#X connect 13 0 14 0;
#X connect 13 1 15 1;
#X connect 14 0 15 0;
#X connect 15 0 16 0;
#X connect 17 0 6 0;
#X connect 18 0 5 0;
#X connect 18 1 12 1;
#X connect 18 2 17 0;
#X connect 19 0 27 0;
#X connect 19 0 28 1;
#X connect 20 0 24 0;
#X connect 21 0 22 0;
#X connect 22 0 28 0;
#X connect 22 1 31 0;
#X connect 23 0 21 0;
#X connect 24 0 33 0;
#X connect 25 0 21 0;
#X connect 26 0 20 0;
#X connect 26 1 24 1;
#X connect 26 2 25 0;
#X connect 27 0 22 1;
#X connect 28 0 29 0;
#X connect 29 0 26 0;
#X connect 29 2 20 1;
#X connect 29 2 73 0;
#X connect 32 0 72 0;
#X connect 33 0 32 0;
#X connect 34 0 35 1;
#X connect 35 0 36 0;
#X connect 36 0 72 1;
#X connect 37 0 52 0;
#X connect 38 0 47 0;
#X connect 38 0 48 1;
#X connect 39 0 50 0;
#X connect 39 0 67 0;
#X connect 40 0 41 0;
#X connect 41 0 48 0;
#X connect 41 1 45 0;
#X connect 42 0 46 0;
#X connect 43 0 40 0;
#X connect 44 0 39 0;
#X connect 44 1 42 1;
#X connect 44 2 43 0;
#X connect 46 0 52 1;
#X connect 47 0 41 1;
#X connect 48 0 49 0;
#X connect 49 0 44 0;
#X connect 49 2 39 1;
#X connect 50 0 51 0;
#X connect 51 0 42 0;
#X connect 51 0 66 0;
#X connect 52 0 64 0;
#X connect 52 0 68 0;
#X connect 53 0 61 0;
#X connect 53 0 62 1;
#X connect 54 0 69 0;
#X connect 54 0 79 0;
#X connect 55 0 56 0;
#X connect 56 0 62 0;
#X connect 56 1 59 0;
#X connect 57 0 55 0;
#X connect 58 0 54 0;
#X connect 58 2 57 0;
#X connect 60 0 91 0;
#X connect 61 0 56 1;
#X connect 62 0 70 0;
#X connect 63 0 35 0;
#X connect 64 0 65 0;
#X connect 70 0 58 0;
#X connect 70 1 54 1;
#X connect 70 2 71 0;
#X connect 70 2 79 1;
#X connect 72 0 37 0;
#X connect 74 0 76 0;
#X connect 76 0 75 0;
#X connect 77 0 40 0;
#X connect 78 0 55 0;
#X connect 79 0 60 0;
#X connect 80 0 81 0;
#X connect 81 0 86 0;
#X connect 82 0 85 0;
#X connect 82 0 23 0;
#X connect 82 0 8 0;
#X connect 82 0 77 0;
#X connect 82 0 78 0;
#X connect 83 0 84 0;
#X connect 84 0 87 0;
#X connect 84 1 82 1;
#X connect 85 0 80 0;
#X connect 86 0 89 0;
#X connect 87 0 89 0;
#X connect 87 1 88 0;
#X connect 88 0 80 0;
#X connect 89 0 82 0;
#X connect 91 0 63 0;
#X connect 93 0 94 0;
#X restore 33 37 pd reader;
#N canvas 0 23 1280 751 notes 0;
#X obj 318 141 r template-p;
#X obj 249 206 moses;
#X obj 505 185 line;
#X obj 300 180 getsize template a4;
#X obj 250 261 element template a4;
#X obj 173 279 bng 15 250 50 0 empty empty empty 17 7 0 10 -262144
-1 -1;
#X obj 505 209 s timeline;
#X obj 94 273 del;
#X obj 265 17 bng 15 250 50 0 empty empty empty 17 7 0 10 -262144 -1
-1;
#X msg 266 129 0;
#X obj 245 361 t f f;
#X obj 249 399 -;
#X obj 247 297 get a4-e x y c v;
#X obj 189 160 counter;
#X obj 319 389 spigot;
#X obj 241 450 t f b;
#X obj 308 332 f;
#X obj 316 360 pack;
#X obj 43 89 spigot 1;
#X obj 87 17 tgl 15 0 empty empty empty 17 7 0 10 -262144 -1 -1 0 1
;
#X obj 280 44 t b b b b;
#X msg 782 53 \; fill bang \; pd-score sort \; get-pointer bang \;
;
#X obj 319 413 unpack;
#X obj 331 586 osc~;
#X obj 451 508 *~;
#X obj 663 707 dac~ 3;
#X obj 451 484 vline~;
#X obj 249 422 * 31;
#X obj 246 333 + 30;
#X obj 331 610 *~ 0.1;
#X msg 198 92 0 \, bang;
#X obj 306 75 bng 15 250 50 0 empty empty empty 17 7 0 10 -262144 -1
-1;
#X obj 306 95 t b b b;
#X obj 657 189 r template-p;
#X obj 657 213 getsize template a5;
#X obj 582 259 moses;
#X obj 516 403 f;
#X obj 582 310 get a5-e w x;
#X obj 683 356 t f f;
#X obj 687 394 -;
#X obj 687 417 * 31;
#X obj 684 328 + 30;
#X obj 659 447 pack;
#X obj 662 648 *~;
#X obj 582 286 element template a5;
#X obj 571 382 / 10;
#X obj 883 194 r template-p;
#X obj 808 264 moses;
#X obj 909 361 t f f;
#X obj 913 399 -;
#X obj 913 422 * 31;
#X obj 910 333 + 30;
#X obj 885 452 pack;
#X obj 885 476 line~;
#X obj 797 387 / 10;
#X obj 883 218 getsize template a0;
#X obj 808 291 element template a0;
#X obj 808 315 get a0-e w x;
#X obj 885 524 osc~;
#X obj 319 437 pack f 3;
#X obj 319 461 line~;
#X obj 323 498 *~ -0.35;
#X obj 323 526 +~ 69;
#X obj 324 551 mtof~;
#X obj 885 500 *~ 100;
#X obj 1140 198 r template-p;
#X obj 1065 268 moses;
#X obj 1138 394 t f f;
#X obj 1142 432 -;
#X obj 1142 455 * 31;
#X obj 1139 366 + 30;
#X obj 1114 485 pack;
#X obj 1054 391 / 10;
#X obj 1140 222 getsize template a3;
#X obj 1065 295 element template a3;
#X obj 1065 319 get a3-e w x;
#X obj 867 669 dac~ 8;
#X obj 828 634 *~;
#X obj 1391 214 r template-p;
#X obj 1316 284 moses;
#X obj 1417 381 t f f;
#X obj 1421 419 -;
#X obj 1421 442 * 31;
#X obj 1418 353 + 30;
#X obj 1393 472 pack;
#X obj 1316 311 element template a1;
#X obj 1391 238 getsize template a1;
#X obj 1316 335 get a1-e y x;
#X obj 1305 407 / -20;
#X obj 1305 431 + 0.5;
#X obj 1393 520 *~ 20;
#X obj 885 548 *~;
#X obj 168 299 r subdiv;
#X obj 718 381 r subdiv;
#X obj 962 377 r subdiv;
#X obj 1182 397 r subdiv;
#X obj 1487 391 r subdiv;
#X obj 466 71 t f f;
#X obj 466 95 pack;
#X obj 522 101 /;
#X obj 407 342 b;
#X msg 451 460 0.5 3 \, 0 \$1 3;
#X msg 490 134 20 \, 980 \$1 \; subdiv \$2;
#X floatatom 168 323 5 0 0 0 - - -, f 5;
#X msg 522 77 \$1 1000;
#X obj 392 54 + 1000;
#X obj 659 471 vline~;
#X obj 1114 509 vline~;
#X obj 1393 496 vline~;
#X obj 114 36 switch~;
#X obj 401 390 fd_rand 4000 18;
#X obj 392 30 fd_rand 20000 19;
#X connect 0 0 3 0;
#X connect 0 0 4 1;
#X connect 1 0 4 0;
#X connect 1 0 35 0;
#X connect 1 0 47 0;
#X connect 1 0 66 0;
#X connect 1 0 79 0;
#X connect 1 1 5 0;
#X connect 2 0 6 0;
#X connect 3 0 1 1;
#X connect 4 0 12 0;
#X connect 5 0 18 0;
#X connect 7 0 13 0;
#X connect 8 0 20 0;
#X connect 9 0 11 1;
#X connect 9 0 39 1;
#X connect 10 0 11 1;
#X connect 10 1 11 0;
#X connect 11 0 27 0;
#X connect 12 0 28 0;
#X connect 12 1 16 1;
#X connect 12 2 17 1;
#X connect 12 3 14 1;
#X connect 13 0 1 0;
#X connect 14 0 22 0;
#X connect 15 0 7 0;
#X connect 15 1 16 0;
#X connect 16 0 17 0;
#X connect 17 0 14 0;
#X connect 18 0 8 0;
#X connect 19 0 18 1;
#X connect 19 0 109 0;
#X connect 20 0 30 0;
#X connect 20 1 9 0;
#X connect 20 2 111 0;
#X connect 20 3 21 0;
#X connect 22 0 59 0;
#X connect 22 1 100 0;
#X connect 23 0 29 0;
#X connect 24 0 43 0;
#X connect 24 0 77 0;
#X connect 26 0 24 0;
#X connect 27 0 15 0;
#X connect 28 0 10 0;
#X connect 29 0 24 1;
#X connect 30 0 13 0;
#X connect 31 0 32 0;
#X connect 32 0 30 0;
#X connect 32 1 9 0;
#X connect 32 2 102 0;
#X connect 33 0 34 0;
#X connect 33 0 44 1;
#X connect 34 0 35 1;
#X connect 35 0 44 0;
#X connect 37 0 45 0;
#X connect 37 1 41 0;
#X connect 38 0 39 1;
#X connect 38 1 39 0;
#X connect 39 0 40 0;
#X connect 40 0 42 1;
#X connect 41 0 38 0;
#X connect 42 0 106 0;
#X connect 43 0 25 0;
#X connect 44 0 37 0;
#X connect 45 0 42 0;
#X connect 46 0 55 0;
#X connect 46 0 56 1;
#X connect 47 0 56 0;
#X connect 48 0 49 1;
#X connect 48 1 49 0;
#X connect 49 0 50 0;
#X connect 50 0 52 1;
#X connect 51 0 48 0;
#X connect 52 0 53 0;
#X connect 53 0 64 0;
#X connect 54 0 52 0;
#X connect 55 0 47 1;
#X connect 56 0 57 0;
#X connect 57 0 54 0;
#X connect 57 1 51 0;
#X connect 58 0 91 0;
#X connect 59 0 60 0;
#X connect 60 0 61 0;
#X connect 61 0 62 0;
#X connect 62 0 63 0;
#X connect 63 0 23 0;
#X connect 64 0 58 0;
#X connect 65 0 73 0;
#X connect 65 0 74 1;
#X connect 66 0 74 0;
#X connect 67 0 68 1;
#X connect 67 1 68 0;
#X connect 68 0 69 0;
#X connect 69 0 71 1;
#X connect 70 0 67 0;
#X connect 71 0 107 0;
#X connect 72 0 71 0;
#X connect 73 0 66 1;
#X connect 74 0 75 0;
#X connect 75 0 72 0;
#X connect 75 1 70 0;
#X connect 77 0 76 0;
#X connect 78 0 85 1;
#X connect 78 0 86 0;
#X connect 79 0 85 0;
#X connect 80 0 81 1;
#X connect 80 1 81 0;
#X connect 81 0 82 0;
#X connect 82 0 84 1;
#X connect 83 0 80 0;
#X connect 84 0 108 0;
#X connect 85 0 87 0;
#X connect 86 0 79 1;
#X connect 87 0 88 0;
#X connect 87 1 83 0;
#X connect 88 0 89 0;
#X connect 89 0 84 0;
#X connect 90 0 91 1;
#X connect 91 0 62 0;
#X connect 92 0 27 1;
#X connect 92 0 28 1;
#X connect 92 0 103 0;
#X connect 93 0 40 1;
#X connect 93 0 41 1;
#X connect 94 0 51 1;
#X connect 94 0 50 1;
#X connect 95 0 70 1;
#X connect 95 0 69 1;
#X connect 96 0 83 1;
#X connect 96 0 82 1;
#X connect 97 0 98 0;
#X connect 97 1 104 0;
#X connect 98 0 102 0;
#X connect 99 0 98 1;
#X connect 100 0 110 0;
#X connect 101 0 26 0;
#X connect 102 0 2 0;
#X connect 104 0 99 0;
#X connect 105 0 97 0;
#X connect 106 0 43 1;
#X connect 107 0 77 1;
#X connect 108 0 90 0;
#X connect 110 0 101 0;
#X connect 111 0 105 0;
#X restore 33 75 pd notes;
#X restore 18 247 pd - reading;
#N canvas 0 23 450 300 - 0;
#X obj 288 160 r line-pos;
#X msg 288 184 \; pd-line-pos vis \$1;
#X obj 287 223 r guts;
#X msg 287 247 \; pd-guts vis \$1;
#N canvas 0 23 450 300 - 0;
#X obj 45 37 r score-vis;
#X msg 45 61 \; pd-score vis \$1;
#X obj 175 130 r pd-score;
#X obj 175 154 route vis;
#X msg 175 178 \; score-vis-set set \$1;
#X connect 0 0 1 0;
#X connect 2 0 3 0;
#X connect 3 0 4 0;
#X restore 49 47 pd - score-vis;
#N canvas 371 151 432 525 - 0;
#X obj 51 424 t f f;
#X obj 101 255 f;
#X obj 51 158 t b b;
#X msg 51 348 stop;
#X obj 88 201 timer;
#X obj 101 323 pack;
#X msg 101 348 \$1 \, 1 \$2;
#X obj 101 158 t b b;
#X obj 168 135 unpack;
#X obj 202 304 -;
#X obj 202 252 fd_sum;
#X obj 207 158 t f f b b;
#X msg 267 348 0;
#X obj 51 458 * 1000;
#X obj 51 492 s timeline;
#X obj 168 111 pack 0 30000;
#X obj 51 134 sel;
#X obj 249 18 r page-dur;
#X obj 219 403 t f;
#X obj 202 279 swap;
#X obj 51 19 r play;
#X obj 168 19 r reset;
#X obj 115 439 r width;
#X obj 51 398 line 0 1;
#X connect 0 0 13 0;
#X connect 0 1 18 0;
#X connect 1 0 5 0;
#X connect 2 0 3 0;
#X connect 2 1 4 1;
#X connect 3 0 23 0;
#X connect 4 0 10 0;
#X connect 5 0 6 0;
#X connect 6 0 23 0;
#X connect 7 0 1 0;
#X connect 7 1 4 0;
#X connect 8 0 1 1;
#X connect 8 1 11 0;
#X connect 9 0 5 1;
#X connect 10 0 19 0;
#X connect 11 0 5 1;
#X connect 11 1 19 1;
#X connect 11 2 10 1;
#X connect 11 3 12 0;
#X connect 12 0 23 0;
#X connect 13 0 14 0;
#X connect 15 0 8 0;
#X connect 16 0 2 0;
#X connect 16 1 7 0;
#X connect 17 0 15 1;
#X connect 18 0 1 1;
#X connect 19 0 9 0;
#X connect 19 1 9 1;
#X connect 20 0 16 0;
#X connect 21 0 15 0;
#X connect 22 0 13 1;
#X connect 23 0 0 0;
#X restore 49 68 pd - timeline key;
#N canvas 0 23 450 300 - 0;
#X obj 87 54 r preset-vis;
#X obj 87 78 sel;
#X msg 201 121 \; preset click \; pd-presets vis 1;
#X msg 66 122 \; preset close \; pd-presets vis 0;
#X connect 0 0 1 0;
#X connect 1 0 3 0;
#X connect 1 1 2 0;
#X restore 49 89 pd - preset-vis;
#N canvas 0 23 450 300 - 0;
#X obj 137 234 s preset-instrument;
#X obj 29 41 r 4-bass_flute;
#X obj 162 43 r 5-trumpet;
#X obj 254 103 r 6-viola;
#X msg 31 64 4 BASS_FLUTE 0;
#X msg 161 66 5 TRUMPET 0;
#X msg 255 126 6 VIOLA 0;
#X connect 1 0 4 0;
#X connect 2 0 5 0;
#X connect 3 0 6 0;
#X connect 4 0 0 0;
#X connect 5 0 0 0;
#X connect 6 0 0 0;
#X restore 49 110 pd - preset-instrument-message;
#N canvas 1124 23 156 751 line-pos 0;
#X obj 11 10 _set 0 template;
#X obj 11 132 _set 1 template;
#X obj 11 254 _set 2 template;
#X obj 11 376 _set 3 template;
#X obj 11 498 _set 4 template;
#X obj 11 620 _set 5 template;
#X restore 48 132 pd line-pos;
#N canvas 0 23 450 300 - 0;
#X obj 45 29 r title;
#X obj 45 53 symbol;
#X msg 45 77 \; title-set label \$1;
#X text 123 38 instrument name;
#X connect 0 0 1 0;
#X connect 1 0 2 0;
#X restore 50 25 pd - title;
#N canvas 0 22 450 300 - 0;
#X obj 79 64 r sizes-vis;
#X msg 78 139 \; pd-sizes vis \$1 \;;
#X obj 79 88 t f f;
#X obj 236 124 sel;
#X msg 236 148 \; sizes close;
#X msg 309 100 \; sizes click;
#X connect 0 0 2 0;
#X connect 2 0 1 0;
#X connect 2 1 3 0;
#X connect 3 0 4 0;
#X connect 3 1 5 0;
#X restore 48 156 pd - sizes-vis;
#N canvas 0 23 450 300 - 0;
#X obj 101 50 r instrument;
#X obj 101 74 sel 0 1 2;
#X obj 43 184 s 4-bass_flute-set;
#X obj 94 158 s 5-trumpet-set;
#X obj 161 124 s 6-viola-set;
#X connect 0 0 1 0;
#X connect 1 0 2 0;
#X connect 1 1 3 0;
#X connect 1 2 4 0;
#X restore 48 178 pd - instrument-message;
#N canvas 821 125 450 300 - 0;
#X obj 21 25 r maketempo-min;
#X obj 21 49 pack;
#X msg 21 73 \; maketempo set \$1 \$2;
#X obj 150 23 r maketempo-max;
#X obj 150 47 t b f;
#X connect 0 0 1 0;
#X connect 1 0 2 0;
#X connect 3 0 4 0;
#X connect 4 0 1 0;
#X connect 4 1 1 1;
#X restore 47 200 pd - tempo min-max;
#N canvas 0 23 450 300 - 0;
#X obj 31 29 r title;
#X obj 31 83 sel VIOLA;
#X msg 31 107 1;
#X msg 63 107 0;
#X obj 31 53 symbol;
#X obj 39 187 s isviola;
#X obj 142 27 r title;
#X msg 142 105 1;
#X msg 174 105 0;
#X obj 142 51 symbol;
#X obj 142 81 sel BASS_FLUTE;
#X obj 150 185 s isbflute;
#X obj 280 24 r title;
#X msg 280 102 1;
#X msg 312 102 0;
#X obj 280 48 symbol;
#X obj 280 78 sel TRUMPET;
#X obj 288 182 s istrumpet;
#X connect 0 0 4 0;
#X connect 1 0 2 0;
#X connect 1 1 3 0;
#X connect 2 0 5 0;
#X connect 3 0 5 0;
#X connect 4 0 1 0;
#X connect 6 0 9 0;
#X connect 7 0 11 0;
#X connect 8 0 11 0;
#X connect 9 0 10 0;
#X connect 10 0 7 0;
#X connect 10 1 8 0;
#X connect 12 0 15 0;
#X connect 13 0 17 0;
#X connect 14 0 17 0;
#X connect 15 0 16 0;
#X connect 16 0 13 0;
#X connect 16 1 14 0;
#X restore 47 221 pd - isinstrument;
#X obj 289 98 r clear-score;
#X msg 289 121 \; pd-score clear;
#X obj 290 10 r listen-port;
#X obj 290 34 + 5000;
#X msg 290 58 \; listen \$1;
#N canvas 0 23 450 300 - 0;
#X obj 55 39 r quit;
#X obj 55 157 del 1000;
#X msg 55 181 \; pd quit;
#X msg 55 65 bang \; clear-score-set bang \; listen-0-set bang \;;
#X obj 55 117 t b b;
#X msg 155 152 quitting...;
#X obj 155 176 print;
#X connect 0 0 3 0;
#X connect 1 0 2 0;
#X connect 3 0 4 0;
#X connect 4 0 1 0;
#X connect 4 1 5 0;
#X connect 5 0 6 0;
#X restore 47 244 pd - quit;
#X connect 0 0 1 0;
#X connect 2 0 3 0;
#X connect 14 0 15 0;
#X connect 16 0 17 0;
#X connect 17 0 18 0;
#X restore 195 73 pd - controls-stuff;
#N canvas 215 23 348 376 - 0;
#X obj 36 37 loadbang;
#X msg 36 77 \; pd-score clear \; score-vis-set 0 \; \; sizes read
../txt/sizes.txt \; layout-set 0 \; \; allow-set 0 \; \; guts-set 0
\; pd-- vis 0 \; pd-instructions vis 0 \; pd-controls vis 0 \; \; maketempo-min-set
20000 \; maketempo-max-set 40000 \;;
#X connect 0 0 1 0;
#X restore 195 44 pd - loadbang;
#N canvas 0 23 973 268 - 0;
#X text 2 122 "spacebar" to play;
#X text 188 122 "r" to reset;
#X obj 36 45 tgl 15 0 empty empty empty 17 7 0 10 -262144 -1 -1 0 1
;
#X msg 36 69 \; play-set \$1;
#X msg 168 60 \; reset-set bang \; play-set 0 \;;
#X obj 35 18 r bar-bng;
#X obj 168 30 r r-bng;
#X obj 326 28 r f-bng;
#X msg 326 52 \; fill-set bang;
#X obj 459 33 r i-bng;
#X msg 459 57 \; isorhythms-set bang;
#X connect 2 0 3 0;
#X connect 5 0 2 0;
#X connect 6 0 4 0;
#X connect 7 0 8 0;
#X connect 9 0 10 0;
#X restore 195 15 pd - keyboard;
#N canvas 507 34 648 558 sizes 0;
#X obj 360 88 clone _setsize 6 template a;
#X obj 184 241 list;
#X obj 144 265 t b;
#X msg 206 456 \; _setsize-\$1a \$2 \;;
#X obj 166 97 s get-pointer;
#X text 137 54 Sizes of grids of all staff lines;
#X obj 299 23 text define sizes;
#X obj 63 129 text get sizes;
#X obj 63 19 r get-sizes;
#X obj 184 289 t b a b;
#X obj 270 306 f;
#X obj 300 306 + 1;
#X obj 224 338 list prepend;
#X obj 63 78 t f b b;
#X msg 300 172 0;
#X obj 63 184 list length;
#X obj 63 232 sel;
#X obj 87 274 list;
#X obj 63 153 t a a a;
#X obj 83 432 f 6;
#X obj 83 456 fd_iterate;
#X obj 83 402 t b f;
#X obj 83 480 pack;
#X obj 63 208 > 1;
#X msg 72 47 0;
#X msg 108 48 1;
#X obj 184 265 list split 1;
#X obj 98 351 r resize-all;
#X connect 1 0 26 0;
#X connect 2 0 1 0;
#X connect 7 0 18 0;
#X connect 8 0 13 0;
#X connect 9 0 2 0;
#X connect 9 1 12 0;
#X connect 9 2 10 0;
#X connect 10 0 11 0;
#X connect 10 0 12 1;
#X connect 11 0 10 1;
#X connect 12 0 3 0;
#X connect 13 0 7 0;
#X connect 13 1 14 0;
#X connect 13 2 4 0;
#X connect 14 0 10 1;
#X connect 15 0 23 0;
#X connect 16 0 17 0;
#X connect 16 1 2 0;
#X connect 17 0 21 0;
#X connect 18 0 15 0;
#X connect 18 1 17 1;
#X connect 18 2 1 1;
#X connect 19 0 20 0;
#X connect 20 0 22 0;
#X connect 21 0 19 0;
#X connect 21 1 22 1;
#X connect 22 0 3 0;
#X connect 23 0 16 0;
#X connect 24 0 13 0;
#X connect 25 0 13 0;
#X connect 26 0 9 0;
#X connect 26 1 1 1;
#X connect 27 0 21 0;
#X restore 18 131 pd sizes;
#N canvas 662 137 618 637 autoplay 0;
#X obj 88 370 mod 2;
#X obj 88 394 sel 0 1;
#X obj 109 451 s isorhythms-set;
#X obj 92 484 s fill-set;
#X obj 83 240 moses 20;
#X msg 164 234 \; autoplay 0;
#X obj 68 60 r timeline;
#X obj 68 84 spigot;
#X obj 29 9 r autoplay;
#X obj 119 81 r width;
#X obj 24 137 sel 1;
#X obj 29 33 t f f;
#X obj 84 212 counter;
#X obj 162 196 r limit;
#X obj 68 108 sel 1000;
#X obj 190 26 r reset-score;
#X msg 190 50 0;
#X obj 306 39 r width;
#X obj 306 63 * 0.75;
#X obj 290 89 >=;
#X obj 298 139 s tempo-vis-switch;
#X obj 299 337 f;
#X obj 290 113 change;
#X obj 24 161 t b b;
#X obj 93 160 s maketempo;
#X obj 301 182 r maketempo;
#X obj 458 196 s maketempo;
#X obj 459 148 r tempo-vis-switch;
#X obj 380 295 / 1000;
#X msg 447 387 \; ntempo-set \$1;
#X obj 380 318 fd_ceil;
#X obj 458 171 sel 1;
#X obj 299 361 pack;
#X obj 380 342 t f f;
#X obj 306 291 t f f;
#X msg 295 387 \$2 \, 0 \$1 \; page-dur-set \$1 \; tempo-set \$2;
#X obj 295 439 line;
#X obj 295 463 fd_ceil;
#X obj 295 487 change;
#X obj 295 512 s tempo-set;
#X msg 461 22 \; reset-score bang \; titled-set 1 \; layout-set 3 \;
instrument 2 \; autoplay 1 \; limit 20 \;;
#X obj 304 242 fd_crand 20000 40000 22;
#X obj 90 267 t f f b;
#X msg 113 302 \; reset-set bang \; play-set 1 \;;
#X obj 43 328 t f f;
#X obj 42 547 spigot;
#X obj 81 521 r print-and-save;
#X obj 42 571 s print-page-num;
#X connect 0 0 1 0;
#X connect 1 0 3 0;
#X connect 1 1 2 0;
#X connect 4 0 42 0;
#X connect 4 1 5 0;
#X connect 6 0 7 0;
#X connect 7 0 14 0;
#X connect 8 0 11 0;
#X connect 9 0 14 1;
#X connect 10 0 23 0;
#X connect 11 0 10 0;
#X connect 11 1 7 1;
#X connect 12 0 4 0;
#X connect 13 0 4 1;
#X connect 14 0 12 0;
#X connect 14 1 19 0;
#X connect 15 0 16 0;
#X connect 16 0 12 0;
#X connect 17 0 18 0;
#X connect 18 0 19 1;
#X connect 19 0 22 0;
#X connect 21 0 32 0;
#X connect 22 0 20 0;
#X connect 23 0 12 0;
#X connect 23 1 24 0;
#X connect 25 0 41 0;
#X connect 27 0 31 0;
#X connect 28 0 30 0;
#X connect 30 0 33 0;
#X connect 31 0 26 0;
#X connect 32 0 35 0;
#X connect 33 0 32 1;
#X connect 33 1 29 0;
#X connect 34 0 21 1;
#X connect 34 1 28 0;
#X connect 35 0 36 0;
#X connect 36 0 37 0;
#X connect 37 0 38 0;
#X connect 38 0 39 0;
#X connect 41 0 34 0;
#X connect 42 0 44 0;
#X connect 42 1 43 0;
#X connect 42 2 21 0;
#X connect 44 0 45 0;
#X connect 44 1 0 0;
#X connect 45 0 47 0;
#X connect 46 0 45 1;
#X restore 196 190 pd autoplay;
#N canvas 538 194 571 469 - 0;
#X obj 125 235 list;
#X obj 125 316 t a a;
#X obj 125 381 list;
#X obj 164 156 ggee/getdir;
#X obj 125 181 symbol;
#X obj 150 212 r title;
#X obj 164 128 loadbang;
#X obj 125 259 list;
#X obj 71 56 t b f;
#X obj 71 20 r print-page-num;
#X obj 338 157 t f;
#X obj 126 283 list;
#X obj 217 266 r print-and-save-path;
#X msg 125 341 bang \; pd-score print \$1/\$4/\$2-\$3.ps;
#X msg 125 408 bang \; pd-score write \$1/\$4/\$2-\$3.txt \;;
#X obj 55 121 del 1000;
#X connect 0 0 7 0;
#X connect 1 0 13 0;
#X connect 1 1 2 1;
#X connect 2 0 14 0;
#X connect 3 0 4 1;
#X connect 4 0 0 0;
#X connect 5 0 0 1;
#X connect 6 0 3 0;
#X connect 7 0 11 0;
#X connect 8 0 15 0;
#X connect 8 1 10 0;
#X connect 9 0 8 0;
#X connect 10 0 7 1;
#X connect 11 0 1 0;
#X connect 12 0 11 1;
#X connect 13 0 2 0;
#X connect 15 0 4 0;
#X restore 195 102 pd - print-and-save;
#X restore 13 13 pd guts _____________;
#X obj 13 213 bng 15 250 50 0 clear-score clear-score-set clear 17
7 0 10 -261234 -1 -1;
#X obj 13 235 bng 15 250 50 0 quit quit-set quit 17 7 0 10 -258113
-1 -1;
#X obj 13 98 hradio 15 1 0 3 listen-port listen-port-set listen-port
0 -8 0 10 -262144 -1 -1 0;
#X obj 73 98 bng 15 250 50 0 listen-0 listen-0-set listen-0 17 7 0
10 -262144 -1 -1;
#X symbolatom 13 138 20 0 0 2 print-and-save-path print-and-save-path-set
print-and-save-path, f 20;
#X obj 13 161 tgl 30 0 print-and-save print-and-save-set print-and-save
35 15 0 12 -204786 -1 -1 0 1;
#X obj 74 225 nbx 5 20 -1e+37 1e+37 0 0 limit limit-set limit 0 -8
0 14 -262144 -1 -1 20 256;
